<?xml version="1.0" encoding="UTF-8" standalone="no"?>
<!DOCTYPE svg PUBLIC "-//W3C//DTD SVG 1.1//EN"
 "http://www.w3.org/Graphics/SVG/1.1/DTD/svg11.dtd">
<!-- Generated by graphviz version 12.2.1 (20241206.2353)
 -->
<!-- Title: dependency&#45;cruiser output Pages: 1 -->
<svg width="939pt" height="1244pt"
 viewBox="0.00 0.00 939.25 1244.00" xmlns="http://www.w3.org/2000/svg" xmlns:xlink="http://www.w3.org/1999/xlink">
<g id="graph0" class="graph" transform="scale(1 1) rotate(0) translate(4 1240)">
<title>dependency&#45;cruiser output</title>
<polygon fill="white" stroke="none" points="-4,4 -4,-1240 935.25,-1240 935.25,4 -4,4"/>
<g id="clust1" class="cluster">
<title>cluster_src</title>
<path fill="#ffffff" stroke="black" stroke-width="2" d="M20,-8C20,-8 911.25,-8 911.25,-8 917.25,-8 923.25,-14 923.25,-20 923.25,-20 923.25,-1216 923.25,-1216 923.25,-1222 917.25,-1228 911.25,-1228 911.25,-1228 20,-1228 20,-1228 14,-1228 8,-1222 8,-1216 8,-1216 8,-20 8,-20 8,-14 14,-8 20,-8"/>
<text text-anchor="middle" x="465.62" y="-1215.45" font-family="Helvetica,sans-Serif" font-weight="bold" font-size="9.00">src</text>
</g>
<g id="clust2" class="cluster">
<title>cluster_src/js</title>
<path fill="#ffffff" stroke="black" stroke-width="2" d="M28,-16C28,-16 903.25,-16 903.25,-16 909.25,-16 915.25,-22 915.25,-28 915.25,-28 915.25,-1189 915.25,-1189 915.25,-1195 909.25,-1201 903.25,-1201 903.25,-1201 28,-1201 28,-1201 22,-1201 16,-1195 16,-1189 16,-1189 16,-28 16,-28 16,-22 22,-16 28,-16"/>
<text text-anchor="middle" x="465.62" y="-1188.45" font-family="Helvetica,sans-Serif" font-weight="bold" font-size="9.00">js</text>
</g>
<g id="clust3" class="cluster">
<title>cluster_src/js/application</title>
<path fill="#ffffff" stroke="black" stroke-width="2" d="M198.25,-490C198.25,-490 261,-490 261,-490 267,-490 273,-496 273,-502 273,-502 273,-531 273,-531 273,-537 267,-543 261,-543 261,-543 198.25,-543 198.25,-543 192.25,-543 186.25,-537 186.25,-531 186.25,-531 186.25,-502 186.25,-502 186.25,-496 192.25,-490 198.25,-490"/>
<text text-anchor="middle" x="229.62" y="-530.45" font-family="Helvetica,sans-Serif" font-weight="bold" font-size="9.00">application</text>
</g>
<g id="clust4" class="cluster">
<title>cluster_src/js/controller</title>
<path fill="#ffffff" stroke="black" stroke-width="2" d="M293,-490C293,-490 349.75,-490 349.75,-490 355.75,-490 361.75,-496 361.75,-502 361.75,-502 361.75,-531 361.75,-531 361.75,-537 355.75,-543 349.75,-543 349.75,-543 293,-543 293,-543 287,-543 281,-537 281,-531 281,-531 281,-502 281,-502 281,-496 287,-490 293,-490"/>
<text text-anchor="middle" x="321.38" y="-530.45" font-family="Helvetica,sans-Serif" font-weight="bold" font-size="9.00">controller</text>
</g>
<g id="clust5" class="cluster">
<title>cluster_src/js/dispatcher</title>
<path fill="#ffffff" stroke="black" stroke-width="2" d="M36,-429C36,-429 166.25,-429 166.25,-429 172.25,-429 178.25,-435 178.25,-441 178.25,-441 178.25,-470 178.25,-470 178.25,-476 172.25,-482 166.25,-482 166.25,-482 36,-482 36,-482 30,-482 24,-476 24,-470 24,-470 24,-441 24,-441 24,-435 30,-429 36,-429"/>
<text text-anchor="middle" x="101.12" y="-469.45" font-family="Helvetica,sans-Serif" font-weight="bold" font-size="9.00">dispatcher</text>
</g>
<g id="clust6" class="cluster">
<title>cluster_src/js/ui</title>
<path fill="#ffffff" stroke="black" stroke-width="2" d="M381.75,-24C381.75,-24 563.25,-24 563.25,-24 569.25,-24 575.25,-30 575.25,-36 575.25,-36 575.25,-222 575.25,-222 575.25,-228 569.25,-234 563.25,-234 563.25,-234 381.75,-234 381.75,-234 375.75,-234 369.75,-228 369.75,-222 369.75,-222 369.75,-36 369.75,-36 369.75,-30 375.75,-24 381.75,-24"/>
<text text-anchor="middle" x="472.5" y="-221.45" font-family="Helvetica,sans-Serif" font-weight="bold" font-size="9.00">ui</text>
</g>
<g id="clust7" class="cluster">
<title>cluster_src/js/ui/map</title>
<path fill="#ffffff" stroke="black" stroke-width="2" d="M487.62,-32C487.62,-32 554.88,-32 554.88,-32 560.88,-32 566.88,-38 566.88,-44 566.88,-44 566.88,-73 566.88,-73 566.88,-79 560.88,-85 554.88,-85 554.88,-85 487.62,-85 487.62,-85 481.62,-85 475.62,-79 475.62,-73 475.62,-73 475.62,-44 475.62,-44 475.62,-38 481.62,-32 487.62,-32"/>
<text text-anchor="middle" x="521.25" y="-72.45" font-family="Helvetica,sans-Serif" font-weight="bold" font-size="9.00">map</text>
</g>
<g id="clust8" class="cluster">
<title>cluster_src/js/ui/path</title>
<path fill="#ffffff" stroke="black" stroke-width="2" d="M487.25,-93C487.25,-93 555.25,-93 555.25,-93 561.25,-93 567.25,-99 567.25,-105 567.25,-105 567.25,-134 567.25,-134 567.25,-140 561.25,-146 555.25,-146 555.25,-146 487.25,-146 487.25,-146 481.25,-146 475.25,-140 475.25,-134 475.25,-134 475.25,-105 475.25,-105 475.25,-99 481.25,-93 487.25,-93"/>
<text text-anchor="middle" x="521.25" y="-133.45" font-family="Helvetica,sans-Serif" font-weight="bold" font-size="9.00">path</text>
</g>
<g id="clust9" class="cluster">
<title>cluster_src/js/ui/wall</title>
<path fill="#ffffff" stroke="black" stroke-width="2" d="M487.62,-154C487.62,-154 554.88,-154 554.88,-154 560.88,-154 566.88,-160 566.88,-166 566.88,-166 566.88,-195 566.88,-195 566.88,-201 560.88,-207 554.88,-207 554.88,-207 487.62,-207 487.62,-207 481.62,-207 475.62,-201 475.62,-195 475.62,-195 475.62,-166 475.62,-166 475.62,-160 481.62,-154 487.62,-154"/>
<text text-anchor="middle" x="521.25" y="-194.45" font-family="Helvetica,sans-Serif" font-weight="bold" font-size="9.00">wall</text>
</g>
<g id="clust10" class="cluster">
<title>cluster_src/js/view</title>
<path fill="#ffffff" stroke="black" stroke-width="2" d="M391.62,-242C391.62,-242 895.25,-242 895.25,-242 901.25,-242 907.25,-248 907.25,-254 907.25,-254 907.25,-1162 907.25,-1162 907.25,-1168 901.25,-1174 895.25,-1174 895.25,-1174 391.62,-1174 391.62,-1174 385.62,-1174 379.62,-1168 379.62,-1162 379.62,-1162 379.62,-254 379.62,-254 379.62,-248 385.62,-242 391.62,-242"/>
<text text-anchor="middle" x="643.44" y="-1161.45" font-family="Helvetica,sans-Serif" font-weight="bold" font-size="9.00">view</text>
</g>
<g id="clust11" class="cluster">
<title>cluster_src/js/view/camera</title>
<path fill="#ffffff" stroke="black" stroke-width="2" d="M476.38,-250C476.38,-250 740.5,-250 740.5,-250 746.5,-250 752.5,-256 752.5,-262 752.5,-262 752.5,-511 752.5,-511 752.5,-517 746.5,-523 740.5,-523 740.5,-523 476.38,-523 476.38,-523 470.38,-523 464.38,-517 464.38,-511 464.38,-511 464.38,-262 464.38,-262 464.38,-256 470.38,-250 476.38,-250"/>
<text text-anchor="middle" x="608.44" y="-510.45" font-family="Helvetica,sans-Serif" font-weight="bold" font-size="9.00">camera</text>
</g>
<g id="clust12" class="cluster">
<title>cluster_src/js/view/camera/keyboard</title>
<path fill="#ffffff" stroke="black" stroke-width="2" d="M603,-258C603,-258 732.5,-258 732.5,-258 738.5,-258 744.5,-264 744.5,-270 744.5,-270 744.5,-299 744.5,-299 744.5,-305 738.5,-311 732.5,-311 732.5,-311 603,-311 603,-311 597,-311 591,-305 591,-299 591,-299 591,-270 591,-270 591,-264 597,-258 603,-258"/>
<text text-anchor="middle" x="667.75" y="-298.45" font-family="Helvetica,sans-Serif" font-weight="bold" font-size="9.00">keyboard</text>
</g>
<g id="clust13" class="cluster">
<title>cluster_src/js/view/camera/module</title>
<path fill="#ffffff" stroke="black" stroke-width="2" d="M612.75,-319C612.75,-319 722.75,-319 722.75,-319 728.75,-319 734.75,-325 734.75,-331 734.75,-331 734.75,-484 734.75,-484 734.75,-490 728.75,-496 722.75,-496 722.75,-496 612.75,-496 612.75,-496 606.75,-496 600.75,-490 600.75,-484 600.75,-484 600.75,-331 600.75,-331 600.75,-325 606.75,-319 612.75,-319"/>
<text text-anchor="middle" x="667.75" y="-483.45" font-family="Helvetica,sans-Serif" font-weight="bold" font-size="9.00">module</text>
</g>
<g id="clust14" class="cluster">
<title>cluster_src/js/view/content</title>
<path fill="#ffffff" stroke="black" stroke-width="2" d="M475.12,-531C475.12,-531 887.25,-531 887.25,-531 893.25,-531 899.25,-537 899.25,-543 899.25,-543 899.25,-952 899.25,-952 899.25,-958 893.25,-964 887.25,-964 887.25,-964 475.12,-964 475.12,-964 469.12,-964 463.12,-958 463.12,-952 463.12,-952 463.12,-543 463.12,-543 463.12,-537 469.12,-531 475.12,-531"/>
<text text-anchor="middle" x="681.19" y="-951.45" font-family="Helvetica,sans-Serif" font-weight="bold" font-size="9.00">content</text>
</g>
<g id="clust15" class="cluster">
<title>cluster_src/js/view/content/cursor</title>
<path fill="#ffffff" stroke="black" stroke-width="2" d="M483.12,-637C483.12,-637 559.38,-637 559.38,-637 565.38,-637 571.38,-643 571.38,-649 571.38,-649 571.38,-678 571.38,-678 571.38,-684 565.38,-690 559.38,-690 559.38,-690 483.12,-690 483.12,-690 477.12,-690 471.12,-684 471.12,-678 471.12,-678 471.12,-649 471.12,-649 471.12,-643 477.12,-637 483.12,-637"/>
<text text-anchor="middle" x="521.25" y="-677.45" font-family="Helvetica,sans-Serif" font-weight="bold" font-size="9.00">cursor</text>
</g>
<g id="clust16" class="cluster">
<title>cluster_src/js/view/content/intersection</title>
<path fill="#ffffff" stroke="black" stroke-width="2" d="M619.5,-539C619.5,-539 716,-539 716,-539 722,-539 728,-545 728,-551 728,-551 728,-580 728,-580 728,-586 722,-592 716,-592 716,-592 619.5,-592 619.5,-592 613.5,-592 607.5,-586 607.5,-580 607.5,-580 607.5,-551 607.5,-551 607.5,-545 613.5,-539 619.5,-539"/>
<text text-anchor="middle" x="667.75" y="-579.45" font-family="Helvetica,sans-Serif" font-weight="bold" font-size="9.00">intersection</text>
</g>
<g id="clust17" class="cluster">
<title>cluster_src/js/view/content/map</title>
<path fill="#ffffff" stroke="black" stroke-width="2" d="M634.12,-600C634.12,-600 701.38,-600 701.38,-600 707.38,-600 713.38,-606 713.38,-612 713.38,-612 713.38,-641 713.38,-641 713.38,-647 707.38,-653 701.38,-653 701.38,-653 634.12,-653 634.12,-653 628.12,-653 622.12,-647 622.12,-641 622.12,-641 622.12,-612 622.12,-612 622.12,-606 628.12,-600 634.12,-600"/>
<text text-anchor="middle" x="667.75" y="-640.45" font-family="Helvetica,sans-Serif" font-weight="bold" font-size="9.00">map</text>
</g>
<g id="clust18" class="cluster">
<title>cluster_src/js/view/content/path</title>
<path fill="#ffffff" stroke="black" stroke-width="2" d="M633.75,-661C633.75,-661 874.38,-661 874.38,-661 880.38,-661 886.38,-667 886.38,-673 886.38,-673 886.38,-768 886.38,-768 886.38,-774 880.38,-780 874.38,-780 874.38,-780 633.75,-780 633.75,-780 627.75,-780 621.75,-774 621.75,-768 621.75,-768 621.75,-673 621.75,-673 621.75,-667 627.75,-661 633.75,-661"/>
<text text-anchor="middle" x="754.06" y="-767.45" font-family="Helvetica,sans-Serif" font-weight="bold" font-size="9.00">path</text>
</g>
<g id="clust19" class="cluster">
<title>cluster_src/js/view/content/path/path</title>
<path fill="#ffffff" stroke="black" stroke-width="2" d="M777.38,-669C777.38,-669 866.38,-669 866.38,-669 872.38,-669 878.38,-675 878.38,-681 878.38,-681 878.38,-741 878.38,-741 878.38,-747 872.38,-753 866.38,-753 866.38,-753 777.38,-753 777.38,-753 771.38,-753 765.38,-747 765.38,-741 765.38,-741 765.38,-681 765.38,-681 765.38,-675 771.38,-669 777.38,-669"/>
<text text-anchor="middle" x="821.88" y="-740.45" font-family="Helvetica,sans-Serif" font-weight="bold" font-size="9.00">path</text>
</g>
<g id="clust20" class="cluster">
<title>cluster_src/js/view/content/roof</title>
<path fill="#ffffff" stroke="black" stroke-width="2" d="M633.38,-788C633.38,-788 702.12,-788 702.12,-788 708.12,-788 714.12,-794 714.12,-800 714.12,-800 714.12,-829 714.12,-829 714.12,-835 708.12,-841 702.12,-841 702.12,-841 633.38,-841 633.38,-841 627.38,-841 621.38,-835 621.38,-829 621.38,-829 621.38,-800 621.38,-800 621.38,-794 627.38,-788 633.38,-788"/>
<text text-anchor="middle" x="667.75" y="-828.45" font-family="Helvetica,sans-Serif" font-weight="bold" font-size="9.00">roof</text>
</g>
<g id="clust21" class="cluster">
<title>cluster_src/js/view/content/wall</title>
<path fill="#ffffff" stroke="black" stroke-width="2" d="M634.12,-849C634.12,-849 879.25,-849 879.25,-849 885.25,-849 891.25,-855 891.25,-861 891.25,-861 891.25,-925 891.25,-925 891.25,-931 885.25,-937 879.25,-937 879.25,-937 634.12,-937 634.12,-937 628.12,-937 622.12,-931 622.12,-925 622.12,-925 622.12,-861 622.12,-861 622.12,-855 628.12,-849 634.12,-849"/>
<text text-anchor="middle" x="756.69" y="-924.45" font-family="Helvetica,sans-Serif" font-weight="bold" font-size="9.00">wall</text>
</g>
<g id="clust22" class="cluster">
<title>cluster_src/js/view/content/wall/wall</title>
<path fill="#ffffff" stroke="black" stroke-width="2" d="M772.5,-857C772.5,-857 871.25,-857 871.25,-857 877.25,-857 883.25,-863 883.25,-869 883.25,-869 883.25,-898 883.25,-898 883.25,-904 877.25,-910 871.25,-910 871.25,-910 772.5,-910 772.5,-910 766.5,-910 760.5,-904 760.5,-898 760.5,-898 760.5,-869 760.5,-869 760.5,-863 766.5,-857 772.5,-857"/>
<text text-anchor="middle" x="821.88" y="-897.45" font-family="Helvetica,sans-Serif" font-weight="bold" font-size="9.00">wall</text>
</g>
<g id="clust23" class="cluster">
<title>cluster_src/js/view/interaction</title>
<path fill="#ffffff" stroke="black" stroke-width="2" d="M471.5,-972C471.5,-972 571,-972 571,-972 577,-972 583,-978 583,-984 583,-984 583,-1013 583,-1013 583,-1019 577,-1025 571,-1025 571,-1025 471.5,-1025 471.5,-1025 465.5,-1025 459.5,-1019 459.5,-1013 459.5,-1013 459.5,-984 459.5,-984 459.5,-978 465.5,-972 471.5,-972"/>
<text text-anchor="middle" x="521.25" y="-1012.45" font-family="Helvetica,sans-Serif" font-weight="bold" font-size="9.00">interaction</text>
</g>
<g id="clust24" class="cluster">
<title>cluster_src/js/view/light</title>
<path fill="#ffffff" stroke="black" stroke-width="2" d="M482.75,-1033C482.75,-1033 559.75,-1033 559.75,-1033 565.75,-1033 571.75,-1039 571.75,-1045 571.75,-1045 571.75,-1074 571.75,-1074 571.75,-1080 565.75,-1086 559.75,-1086 559.75,-1086 482.75,-1086 482.75,-1086 476.75,-1086 470.75,-1080 470.75,-1074 470.75,-1074 470.75,-1045 470.75,-1045 470.75,-1039 476.75,-1033 482.75,-1033"/>
<text text-anchor="middle" x="521.25" y="-1073.45" font-family="Helvetica,sans-Serif" font-weight="bold" font-size="9.00">light</text>
</g>
<g id="clust25" class="cluster">
<title>cluster_src/js/view/render</title>
<path fill="#ffffff" stroke="black" stroke-width="2" d="M477.5,-1094C477.5,-1094 565,-1094 565,-1094 571,-1094 577,-1100 577,-1106 577,-1106 577,-1135 577,-1135 577,-1141 571,-1147 565,-1147 565,-1147 477.5,-1147 477.5,-1147 471.5,-1147 465.5,-1141 465.5,-1135 465.5,-1135 465.5,-1106 465.5,-1106 465.5,-1100 471.5,-1094 477.5,-1094"/>
<text text-anchor="middle" x="521.25" y="-1134.45" font-family="Helvetica,sans-Serif" font-weight="bold" font-size="9.00">render</text>
</g>
<!-- src/js/application/Application.js -->
<g id="node1" class="node">
<title>src/js/application/Application.js</title>
<g id="a_node1"><a xlink:href="src/js/application/Application.js" xlink:title="Application.js">
<path fill="#ffffcc" stroke="black" d="M258.83,-516.25C258.83,-516.25 200.42,-516.25 200.42,-516.25 197.33,-516.25 194.25,-513.17 194.25,-510.08 194.25,-510.08 194.25,-503.92 194.25,-503.92 194.25,-500.83 197.33,-497.75 200.42,-497.75 200.42,-497.75 258.83,-497.75 258.83,-497.75 261.92,-497.75 265,-500.83 265,-503.92 265,-503.92 265,-510.08 265,-510.08 265,-513.17 261.92,-516.25 258.83,-516.25"/>
<text text-anchor="start" x="202.25" y="-503.7" font-family="Helvetica,sans-Serif" font-size="9.00">Application.js</text>
</a>
</g>
</g>
<!-- src/js/controller/Controller.js -->
<g id="node2" class="node">
<title>src/js/controller/Controller.js</title>
<g id="a_node2"><a xlink:href="src/js/controller/Controller.js" xlink:title="Controller.js">
<path fill="#ffffcc" stroke="black" d="M347.58,-516.25C347.58,-516.25 295.17,-516.25 295.17,-516.25 292.08,-516.25 289,-513.17 289,-510.08 289,-510.08 289,-503.92 289,-503.92 289,-500.83 292.08,-497.75 295.17,-497.75 295.17,-497.75 347.58,-497.75 347.58,-497.75 350.67,-497.75 353.75,-500.83 353.75,-503.92 353.75,-503.92 353.75,-510.08 353.75,-510.08 353.75,-513.17 350.67,-516.25 347.58,-516.25"/>
<text text-anchor="start" x="297" y="-503.7" font-family="Helvetica,sans-Serif" font-size="9.00">Controller.js</text>
</a>
</g>
</g>
<!-- src/js/application/Application.js&#45;&gt;src/js/controller/Controller.js -->
<g id="edge1" class="edge">
<title>src/js/application/Application.js&#45;&gt;src/js/controller/Controller.js</title>
<path fill="none" stroke="#000000" stroke-width="2" stroke-opacity="0.200000" d="M265.32,-507C270.13,-507 275.11,-507 280.01,-507"/>
<polygon fill="#000000" fill-opacity="0.200000" stroke="#000000" stroke-width="2" stroke-opacity="0.200000" points="279.68,-509.1 285.68,-507 279.68,-504.9 279.68,-509.1"/>
</g>
<!-- src/js/ui/UIController.js -->
<g id="node3" class="node">
<title>src/js/ui/UIController.js</title>
<g id="a_node3"><a xlink:href="src/js/ui/UIController.js" xlink:title="UIController.js">
<path fill="#ffffcc" stroke="black" d="M445.33,-149.25C445.33,-149.25 383.92,-149.25 383.92,-149.25 380.83,-149.25 377.75,-146.17 377.75,-143.08 377.75,-143.08 377.75,-136.92 377.75,-136.92 377.75,-133.83 380.83,-130.75 383.92,-130.75 383.92,-130.75 445.33,-130.75 445.33,-130.75 448.42,-130.75 451.5,-133.83 451.5,-136.92 451.5,-136.92 451.5,-143.08 451.5,-143.08 451.5,-146.17 448.42,-149.25 445.33,-149.25"/>
<text text-anchor="start" x="385.75" y="-136.7" font-family="Helvetica,sans-Serif" font-size="9.00">UIController.js</text>
</a>
</g>
</g>
<!-- src/js/controller/Controller.js&#45;&gt;src/js/ui/UIController.js -->
<g id="edge2" class="edge">
<title>src/js/controller/Controller.js&#45;&gt;src/js/ui/UIController.js</title>
<path fill="none" stroke="#000000" stroke-width="2" stroke-opacity="0.200000" d="M323.21,-497.55C326.47,-462.59 339.7,-337.52 369.75,-239 378.79,-209.37 394.37,-176.87 404.32,-157.47"/>
<polygon fill="#000000" fill-opacity="0.200000" stroke="#000000" stroke-width="2" stroke-opacity="0.200000" points="406.15,-158.51 407.06,-152.22 402.42,-156.57 406.15,-158.51"/>
</g>
<!-- src/js/view/View.js -->
<g id="node4" class="node">
<title>src/js/view/View.js</title>
<g id="a_node4"><a xlink:href="src/js/view/View.js" xlink:title="View.js">
<path fill="#ffffcc" stroke="black" d="M435.46,-884.25C435.46,-884.25 393.79,-884.25 393.79,-884.25 390.71,-884.25 387.62,-881.17 387.62,-878.08 387.62,-878.08 387.62,-871.92 387.62,-871.92 387.62,-868.83 390.71,-865.75 393.79,-865.75 393.79,-865.75 435.46,-865.75 435.46,-865.75 438.54,-865.75 441.62,-868.83 441.62,-871.92 441.62,-871.92 441.62,-878.08 441.62,-878.08 441.62,-881.17 438.54,-884.25 435.46,-884.25"/>
<text text-anchor="start" x="400.38" y="-871.7" font-family="Helvetica,sans-Serif" font-size="9.00">View.js</text>
</a>
</g>
</g>
<!-- src/js/controller/Controller.js&#45;&gt;src/js/view/View.js -->
<g id="edge3" class="edge">
<title>src/js/controller/Controller.js&#45;&gt;src/js/view/View.js</title>
<path fill="none" stroke="#000000" stroke-width="2" stroke-opacity="0.200000" d="M324.72,-516.47C336.87,-565.47 392.69,-790.59 409.09,-856.7"/>
<polygon fill="#000000" fill-opacity="0.200000" stroke="#000000" stroke-width="2" stroke-opacity="0.200000" points="407,-857 410.48,-862.32 411.07,-855.99 407,-857"/>
</g>
<!-- src/js/ui/map/UIMenuMap.js -->
<g id="node7" class="node">
<title>src/js/ui/map/UIMenuMap.js</title>
<g id="a_node7"><a xlink:href="src/js/ui/map/UIMenuMap.js" xlink:title="UIMenuMap.js">
<path fill="#ffffcc" stroke="black" d="M552.71,-58.25C552.71,-58.25 489.79,-58.25 489.79,-58.25 486.71,-58.25 483.62,-55.17 483.62,-52.08 483.62,-52.08 483.62,-45.92 483.62,-45.92 483.62,-42.83 486.71,-39.75 489.79,-39.75 489.79,-39.75 552.71,-39.75 552.71,-39.75 555.79,-39.75 558.88,-42.83 558.88,-45.92 558.88,-45.92 558.88,-52.08 558.88,-52.08 558.88,-55.17 555.79,-58.25 552.71,-58.25"/>
<text text-anchor="start" x="491.62" y="-45.7" font-family="Helvetica,sans-Serif" font-size="9.00">UIMenuMap.js</text>
</a>
</g>
</g>
<!-- src/js/ui/UIController.js&#45;&gt;src/js/ui/map/UIMenuMap.js -->
<g id="edge5" class="edge">
<title>src/js/ui/UIController.js&#45;&gt;src/js/ui/map/UIMenuMap.js</title>
<path fill="none" stroke="#000000" stroke-width="2" stroke-opacity="0.200000" d="M422.75,-130.5C430.94,-119.93 445.11,-102.67 459.5,-90 470.67,-80.16 484.32,-70.75 495.85,-63.43"/>
<polygon fill="#000000" fill-opacity="0.200000" stroke="#000000" stroke-width="2" stroke-opacity="0.200000" points="496.88,-65.27 500.86,-60.32 494.66,-61.7 496.88,-65.27"/>
</g>
<!-- src/js/ui/path/UIMenuPath.js -->
<g id="node8" class="node">
<title>src/js/ui/path/UIMenuPath.js</title>
<g id="a_node8"><a xlink:href="src/js/ui/path/UIMenuPath.js" xlink:title="UIMenuPath.js">
<path fill="#ffffcc" stroke="black" d="M553.08,-119.25C553.08,-119.25 489.42,-119.25 489.42,-119.25 486.33,-119.25 483.25,-116.17 483.25,-113.08 483.25,-113.08 483.25,-106.92 483.25,-106.92 483.25,-103.83 486.33,-100.75 489.42,-100.75 489.42,-100.75 553.08,-100.75 553.08,-100.75 556.17,-100.75 559.25,-103.83 559.25,-106.92 559.25,-106.92 559.25,-113.08 559.25,-113.08 559.25,-116.17 556.17,-119.25 553.08,-119.25"/>
<text text-anchor="start" x="491.25" y="-106.7" font-family="Helvetica,sans-Serif" font-size="9.00">UIMenuPath.js</text>
</a>
</g>
</g>
<!-- src/js/ui/UIController.js&#45;&gt;src/js/ui/path/UIMenuPath.js -->
<g id="edge6" class="edge">
<title>src/js/ui/UIController.js&#45;&gt;src/js/ui/path/UIMenuPath.js</title>
<path fill="none" stroke="#000000" stroke-width="2" stroke-opacity="0.200000" d="M449.59,-130.26C458.64,-127.67 468.52,-124.83 477.95,-122.13"/>
<polygon fill="#000000" fill-opacity="0.200000" stroke="#000000" stroke-width="2" stroke-opacity="0.200000" points="478.35,-124.2 483.54,-120.53 477.2,-120.16 478.35,-124.2"/>
</g>
<!-- src/js/ui/wall/UIMenuWall.js -->
<g id="node9" class="node">
<title>src/js/ui/wall/UIMenuWall.js</title>
<g id="a_node9"><a xlink:href="src/js/ui/wall/UIMenuWall.js" xlink:title="UIMenuWall.js">
<path fill="#ffffcc" stroke="black" d="M552.71,-180.25C552.71,-180.25 489.79,-180.25 489.79,-180.25 486.71,-180.25 483.62,-177.17 483.62,-174.08 483.62,-174.08 483.62,-167.92 483.62,-167.92 483.62,-164.83 486.71,-161.75 489.79,-161.75 489.79,-161.75 552.71,-161.75 552.71,-161.75 555.79,-161.75 558.88,-164.83 558.88,-167.92 558.88,-167.92 558.88,-174.08 558.88,-174.08 558.88,-177.17 555.79,-180.25 552.71,-180.25"/>
<text text-anchor="start" x="491.62" y="-167.7" font-family="Helvetica,sans-Serif" font-size="9.00">UIMenuWall.js</text>
</a>
</g>
</g>
<!-- src/js/ui/UIController.js&#45;&gt;src/js/ui/wall/UIMenuWall.js -->
<g id="edge7" class="edge">
<title>src/js/ui/UIController.js&#45;&gt;src/js/ui/wall/UIMenuWall.js</title>
<path fill="none" stroke="#000000" stroke-width="2" stroke-opacity="0.200000" d="M448.44,-149.72C458.18,-152.61 468.97,-155.81 479.16,-158.83"/>
<polygon fill="#000000" fill-opacity="0.200000" stroke="#000000" stroke-width="2" stroke-opacity="0.200000" points="478.3,-160.76 484.65,-160.45 479.49,-156.73 478.3,-160.76"/>
</g>
<!-- src/js/view/camera/CameraController.js -->
<g id="node10" class="node">
<title>src/js/view/camera/CameraController.js</title>
<g id="a_node10"><a xlink:href="src/js/view/camera/CameraController.js" xlink:title="CameraController.js">
<path fill="#ffffcc" stroke="black" d="M563.96,-407.25C563.96,-407.25 478.54,-407.25 478.54,-407.25 475.46,-407.25 472.38,-404.17 472.38,-401.08 472.38,-401.08 472.38,-394.92 472.38,-394.92 472.38,-391.83 475.46,-388.75 478.54,-388.75 478.54,-388.75 563.96,-388.75 563.96,-388.75 567.04,-388.75 570.12,-391.83 570.12,-394.92 570.12,-394.92 570.12,-401.08 570.12,-401.08 570.12,-404.17 567.04,-407.25 563.96,-407.25"/>
<text text-anchor="start" x="480.38" y="-394.7" font-family="Helvetica,sans-Serif" font-size="9.00">CameraController.js</text>
</a>
</g>
</g>
<!-- src/js/view/View.js&#45;&gt;src/js/view/camera/CameraController.js -->
<g id="edge8" class="edge">
<title>src/js/view/View.js&#45;&gt;src/js/view/camera/CameraController.js</title>
<path fill="none" stroke="#000000" stroke-width="2" stroke-opacity="0.200000" d="M417.13,-865.31C422.28,-832.59 439.9,-723.31 459.5,-634 477.55,-551.75 504.26,-454.73 515.25,-415.63"/>
<polygon fill="#000000" fill-opacity="0.200000" stroke="#000000" stroke-width="2" stroke-opacity="0.200000" points="517.14,-416.64 516.75,-410.3 513.1,-415.5 517.14,-416.64"/>
</g>
<!-- src/js/view/content/ContentController.js -->
<g id="node11" class="node">
<title>src/js/view/content/ContentController.js</title>
<g id="a_node11"><a xlink:href="src/js/view/content/ContentController.js" xlink:title="ContentController.js">
<path fill="#ffffcc" stroke="black" d="M563.58,-770.25C563.58,-770.25 478.92,-770.25 478.92,-770.25 475.83,-770.25 472.75,-767.17 472.75,-764.08 472.75,-764.08 472.75,-757.92 472.75,-757.92 472.75,-754.83 475.83,-751.75 478.92,-751.75 478.92,-751.75 563.58,-751.75 563.58,-751.75 566.67,-751.75 569.75,-754.83 569.75,-757.92 569.75,-757.92 569.75,-764.08 569.75,-764.08 569.75,-767.17 566.67,-770.25 563.58,-770.25"/>
<text text-anchor="start" x="480.75" y="-757.7" font-family="Helvetica,sans-Serif" font-size="9.00">ContentController.js</text>
</a>
</g>
</g>
<!-- src/js/view/View.js&#45;&gt;src/js/view/content/ContentController.js -->
<g id="edge9" class="edge">
<title>src/js/view/View.js&#45;&gt;src/js/view/content/ContentController.js</title>
<path fill="none" stroke="#000000" stroke-width="2" stroke-opacity="0.200000" d="M424.55,-865.28C442.54,-845.68 483.33,-801.23 505.4,-777.18"/>
<polygon fill="#000000" fill-opacity="0.200000" stroke="#000000" stroke-width="2" stroke-opacity="0.200000" points="506.8,-778.77 509.31,-772.93 503.7,-775.93 506.8,-778.77"/>
</g>
<!-- src/js/view/interaction/InteractionController.js -->
<g id="node12" class="node">
<title>src/js/view/interaction/InteractionController.js</title>
<g id="a_node12"><a xlink:href="src/js/view/interaction/InteractionController.js" xlink:title="InteractionController.js">
<path fill="#ffffcc" stroke="black" d="M568.83,-998.25C568.83,-998.25 473.67,-998.25 473.67,-998.25 470.58,-998.25 467.5,-995.17 467.5,-992.08 467.5,-992.08 467.5,-985.92 467.5,-985.92 467.5,-982.83 470.58,-979.75 473.67,-979.75 473.67,-979.75 568.83,-979.75 568.83,-979.75 571.92,-979.75 575,-982.83 575,-985.92 575,-985.92 575,-992.08 575,-992.08 575,-995.17 571.92,-998.25 568.83,-998.25"/>
<text text-anchor="start" x="475.5" y="-985.7" font-family="Helvetica,sans-Serif" font-size="9.00">InteractionController.js</text>
</a>
</g>
</g>
<!-- src/js/view/View.js&#45;&gt;src/js/view/interaction/InteractionController.js -->
<g id="edge10" class="edge">
<title>src/js/view/View.js&#45;&gt;src/js/view/interaction/InteractionController.js</title>
<path fill="none" stroke="#000000" stroke-width="2" stroke-opacity="0.200000" d="M417.62,-884.52C421.99,-903 434.07,-943.94 459.5,-967 463.08,-970.25 467.18,-973.03 471.52,-975.4"/>
<polygon fill="#000000" fill-opacity="0.200000" stroke="#000000" stroke-width="2" stroke-opacity="0.200000" points="470.49,-977.24 476.81,-977.94 472.31,-973.45 470.49,-977.24"/>
</g>
<!-- src/js/view/light/LightController.js -->
<g id="node13" class="node">
<title>src/js/view/light/LightController.js</title>
<g id="a_node13"><a xlink:href="src/js/view/light/LightController.js" xlink:title="LightController.js">
<path fill="#ffffcc" stroke="black" d="M557.58,-1059.25C557.58,-1059.25 484.92,-1059.25 484.92,-1059.25 481.83,-1059.25 478.75,-1056.17 478.75,-1053.08 478.75,-1053.08 478.75,-1046.92 478.75,-1046.92 478.75,-1043.83 481.83,-1040.75 484.92,-1040.75 484.92,-1040.75 557.58,-1040.75 557.58,-1040.75 560.67,-1040.75 563.75,-1043.83 563.75,-1046.92 563.75,-1046.92 563.75,-1053.08 563.75,-1053.08 563.75,-1056.17 560.67,-1059.25 557.58,-1059.25"/>
<text text-anchor="start" x="486.75" y="-1046.7" font-family="Helvetica,sans-Serif" font-size="9.00">LightController.js</text>
</a>
</g>
</g>
<!-- src/js/view/View.js&#45;&gt;src/js/view/light/LightController.js -->
<g id="edge11" class="edge">
<title>src/js/view/View.js&#45;&gt;src/js/view/light/LightController.js</title>
<path fill="none" stroke="#000000" stroke-width="2" stroke-opacity="0.200000" d="M415.54,-884.69C415.82,-911.24 420.27,-986 459.5,-1028 462.75,-1031.48 466.6,-1034.42 470.76,-1036.89"/>
<polygon fill="#000000" fill-opacity="0.200000" stroke="#000000" stroke-width="2" stroke-opacity="0.200000" points="469.51,-1038.61 475.81,-1039.47 471.43,-1034.87 469.51,-1038.61"/>
</g>
<!-- src/js/view/render/RenderController.js -->
<g id="node14" class="node">
<title>src/js/view/render/RenderController.js</title>
<g id="a_node14"><a xlink:href="src/js/view/render/RenderController.js" xlink:title="RenderController.js">
<path fill="#ffffcc" stroke="black" d="M562.83,-1120.25C562.83,-1120.25 479.67,-1120.25 479.67,-1120.25 476.58,-1120.25 473.5,-1117.17 473.5,-1114.08 473.5,-1114.08 473.5,-1107.92 473.5,-1107.92 473.5,-1104.83 476.58,-1101.75 479.67,-1101.75 479.67,-1101.75 562.83,-1101.75 562.83,-1101.75 565.92,-1101.75 569,-1104.83 569,-1107.92 569,-1107.92 569,-1114.08 569,-1114.08 569,-1117.17 565.92,-1120.25 562.83,-1120.25"/>
<text text-anchor="start" x="481.5" y="-1107.7" font-family="Helvetica,sans-Serif" font-size="9.00">RenderController.js</text>
</a>
</g>
</g>
<!-- src/js/view/View.js&#45;&gt;src/js/view/render/RenderController.js -->
<g id="edge12" class="edge">
<title>src/js/view/View.js&#45;&gt;src/js/view/render/RenderController.js</title>
<path fill="none" stroke="#000000" stroke-width="2" stroke-opacity="0.200000" d="M416.37,-884.63C419.42,-922.08 432.22,-1057.44 459.5,-1089 462.13,-1092.04 465.21,-1094.66 468.57,-1096.92"/>
<polygon fill="#000000" fill-opacity="0.200000" stroke="#000000" stroke-width="2" stroke-opacity="0.200000" points="467.41,-1098.68 473.67,-1099.82 469.49,-1095.03 467.41,-1098.68"/>
</g>
<!-- src/js/dispatcher/ApplicationDispatcherEvent.js -->
<g id="node5" class="node">
<title>src/js/dispatcher/ApplicationDispatcherEvent.js</title>
<g id="a_node5"><a xlink:href="src/js/dispatcher/ApplicationDispatcherEvent.js" xlink:title="ApplicationDispatcherEvent.js">
<path fill="#ffffcc" stroke="black" d="M164.08,-455.25C164.08,-455.25 38.17,-455.25 38.17,-455.25 35.08,-455.25 32,-452.17 32,-449.08 32,-449.08 32,-442.92 32,-442.92 32,-439.83 35.08,-436.75 38.17,-436.75 38.17,-436.75 164.08,-436.75 164.08,-436.75 167.17,-436.75 170.25,-439.83 170.25,-442.92 170.25,-442.92 170.25,-449.08 170.25,-449.08 170.25,-452.17 167.17,-455.25 164.08,-455.25"/>
<text text-anchor="start" x="40" y="-442.7" font-family="Helvetica,sans-Serif" font-size="9.00">ApplicationDispatcherEvent.js</text>
</a>
</g>
</g>
<!-- src/js/index.js -->
<g id="node6" class="node">
<title>src/js/index.js</title>
<g id="a_node6"><a xlink:href="src/js/index.js" xlink:title="index.js">
<path fill="#ffffcc" stroke="black" d="M121.96,-516.25C121.96,-516.25 80.29,-516.25 80.29,-516.25 77.21,-516.25 74.12,-513.17 74.12,-510.08 74.12,-510.08 74.12,-503.92 74.12,-503.92 74.12,-500.83 77.21,-497.75 80.29,-497.75 80.29,-497.75 121.96,-497.75 121.96,-497.75 125.04,-497.75 128.12,-500.83 128.12,-503.92 128.12,-503.92 128.12,-510.08 128.12,-510.08 128.12,-513.17 125.04,-516.25 121.96,-516.25"/>
<text text-anchor="start" x="85.38" y="-503.7" font-family="Helvetica,sans-Serif" font-size="9.00">index.js</text>
</a>
</g>
</g>
<!-- src/js/index.js&#45;&gt;src/js/application/Application.js -->
<g id="edge4" class="edge">
<title>src/js/index.js&#45;&gt;src/js/application/Application.js</title>
<path fill="none" stroke="#000000" stroke-width="2" stroke-opacity="0.200000" d="M128.34,-507C144.63,-507 165.99,-507 184.8,-507"/>
<polygon fill="#000000" fill-opacity="0.200000" stroke="#000000" stroke-width="2" stroke-opacity="0.200000" points="184.78,-509.1 190.78,-507 184.78,-504.9 184.78,-509.1"/>
</g>
<!-- src/js/view/camera/keyboard/CameraKeyboardController.js -->
<g id="node15" class="node">
<title>src/js/view/camera/keyboard/CameraKeyboardController.js</title>
<g id="a_node15"><a xlink:href="src/js/view/camera/keyboard/CameraKeyboardController.js" xlink:title="CameraKeyboardController.js">
<path fill="#ffffcc" stroke="black" d="M730.33,-284.25C730.33,-284.25 605.17,-284.25 605.17,-284.25 602.08,-284.25 599,-281.17 599,-278.08 599,-278.08 599,-271.92 599,-271.92 599,-268.83 602.08,-265.75 605.17,-265.75 605.17,-265.75 730.33,-265.75 730.33,-265.75 733.42,-265.75 736.5,-268.83 736.5,-271.92 736.5,-271.92 736.5,-278.08 736.5,-278.08 736.5,-281.17 733.42,-284.25 730.33,-284.25"/>
<text text-anchor="start" x="607" y="-271.7" font-family="Helvetica,sans-Serif" font-size="9.00">CameraKeyboardController.js</text>
</a>
</g>
</g>
<!-- src/js/view/camera/CameraController.js&#45;&gt;src/js/view/camera/keyboard/CameraKeyboardController.js -->
<g id="edge13" class="edge">
<title>src/js/view/camera/CameraController.js&#45;&gt;src/js/view/camera/keyboard/CameraKeyboardController.js</title>
<path fill="none" stroke="#000000" stroke-width="2" stroke-opacity="0.200000" d="M528.5,-388.39C539.55,-371.96 563.94,-338.09 591,-316 604.46,-305.01 621.31,-295.55 635.69,-288.5"/>
<polygon fill="#000000" fill-opacity="0.200000" stroke="#000000" stroke-width="2" stroke-opacity="0.200000" points="636.58,-290.4 641.1,-285.93 634.78,-286.61 636.58,-290.4"/>
</g>
<!-- src/js/view/camera/module/CameraModuleLookat.js -->
<g id="node16" class="node">
<title>src/js/view/camera/module/CameraModuleLookat.js</title>
<g id="a_node16"><a xlink:href="src/js/view/camera/module/CameraModuleLookat.js" xlink:title="CameraModuleLookat.js">
<path fill="#ffffcc" stroke="black" d="M719.83,-345.25C719.83,-345.25 615.67,-345.25 615.67,-345.25 612.58,-345.25 609.5,-342.17 609.5,-339.08 609.5,-339.08 609.5,-332.92 609.5,-332.92 609.5,-329.83 612.58,-326.75 615.67,-326.75 615.67,-326.75 719.83,-326.75 719.83,-326.75 722.92,-326.75 726,-329.83 726,-332.92 726,-332.92 726,-339.08 726,-339.08 726,-342.17 722.92,-345.25 719.83,-345.25"/>
<text text-anchor="start" x="617.5" y="-332.7" font-family="Helvetica,sans-Serif" font-size="9.00">CameraModuleLookat.js</text>
</a>
</g>
</g>
<!-- src/js/view/camera/CameraController.js&#45;&gt;src/js/view/camera/module/CameraModuleLookat.js -->
<g id="edge14" class="edge">
<title>src/js/view/camera/CameraController.js&#45;&gt;src/js/view/camera/module/CameraModuleLookat.js</title>
<path fill="none" stroke="#000000" stroke-width="2" stroke-opacity="0.200000" d="M533.62,-388.37C546.65,-377.85 569.03,-361.26 591,-352 594.18,-350.66 597.49,-349.42 600.87,-348.29"/>
<polygon fill="#000000" fill-opacity="0.200000" stroke="#000000" stroke-width="2" stroke-opacity="0.200000" points="601.35,-350.34 606.47,-346.56 600.12,-346.32 601.35,-350.34"/>
</g>
<!-- src/js/view/camera/module/CameraModuleOffset.js -->
<g id="node17" class="node">
<title>src/js/view/camera/module/CameraModuleOffset.js</title>
<g id="a_node17"><a xlink:href="src/js/view/camera/module/CameraModuleOffset.js" xlink:title="CameraModuleOffset.js">
<path fill="#ffffcc" stroke="black" d="M717.58,-376.25C717.58,-376.25 617.92,-376.25 617.92,-376.25 614.83,-376.25 611.75,-373.17 611.75,-370.08 611.75,-370.08 611.75,-363.92 611.75,-363.92 611.75,-360.83 614.83,-357.75 617.92,-357.75 617.92,-357.75 717.58,-357.75 717.58,-357.75 720.67,-357.75 723.75,-360.83 723.75,-363.92 723.75,-363.92 723.75,-370.08 723.75,-370.08 723.75,-373.17 720.67,-376.25 717.58,-376.25"/>
<text text-anchor="start" x="619.75" y="-363.7" font-family="Helvetica,sans-Serif" font-size="9.00">CameraModuleOffset.js</text>
</a>
</g>
</g>
<!-- src/js/view/camera/CameraController.js&#45;&gt;src/js/view/camera/module/CameraModuleOffset.js -->
<g id="edge15" class="edge">
<title>src/js/view/camera/CameraController.js&#45;&gt;src/js/view/camera/module/CameraModuleOffset.js</title>
<path fill="none" stroke="#000000" stroke-width="2" stroke-opacity="0.200000" d="M566.62,-388.27C574.73,-386.51 583.12,-384.69 591,-383 597.75,-381.55 604.83,-380.04 611.85,-378.55"/>
<polygon fill="#000000" fill-opacity="0.200000" stroke="#000000" stroke-width="2" stroke-opacity="0.200000" points="612.28,-380.61 617.71,-377.31 611.41,-376.5 612.28,-380.61"/>
</g>
<!-- src/js/view/camera/module/CameraModulePhi.js -->
<g id="node18" class="node">
<title>src/js/view/camera/module/CameraModulePhi.js</title>
<g id="a_node18"><a xlink:href="src/js/view/camera/module/CameraModulePhi.js" xlink:title="CameraModulePhi.js">
<path fill="#ffffcc" stroke="black" d="M712.71,-407.25C712.71,-407.25 622.79,-407.25 622.79,-407.25 619.71,-407.25 616.62,-404.17 616.62,-401.08 616.62,-401.08 616.62,-394.92 616.62,-394.92 616.62,-391.83 619.71,-388.75 622.79,-388.75 622.79,-388.75 712.71,-388.75 712.71,-388.75 715.79,-388.75 718.88,-391.83 718.88,-394.92 718.88,-394.92 718.88,-401.08 718.88,-401.08 718.88,-404.17 715.79,-407.25 712.71,-407.25"/>
<text text-anchor="start" x="624.62" y="-394.7" font-family="Helvetica,sans-Serif" font-size="9.00">CameraModulePhi.js</text>
</a>
</g>
</g>
<!-- src/js/view/camera/CameraController.js&#45;&gt;src/js/view/camera/module/CameraModulePhi.js -->
<g id="edge16" class="edge">
<title>src/js/view/camera/CameraController.js&#45;&gt;src/js/view/camera/module/CameraModulePhi.js</title>
<path fill="none" stroke="#000000" stroke-width="2" stroke-opacity="0.200000" d="M570.37,-398C582.26,-398 595.14,-398 607.49,-398"/>
<polygon fill="#000000" fill-opacity="0.200000" stroke="#000000" stroke-width="2" stroke-opacity="0.200000" points="607.34,-400.1 613.34,-398 607.34,-395.9 607.34,-400.1"/>
</g>
<!-- src/js/view/camera/module/CameraModuleRadius.js -->
<g id="node19" class="node">
<title>src/js/view/camera/module/CameraModuleRadius.js</title>
<g id="a_node19"><a xlink:href="src/js/view/camera/module/CameraModuleRadius.js" xlink:title="CameraModuleRadius.js">
<path fill="#ffffcc" stroke="black" d="M720.58,-438.25C720.58,-438.25 614.92,-438.25 614.92,-438.25 611.83,-438.25 608.75,-435.17 608.75,-432.08 608.75,-432.08 608.75,-425.92 608.75,-425.92 608.75,-422.83 611.83,-419.75 614.92,-419.75 614.92,-419.75 720.58,-419.75 720.58,-419.75 723.67,-419.75 726.75,-422.83 726.75,-425.92 726.75,-425.92 726.75,-432.08 726.75,-432.08 726.75,-435.17 723.67,-438.25 720.58,-438.25"/>
<text text-anchor="start" x="616.75" y="-425.7" font-family="Helvetica,sans-Serif" font-size="9.00">CameraModuleRadius.js</text>
</a>
</g>
</g>
<!-- src/js/view/camera/CameraController.js&#45;&gt;src/js/view/camera/module/CameraModuleRadius.js -->
<g id="edge17" class="edge">
<title>src/js/view/camera/CameraController.js&#45;&gt;src/js/view/camera/module/CameraModuleRadius.js</title>
<path fill="none" stroke="#000000" stroke-width="2" stroke-opacity="0.200000" d="M566.62,-407.73C574.73,-409.49 583.12,-411.31 591,-413 597.75,-414.45 604.83,-415.96 611.85,-417.45"/>
<polygon fill="#000000" fill-opacity="0.200000" stroke="#000000" stroke-width="2" stroke-opacity="0.200000" points="611.41,-419.5 617.71,-418.69 612.28,-415.39 611.41,-419.5"/>
</g>
<!-- src/js/view/camera/module/CameraModuleTheta.js -->
<g id="node20" class="node">
<title>src/js/view/camera/module/CameraModuleTheta.js</title>
<g id="a_node20"><a xlink:href="src/js/view/camera/module/CameraModuleTheta.js" xlink:title="CameraModuleTheta.js">
<path fill="#ffffcc" stroke="black" d="M717.58,-469.25C717.58,-469.25 617.92,-469.25 617.92,-469.25 614.83,-469.25 611.75,-466.17 611.75,-463.08 611.75,-463.08 611.75,-456.92 611.75,-456.92 611.75,-453.83 614.83,-450.75 617.92,-450.75 617.92,-450.75 717.58,-450.75 717.58,-450.75 720.67,-450.75 723.75,-453.83 723.75,-456.92 723.75,-456.92 723.75,-463.08 723.75,-463.08 723.75,-466.17 720.67,-469.25 717.58,-469.25"/>
<text text-anchor="start" x="619.75" y="-456.7" font-family="Helvetica,sans-Serif" font-size="9.00">CameraModuleTheta.js</text>
</a>
</g>
</g>
<!-- src/js/view/camera/CameraController.js&#45;&gt;src/js/view/camera/module/CameraModuleTheta.js -->
<g id="edge18" class="edge">
<title>src/js/view/camera/CameraController.js&#45;&gt;src/js/view/camera/module/CameraModuleTheta.js</title>
<path fill="none" stroke="#000000" stroke-width="2" stroke-opacity="0.200000" d="M533.62,-407.63C546.65,-418.15 569.03,-434.74 591,-444 594.82,-445.61 598.83,-447.07 602.91,-448.38"/>
<polygon fill="#000000" fill-opacity="0.200000" stroke="#000000" stroke-width="2" stroke-opacity="0.200000" points="602.12,-450.34 608.47,-450.03 603.31,-446.31 602.12,-450.34"/>
</g>
<!-- src/js/view/content/intersection/ContentIntersection.js -->
<g id="node21" class="node">
<title>src/js/view/content/intersection/ContentIntersection.js</title>
<g id="a_node21"><a xlink:href="src/js/view/content/intersection/ContentIntersection.js" xlink:title="ContentIntersection.js">
<path fill="#ffffcc" stroke="black" d="M713.83,-565.25C713.83,-565.25 621.67,-565.25 621.67,-565.25 618.58,-565.25 615.5,-562.17 615.5,-559.08 615.5,-559.08 615.5,-552.92 615.5,-552.92 615.5,-549.83 618.58,-546.75 621.67,-546.75 621.67,-546.75 713.83,-546.75 713.83,-546.75 716.92,-546.75 720,-549.83 720,-552.92 720,-552.92 720,-559.08 720,-559.08 720,-562.17 716.92,-565.25 713.83,-565.25"/>
<text text-anchor="start" x="623.5" y="-552.7" font-family="Helvetica,sans-Serif" font-size="9.00">ContentIntersection.js</text>
</a>
</g>
</g>
<!-- src/js/view/content/ContentController.js&#45;&gt;src/js/view/content/intersection/ContentIntersection.js -->
<g id="edge19" class="edge">
<title>src/js/view/content/ContentController.js&#45;&gt;src/js/view/content/intersection/ContentIntersection.js</title>
<path fill="none" stroke="#000000" stroke-width="2" stroke-opacity="0.200000" d="M534.87,-751.29C549.34,-739.34 572.43,-717.58 583,-693 591.46,-673.33 579.29,-614.92 591,-597 599.13,-584.56 612.36,-575.6 625.51,-569.29"/>
<polygon fill="#000000" fill-opacity="0.200000" stroke="#000000" stroke-width="2" stroke-opacity="0.200000" points="626.23,-571.27 630.87,-566.93 624.54,-567.43 626.23,-571.27"/>
</g>
<!-- src/js/view/content/map/ContentMap.js -->
<g id="node22" class="node">
<title>src/js/view/content/map/ContentMap.js</title>
<g id="a_node22"><a xlink:href="src/js/view/content/map/ContentMap.js" xlink:title="ContentMap.js">
<path fill="#ffffcc" stroke="black" d="M699.21,-626.25C699.21,-626.25 636.29,-626.25 636.29,-626.25 633.21,-626.25 630.12,-623.17 630.12,-620.08 630.12,-620.08 630.12,-613.92 630.12,-613.92 630.12,-610.83 633.21,-607.75 636.29,-607.75 636.29,-607.75 699.21,-607.75 699.21,-607.75 702.29,-607.75 705.38,-610.83 705.38,-613.92 705.38,-613.92 705.38,-620.08 705.38,-620.08 705.38,-623.17 702.29,-626.25 699.21,-626.25"/>
<text text-anchor="start" x="638.12" y="-613.7" font-family="Helvetica,sans-Serif" font-size="9.00">ContentMap.js</text>
</a>
</g>
</g>
<!-- src/js/view/content/ContentController.js&#45;&gt;src/js/view/content/map/ContentMap.js -->
<g id="edge20" class="edge">
<title>src/js/view/content/ContentController.js&#45;&gt;src/js/view/content/map/ContentMap.js</title>
<path fill="none" stroke="#000000" stroke-width="2" stroke-opacity="0.200000" d="M533.54,-751.65C547.37,-739.57 570.5,-717.19 583,-693 590.32,-678.82 581.35,-670.71 591,-658 600.38,-645.66 614.58,-636.59 628.16,-630.16"/>
<polygon fill="#000000" fill-opacity="0.200000" stroke="#000000" stroke-width="2" stroke-opacity="0.200000" points="628.64,-632.25 633.28,-627.91 626.94,-628.41 628.64,-632.25"/>
</g>
<!-- src/js/view/content/path/ContentPath.js -->
<g id="node23" class="node">
<title>src/js/view/content/path/ContentPath.js</title>
<g id="a_node23"><a xlink:href="src/js/view/content/path/ContentPath.js" xlink:title="ContentPath.js">
<path fill="#ffffcc" stroke="black" d="M699.58,-726.25C699.58,-726.25 635.92,-726.25 635.92,-726.25 632.83,-726.25 629.75,-723.17 629.75,-720.08 629.75,-720.08 629.75,-713.92 629.75,-713.92 629.75,-710.83 632.83,-707.75 635.92,-707.75 635.92,-707.75 699.58,-707.75 699.58,-707.75 702.67,-707.75 705.75,-710.83 705.75,-713.92 705.75,-713.92 705.75,-720.08 705.75,-720.08 705.75,-723.17 702.67,-726.25 699.58,-726.25"/>
<text text-anchor="start" x="637.75" y="-713.7" font-family="Helvetica,sans-Serif" font-size="9.00">ContentPath.js</text>
</a>
</g>
</g>
<!-- src/js/view/content/ContentController.js&#45;&gt;src/js/view/content/path/ContentPath.js -->
<g id="edge21" class="edge">
<title>src/js/view/content/ContentController.js&#45;&gt;src/js/view/content/path/ContentPath.js</title>
<path fill="none" stroke="#000000" stroke-width="2" stroke-opacity="0.200000" d="M553.96,-751.34C575.32,-744.84 603.68,-736.2 626.61,-729.22"/>
<polygon fill="#000000" fill-opacity="0.200000" stroke="#000000" stroke-width="2" stroke-opacity="0.200000" points="627.09,-731.27 632.22,-727.52 625.87,-727.25 627.09,-731.27"/>
</g>
<!-- src/js/view/content/roof/ContentRoof.js -->
<g id="node24" class="node">
<title>src/js/view/content/roof/ContentRoof.js</title>
<g id="a_node24"><a xlink:href="src/js/view/content/roof/ContentRoof.js" xlink:title="ContentRoof.js">
<path fill="#ffffcc" stroke="black" d="M699.96,-814.25C699.96,-814.25 635.54,-814.25 635.54,-814.25 632.46,-814.25 629.38,-811.17 629.38,-808.08 629.38,-808.08 629.38,-801.92 629.38,-801.92 629.38,-798.83 632.46,-795.75 635.54,-795.75 635.54,-795.75 699.96,-795.75 699.96,-795.75 703.04,-795.75 706.12,-798.83 706.12,-801.92 706.12,-801.92 706.12,-808.08 706.12,-808.08 706.12,-811.17 703.04,-814.25 699.96,-814.25"/>
<text text-anchor="start" x="637.38" y="-801.7" font-family="Helvetica,sans-Serif" font-size="9.00">ContentRoof.js</text>
</a>
</g>
</g>
<!-- src/js/view/content/ContentController.js&#45;&gt;src/js/view/content/roof/ContentRoof.js -->
<g id="edge22" class="edge">
<title>src/js/view/content/ContentController.js&#45;&gt;src/js/view/content/roof/ContentRoof.js</title>
<path fill="none" stroke="#000000" stroke-width="2" stroke-opacity="0.200000" d="M551.97,-770.71C564.06,-774.6 578.17,-779.09 591,-783 601.75,-786.28 613.39,-789.72 624.25,-792.88"/>
<polygon fill="#000000" fill-opacity="0.200000" stroke="#000000" stroke-width="2" stroke-opacity="0.200000" points="623.5,-794.84 629.85,-794.5 624.67,-790.81 623.5,-794.84"/>
</g>
<!-- src/js/view/content/wall/ContentWall.js -->
<g id="node25" class="node">
<title>src/js/view/content/wall/ContentWall.js</title>
<g id="a_node25"><a xlink:href="src/js/view/content/wall/ContentWall.js" xlink:title="ContentWall.js">
<path fill="#ffffcc" stroke="black" d="M699.21,-879.25C699.21,-879.25 636.29,-879.25 636.29,-879.25 633.21,-879.25 630.12,-876.17 630.12,-873.08 630.12,-873.08 630.12,-866.92 630.12,-866.92 630.12,-863.83 633.21,-860.75 636.29,-860.75 636.29,-860.75 699.21,-860.75 699.21,-860.75 702.29,-860.75 705.38,-863.83 705.38,-866.92 705.38,-866.92 705.38,-873.08 705.38,-873.08 705.38,-876.17 702.29,-879.25 699.21,-879.25"/>
<text text-anchor="start" x="638.12" y="-866.7" font-family="Helvetica,sans-Serif" font-size="9.00">ContentWall.js</text>
</a>
</g>
</g>
<!-- src/js/view/content/ContentController.js&#45;&gt;src/js/view/content/wall/ContentWall.js -->
<g id="edge23" class="edge">
<title>src/js/view/content/ContentController.js&#45;&gt;src/js/view/content/wall/ContentWall.js</title>
<path fill="none" stroke="#000000" stroke-width="2" stroke-opacity="0.200000" d="M527.77,-770.67C538.05,-787.86 561.76,-823.78 591,-844 600.12,-850.3 610.9,-855.2 621.42,-858.96"/>
<polygon fill="#000000" fill-opacity="0.200000" stroke="#000000" stroke-width="2" stroke-opacity="0.200000" points="620.54,-860.88 626.9,-860.78 621.87,-856.89 620.54,-860.88"/>
</g>
<!-- src/js/view/content/path/path/ContentPathLine.js -->
<g id="node27" class="node">
<title>src/js/view/content/path/path/ContentPathLine.js</title>
<g id="a_node27"><a xlink:href="src/js/view/content/path/path/ContentPathLine.js" xlink:title="ContentPathLine.js">
<path fill="#ffffcc" stroke="black" d="M862.71,-695.25C862.71,-695.25 781.04,-695.25 781.04,-695.25 777.96,-695.25 774.88,-692.17 774.88,-689.08 774.88,-689.08 774.88,-682.92 774.88,-682.92 774.88,-679.83 777.96,-676.75 781.04,-676.75 781.04,-676.75 862.71,-676.75 862.71,-676.75 865.79,-676.75 868.88,-679.83 868.88,-682.92 868.88,-682.92 868.88,-689.08 868.88,-689.08 868.88,-692.17 865.79,-695.25 862.71,-695.25"/>
<text text-anchor="start" x="782.88" y="-682.7" font-family="Helvetica,sans-Serif" font-size="9.00">ContentPathLine.js</text>
</a>
</g>
</g>
<!-- src/js/view/content/path/ContentPath.js&#45;&gt;src/js/view/content/path/path/ContentPathLine.js -->
<g id="edge24" class="edge">
<title>src/js/view/content/path/ContentPath.js&#45;&gt;src/js/view/content/path/path/ContentPathLine.js</title>
<path fill="none" stroke="#000000" stroke-width="2" stroke-opacity="0.200000" d="M705.96,-709.42C723.97,-705.75 745.95,-701.27 765.84,-697.21"/>
<polygon fill="#000000" fill-opacity="0.200000" stroke="#000000" stroke-width="2" stroke-opacity="0.200000" points="766.09,-699.31 771.55,-696.05 765.25,-695.19 766.09,-699.31"/>
</g>
<!-- src/js/view/content/path/path/ContentPathPoint.js -->
<g id="node28" class="node">
<title>src/js/view/content/path/path/ContentPathPoint.js</title>
<g id="a_node28"><a xlink:href="src/js/view/content/path/path/ContentPathPoint.js" xlink:title="ContentPathPoint.js">
<path fill="#ffffcc" stroke="black" d="M864.21,-726.25C864.21,-726.25 779.54,-726.25 779.54,-726.25 776.46,-726.25 773.38,-723.17 773.38,-720.08 773.38,-720.08 773.38,-713.92 773.38,-713.92 773.38,-710.83 776.46,-707.75 779.54,-707.75 779.54,-707.75 864.21,-707.75 864.21,-707.75 867.29,-707.75 870.38,-710.83 870.38,-713.92 870.38,-713.92 870.38,-720.08 870.38,-720.08 870.38,-723.17 867.29,-726.25 864.21,-726.25"/>
<text text-anchor="start" x="781.38" y="-713.7" font-family="Helvetica,sans-Serif" font-size="9.00">ContentPathPoint.js</text>
</a>
</g>
</g>
<!-- src/js/view/content/path/ContentPath.js&#45;&gt;src/js/view/content/path/path/ContentPathPoint.js -->
<g id="edge25" class="edge">
<title>src/js/view/content/path/ContentPath.js&#45;&gt;src/js/view/content/path/path/ContentPathPoint.js</title>
<path fill="none" stroke="#000000" stroke-width="2" stroke-opacity="0.200000" d="M705.96,-717C723.51,-717 744.82,-717 764.31,-717"/>
<polygon fill="#000000" fill-opacity="0.200000" stroke="#000000" stroke-width="2" stroke-opacity="0.200000" points="764.08,-719.1 770.08,-717 764.08,-714.9 764.08,-719.1"/>
</g>
<!-- src/js/view/content/wall/wall/ContentWallSurface.js -->
<g id="node29" class="node">
<title>src/js/view/content/wall/wall/ContentWallSurface.js</title>
<g id="a_node29"><a xlink:href="src/js/view/content/wall/wall/ContentWallSurface.js" xlink:title="ContentWallSurface.js">
<path fill="#ffffcc" stroke="black" d="M869.08,-883.25C869.08,-883.25 774.67,-883.25 774.67,-883.25 771.58,-883.25 768.5,-880.17 768.5,-877.08 768.5,-877.08 768.5,-870.92 768.5,-870.92 768.5,-867.83 771.58,-864.75 774.67,-864.75 774.67,-864.75 869.08,-864.75 869.08,-864.75 872.17,-864.75 875.25,-867.83 875.25,-870.92 875.25,-870.92 875.25,-877.08 875.25,-877.08 875.25,-880.17 872.17,-883.25 869.08,-883.25"/>
<text text-anchor="start" x="776.5" y="-870.7" font-family="Helvetica,sans-Serif" font-size="9.00">ContentWallSurface.js</text>
</a>
</g>
</g>
<!-- src/js/view/content/wall/ContentWall.js&#45;&gt;src/js/view/content/wall/wall/ContentWallSurface.js -->
<g id="edge26" class="edge">
<title>src/js/view/content/wall/ContentWall.js&#45;&gt;src/js/view/content/wall/wall/ContentWallSurface.js</title>
<path fill="none" stroke="#000000" stroke-width="2" stroke-opacity="0.200000" d="M705.58,-870.97C721.75,-871.39 741.18,-871.9 759.44,-872.38"/>
<polygon fill="#000000" fill-opacity="0.200000" stroke="#000000" stroke-width="2" stroke-opacity="0.200000" points="759.21,-874.48 765.26,-872.54 759.32,-870.28 759.21,-874.48"/>
</g>
<!-- src/js/view/content/cursor/ContentCursor.js -->
<g id="node26" class="node">
<title>src/js/view/content/cursor/ContentCursor.js</title>
<g id="a_node26"><a xlink:href="src/js/view/content/cursor/ContentCursor.js" xlink:title="ContentCursor.js">
<path fill="#ffffcc" stroke="black" d="M557.21,-663.25C557.21,-663.25 485.29,-663.25 485.29,-663.25 482.21,-663.25 479.12,-660.17 479.12,-657.08 479.12,-657.08 479.12,-650.92 479.12,-650.92 479.12,-647.83 482.21,-644.75 485.29,-644.75 485.29,-644.75 557.21,-644.75 557.21,-644.75 560.29,-644.75 563.38,-647.83 563.38,-650.92 563.38,-650.92 563.38,-657.08 563.38,-657.08 563.38,-660.17 560.29,-663.25 557.21,-663.25"/>
<text text-anchor="start" x="487.12" y="-650.7" font-family="Helvetica,sans-Serif" font-size="9.00">ContentCursor.js</text>
</a>
</g>
</g>
</g>
</svg>
