<?xml version="1.0" encoding="UTF-8" standalone="no"?>
<!DOCTYPE svg PUBLIC "-//W3C//DTD SVG 1.1//EN"
 "http://www.w3.org/Graphics/SVG/1.1/DTD/svg11.dtd">
<!-- Generated by graphviz version 12.2.1 (20241206.2353)
 -->
<!-- Title: dependency&#45;cruiser output Pages: 1 -->
<svg width="361pt" height="178pt"
 viewBox="0.00 0.00 361.00 178.00" xmlns="http://www.w3.org/2000/svg" xmlns:xlink="http://www.w3.org/1999/xlink">
<g id="graph0" class="graph" transform="scale(1 1) rotate(0) translate(4 174)">
<title>dependency&#45;cruiser output</title>
<polygon fill="white" stroke="none" points="-4,4 -4,-174 357,-174 357,4 -4,4"/>
<g id="clust1" class="cluster">
<title>cluster_src</title>
<path fill="#ffffff" stroke="black" stroke-width="2" d="M20,-8C20,-8 333,-8 333,-8 339,-8 345,-14 345,-20 345,-20 345,-150 345,-150 345,-156 339,-162 333,-162 333,-162 20,-162 20,-162 14,-162 8,-156 8,-150 8,-150 8,-20 8,-20 8,-14 14,-8 20,-8"/>
<text text-anchor="middle" x="176.5" y="-149.45" font-family="Helvetica,sans-Serif" font-weight="bold" font-size="9.00">src</text>
</g>
<g id="clust2" class="cluster">
<title>cluster_src/js</title>
<path fill="#ffffff" stroke="black" stroke-width="2" d="M28,-16C28,-16 325,-16 325,-16 331,-16 337,-22 337,-28 337,-28 337,-123 337,-123 337,-129 331,-135 325,-135 325,-135 28,-135 28,-135 22,-135 16,-129 16,-123 16,-123 16,-28 16,-28 16,-22 22,-16 28,-16"/>
<text text-anchor="middle" x="176.5" y="-122.45" font-family="Helvetica,sans-Serif" font-weight="bold" font-size="9.00">js</text>
</g>
<g id="clust3" class="cluster">
<title>cluster_src/js/application</title>
<path fill="#ffffff" stroke="black" stroke-width="2" d="M98,-24C98,-24 228.25,-24 228.25,-24 234.25,-24 240.25,-30 240.25,-36 240.25,-36 240.25,-96 240.25,-96 240.25,-102 234.25,-108 228.25,-108 228.25,-108 98,-108 98,-108 92,-108 86,-102 86,-96 86,-96 86,-36 86,-36 86,-30 92,-24 98,-24"/>
<text text-anchor="middle" x="163.12" y="-95.45" font-family="Helvetica,sans-Serif" font-weight="bold" font-size="9.00">application</text>
</g>
<g id="clust4" class="cluster">
<title>cluster_src/js/controller</title>
<path fill="#ffffff" stroke="black" stroke-width="2" d="M260.25,-24C260.25,-24 317,-24 317,-24 323,-24 329,-30 329,-36 329,-36 329,-65 329,-65 329,-71 323,-77 317,-77 317,-77 260.25,-77 260.25,-77 254.25,-77 248.25,-71 248.25,-65 248.25,-65 248.25,-36 248.25,-36 248.25,-30 254.25,-24 260.25,-24"/>
<text text-anchor="middle" x="288.62" y="-64.45" font-family="Helvetica,sans-Serif" font-weight="bold" font-size="9.00">controller</text>
</g>
<!-- src/js/application/Application.js -->
<g id="node1" class="node">
<title>src/js/application/Application.js</title>
<g id="a_node1"><a xlink:href="src/js/application/Application.js" xlink:title="Application.js">
<path fill="#ffffcc" stroke="black" d="M192.33,-50.25C192.33,-50.25 133.92,-50.25 133.92,-50.25 130.83,-50.25 127.75,-47.17 127.75,-44.08 127.75,-44.08 127.75,-37.92 127.75,-37.92 127.75,-34.83 130.83,-31.75 133.92,-31.75 133.92,-31.75 192.33,-31.75 192.33,-31.75 195.42,-31.75 198.5,-34.83 198.5,-37.92 198.5,-37.92 198.5,-44.08 198.5,-44.08 198.5,-47.17 195.42,-50.25 192.33,-50.25"/>
<text text-anchor="start" x="135.75" y="-37.7" font-family="Helvetica,sans-Serif" font-size="9.00">Application.js</text>
</a>
</g>
</g>
<!-- src/js/controller/Controller.js -->
<g id="node2" class="node">
<title>src/js/controller/Controller.js</title>
<g id="a_node2"><a xlink:href="src/js/controller/Controller.js" xlink:title="Controller.js">
<path fill="#ffffcc" stroke="black" d="M314.83,-50.25C314.83,-50.25 262.42,-50.25 262.42,-50.25 259.33,-50.25 256.25,-47.17 256.25,-44.08 256.25,-44.08 256.25,-37.92 256.25,-37.92 256.25,-34.83 259.33,-31.75 262.42,-31.75 262.42,-31.75 314.83,-31.75 314.83,-31.75 317.92,-31.75 321,-34.83 321,-37.92 321,-37.92 321,-44.08 321,-44.08 321,-47.17 317.92,-50.25 314.83,-50.25"/>
<text text-anchor="start" x="264.25" y="-37.7" font-family="Helvetica,sans-Serif" font-size="9.00">Controller.js</text>
</a>
</g>
</g>
<!-- src/js/application/Application.js&#45;&gt;src/js/controller/Controller.js -->
<g id="edge1" class="edge">
<title>src/js/application/Application.js&#45;&gt;src/js/controller/Controller.js</title>
<path fill="none" stroke="#000000" stroke-width="2" stroke-opacity="0.200000" d="M198.86,-41C213.88,-41 231.57,-41 247.19,-41"/>
<polygon fill="#000000" fill-opacity="0.200000" stroke="#000000" stroke-width="2" stroke-opacity="0.200000" points="247.08,-43.1 253.08,-41 247.08,-38.9 247.08,-43.1"/>
</g>
<!-- src/js/application/ApplicationDispatcherEvent.js -->
<g id="node3" class="node">
<title>src/js/application/ApplicationDispatcherEvent.js</title>
<g id="a_node3"><a xlink:href="src/js/application/ApplicationDispatcherEvent.js" xlink:title="ApplicationDispatcherEvent.js">
<path fill="#ffffcc" stroke="black" d="M226.08,-81.25C226.08,-81.25 100.17,-81.25 100.17,-81.25 97.08,-81.25 94,-78.17 94,-75.08 94,-75.08 94,-68.92 94,-68.92 94,-65.83 97.08,-62.75 100.17,-62.75 100.17,-62.75 226.08,-62.75 226.08,-62.75 229.17,-62.75 232.25,-65.83 232.25,-68.92 232.25,-68.92 232.25,-75.08 232.25,-75.08 232.25,-78.17 229.17,-81.25 226.08,-81.25"/>
<text text-anchor="start" x="102" y="-68.7" font-family="Helvetica,sans-Serif" font-size="9.00">ApplicationDispatcherEvent.js</text>
</a>
</g>
</g>
<!-- src/js/index.js -->
<g id="node4" class="node">
<title>src/js/index.js</title>
<g id="a_node4"><a xlink:href="src/js/index.js" xlink:title="index.js">
<path fill="#ffffcc" stroke="black" d="M71.83,-50.25C71.83,-50.25 30.17,-50.25 30.17,-50.25 27.08,-50.25 24,-47.17 24,-44.08 24,-44.08 24,-37.92 24,-37.92 24,-34.83 27.08,-31.75 30.17,-31.75 30.17,-31.75 71.83,-31.75 71.83,-31.75 74.92,-31.75 78,-34.83 78,-37.92 78,-37.92 78,-44.08 78,-44.08 78,-47.17 74.92,-50.25 71.83,-50.25"/>
<text text-anchor="start" x="35.25" y="-37.7" font-family="Helvetica,sans-Serif" font-size="9.00">index.js</text>
</a>
</g>
</g>
<!-- src/js/index.js&#45;&gt;src/js/application/Application.js -->
<g id="edge2" class="edge">
<title>src/js/index.js&#45;&gt;src/js/application/Application.js</title>
<path fill="none" stroke="#000000" stroke-width="2" stroke-opacity="0.200000" d="M78.38,-41C90.49,-41 105.17,-41 118.83,-41"/>
<polygon fill="#000000" fill-opacity="0.200000" stroke="#000000" stroke-width="2" stroke-opacity="0.200000" points="118.6,-43.1 124.6,-41 118.6,-38.9 118.6,-43.1"/>
</g>
</g>
</svg>
