<?xml version="1.0" encoding="UTF-8" standalone="no"?>
<!DOCTYPE svg PUBLIC "-//W3C//DTD SVG 1.1//EN"
 "http://www.w3.org/Graphics/SVG/1.1/DTD/svg11.dtd">
<!-- Generated by graphviz version 12.2.1 (20241206.2353)
 -->
<!-- Title: dependency&#45;cruiser output Pages: 1 -->
<svg width="839pt" height="1244pt"
 viewBox="0.00 0.00 839.00 1244.00" xmlns="http://www.w3.org/2000/svg" xmlns:xlink="http://www.w3.org/1999/xlink">
<g id="graph0" class="graph" transform="scale(1 1) rotate(0) translate(4 1240)">
<title>dependency&#45;cruiser output</title>
<polygon fill="white" stroke="none" points="-4,4 -4,-1240 835,-1240 835,4 -4,4"/>
<g id="clust1" class="cluster">
<title>cluster_src</title>
<path fill="#ffffff" stroke="black" stroke-width="2" d="M20,-8C20,-8 811,-8 811,-8 817,-8 823,-14 823,-20 823,-20 823,-1216 823,-1216 823,-1222 817,-1228 811,-1228 811,-1228 20,-1228 20,-1228 14,-1228 8,-1222 8,-1216 8,-1216 8,-20 8,-20 8,-14 14,-8 20,-8"/>
<text text-anchor="middle" x="415.5" y="-1215.45" font-family="Helvetica,sans-Serif" font-weight="bold" font-size="9.00">src</text>
</g>
<g id="clust2" class="cluster">
<title>cluster_src/js</title>
<path fill="#ffffff" stroke="black" stroke-width="2" d="M28,-16C28,-16 803,-16 803,-16 809,-16 815,-22 815,-28 815,-28 815,-1189 815,-1189 815,-1195 809,-1201 803,-1201 803,-1201 28,-1201 28,-1201 22,-1201 16,-1195 16,-1189 16,-1189 16,-28 16,-28 16,-22 22,-16 28,-16"/>
<text text-anchor="middle" x="415.5" y="-1188.45" font-family="Helvetica,sans-Serif" font-weight="bold" font-size="9.00">js</text>
</g>
<g id="clust3" class="cluster">
<title>cluster_src/js/application</title>
<path fill="#ffffff" stroke="black" stroke-width="2" d="M98,-490C98,-490 160.75,-490 160.75,-490 166.75,-490 172.75,-496 172.75,-502 172.75,-502 172.75,-531 172.75,-531 172.75,-537 166.75,-543 160.75,-543 160.75,-543 98,-543 98,-543 92,-543 86,-537 86,-531 86,-531 86,-502 86,-502 86,-496 92,-490 98,-490"/>
<text text-anchor="middle" x="129.38" y="-530.45" font-family="Helvetica,sans-Serif" font-weight="bold" font-size="9.00">application</text>
</g>
<g id="clust4" class="cluster">
<title>cluster_src/js/controller</title>
<path fill="#ffffff" stroke="black" stroke-width="2" d="M192.75,-490C192.75,-490 249.5,-490 249.5,-490 255.5,-490 261.5,-496 261.5,-502 261.5,-502 261.5,-531 261.5,-531 261.5,-537 255.5,-543 249.5,-543 249.5,-543 192.75,-543 192.75,-543 186.75,-543 180.75,-537 180.75,-531 180.75,-531 180.75,-502 180.75,-502 180.75,-496 186.75,-490 192.75,-490"/>
<text text-anchor="middle" x="221.12" y="-530.45" font-family="Helvetica,sans-Serif" font-weight="bold" font-size="9.00">controller</text>
</g>
<g id="clust5" class="cluster">
<title>cluster_src/js/ui</title>
<path fill="#ffffff" stroke="black" stroke-width="2" d="M281.5,-24C281.5,-24 463,-24 463,-24 469,-24 475,-30 475,-36 475,-36 475,-222 475,-222 475,-228 469,-234 463,-234 463,-234 281.5,-234 281.5,-234 275.5,-234 269.5,-228 269.5,-222 269.5,-222 269.5,-36 269.5,-36 269.5,-30 275.5,-24 281.5,-24"/>
<text text-anchor="middle" x="372.25" y="-221.45" font-family="Helvetica,sans-Serif" font-weight="bold" font-size="9.00">ui</text>
</g>
<g id="clust6" class="cluster">
<title>cluster_src/js/ui/map</title>
<path fill="#ffffff" stroke="black" stroke-width="2" d="M387.38,-32C387.38,-32 454.62,-32 454.62,-32 460.62,-32 466.62,-38 466.62,-44 466.62,-44 466.62,-73 466.62,-73 466.62,-79 460.62,-85 454.62,-85 454.62,-85 387.38,-85 387.38,-85 381.38,-85 375.38,-79 375.38,-73 375.38,-73 375.38,-44 375.38,-44 375.38,-38 381.38,-32 387.38,-32"/>
<text text-anchor="middle" x="421" y="-72.45" font-family="Helvetica,sans-Serif" font-weight="bold" font-size="9.00">map</text>
</g>
<g id="clust7" class="cluster">
<title>cluster_src/js/ui/path</title>
<path fill="#ffffff" stroke="black" stroke-width="2" d="M387,-93C387,-93 455,-93 455,-93 461,-93 467,-99 467,-105 467,-105 467,-134 467,-134 467,-140 461,-146 455,-146 455,-146 387,-146 387,-146 381,-146 375,-140 375,-134 375,-134 375,-105 375,-105 375,-99 381,-93 387,-93"/>
<text text-anchor="middle" x="421" y="-133.45" font-family="Helvetica,sans-Serif" font-weight="bold" font-size="9.00">path</text>
</g>
<g id="clust8" class="cluster">
<title>cluster_src/js/ui/wall</title>
<path fill="#ffffff" stroke="black" stroke-width="2" d="M387.38,-154C387.38,-154 454.62,-154 454.62,-154 460.62,-154 466.62,-160 466.62,-166 466.62,-166 466.62,-195 466.62,-195 466.62,-201 460.62,-207 454.62,-207 454.62,-207 387.38,-207 387.38,-207 381.38,-207 375.38,-201 375.38,-195 375.38,-195 375.38,-166 375.38,-166 375.38,-160 381.38,-154 387.38,-154"/>
<text text-anchor="middle" x="421" y="-194.45" font-family="Helvetica,sans-Serif" font-weight="bold" font-size="9.00">wall</text>
</g>
<g id="clust9" class="cluster">
<title>cluster_src/js/view</title>
<path fill="#ffffff" stroke="black" stroke-width="2" d="M291.38,-242C291.38,-242 795,-242 795,-242 801,-242 807,-248 807,-254 807,-254 807,-1162 807,-1162 807,-1168 801,-1174 795,-1174 795,-1174 291.38,-1174 291.38,-1174 285.38,-1174 279.38,-1168 279.38,-1162 279.38,-1162 279.38,-254 279.38,-254 279.38,-248 285.38,-242 291.38,-242"/>
<text text-anchor="middle" x="543.19" y="-1161.45" font-family="Helvetica,sans-Serif" font-weight="bold" font-size="9.00">view</text>
</g>
<g id="clust10" class="cluster">
<title>cluster_src/js/view/camera</title>
<path fill="#ffffff" stroke="black" stroke-width="2" d="M376.12,-250C376.12,-250 640.25,-250 640.25,-250 646.25,-250 652.25,-256 652.25,-262 652.25,-262 652.25,-511 652.25,-511 652.25,-517 646.25,-523 640.25,-523 640.25,-523 376.12,-523 376.12,-523 370.12,-523 364.12,-517 364.12,-511 364.12,-511 364.12,-262 364.12,-262 364.12,-256 370.12,-250 376.12,-250"/>
<text text-anchor="middle" x="508.19" y="-510.45" font-family="Helvetica,sans-Serif" font-weight="bold" font-size="9.00">camera</text>
</g>
<g id="clust11" class="cluster">
<title>cluster_src/js/view/camera/keyboard</title>
<path fill="#ffffff" stroke="black" stroke-width="2" d="M502.75,-258C502.75,-258 632.25,-258 632.25,-258 638.25,-258 644.25,-264 644.25,-270 644.25,-270 644.25,-299 644.25,-299 644.25,-305 638.25,-311 632.25,-311 632.25,-311 502.75,-311 502.75,-311 496.75,-311 490.75,-305 490.75,-299 490.75,-299 490.75,-270 490.75,-270 490.75,-264 496.75,-258 502.75,-258"/>
<text text-anchor="middle" x="567.5" y="-298.45" font-family="Helvetica,sans-Serif" font-weight="bold" font-size="9.00">keyboard</text>
</g>
<g id="clust12" class="cluster">
<title>cluster_src/js/view/camera/module</title>
<path fill="#ffffff" stroke="black" stroke-width="2" d="M512.5,-319C512.5,-319 622.5,-319 622.5,-319 628.5,-319 634.5,-325 634.5,-331 634.5,-331 634.5,-484 634.5,-484 634.5,-490 628.5,-496 622.5,-496 622.5,-496 512.5,-496 512.5,-496 506.5,-496 500.5,-490 500.5,-484 500.5,-484 500.5,-331 500.5,-331 500.5,-325 506.5,-319 512.5,-319"/>
<text text-anchor="middle" x="567.5" y="-483.45" font-family="Helvetica,sans-Serif" font-weight="bold" font-size="9.00">module</text>
</g>
<g id="clust13" class="cluster">
<title>cluster_src/js/view/content</title>
<path fill="#ffffff" stroke="black" stroke-width="2" d="M374.88,-531C374.88,-531 787,-531 787,-531 793,-531 799,-537 799,-543 799,-543 799,-952 799,-952 799,-958 793,-964 787,-964 787,-964 374.88,-964 374.88,-964 368.88,-964 362.88,-958 362.88,-952 362.88,-952 362.88,-543 362.88,-543 362.88,-537 368.88,-531 374.88,-531"/>
<text text-anchor="middle" x="580.94" y="-951.45" font-family="Helvetica,sans-Serif" font-weight="bold" font-size="9.00">content</text>
</g>
<g id="clust14" class="cluster">
<title>cluster_src/js/view/content/cursor</title>
<path fill="#ffffff" stroke="black" stroke-width="2" d="M382.88,-637C382.88,-637 459.12,-637 459.12,-637 465.12,-637 471.12,-643 471.12,-649 471.12,-649 471.12,-678 471.12,-678 471.12,-684 465.12,-690 459.12,-690 459.12,-690 382.88,-690 382.88,-690 376.88,-690 370.88,-684 370.88,-678 370.88,-678 370.88,-649 370.88,-649 370.88,-643 376.88,-637 382.88,-637"/>
<text text-anchor="middle" x="421" y="-677.45" font-family="Helvetica,sans-Serif" font-weight="bold" font-size="9.00">cursor</text>
</g>
<g id="clust15" class="cluster">
<title>cluster_src/js/view/content/intersection</title>
<path fill="#ffffff" stroke="black" stroke-width="2" d="M519.25,-539C519.25,-539 615.75,-539 615.75,-539 621.75,-539 627.75,-545 627.75,-551 627.75,-551 627.75,-580 627.75,-580 627.75,-586 621.75,-592 615.75,-592 615.75,-592 519.25,-592 519.25,-592 513.25,-592 507.25,-586 507.25,-580 507.25,-580 507.25,-551 507.25,-551 507.25,-545 513.25,-539 519.25,-539"/>
<text text-anchor="middle" x="567.5" y="-579.45" font-family="Helvetica,sans-Serif" font-weight="bold" font-size="9.00">intersection</text>
</g>
<g id="clust16" class="cluster">
<title>cluster_src/js/view/content/map</title>
<path fill="#ffffff" stroke="black" stroke-width="2" d="M533.88,-600C533.88,-600 601.12,-600 601.12,-600 607.12,-600 613.12,-606 613.12,-612 613.12,-612 613.12,-641 613.12,-641 613.12,-647 607.12,-653 601.12,-653 601.12,-653 533.88,-653 533.88,-653 527.88,-653 521.88,-647 521.88,-641 521.88,-641 521.88,-612 521.88,-612 521.88,-606 527.88,-600 533.88,-600"/>
<text text-anchor="middle" x="567.5" y="-640.45" font-family="Helvetica,sans-Serif" font-weight="bold" font-size="9.00">map</text>
</g>
<g id="clust17" class="cluster">
<title>cluster_src/js/view/content/path</title>
<path fill="#ffffff" stroke="black" stroke-width="2" d="M533.5,-661C533.5,-661 774.12,-661 774.12,-661 780.12,-661 786.12,-667 786.12,-673 786.12,-673 786.12,-768 786.12,-768 786.12,-774 780.12,-780 774.12,-780 774.12,-780 533.5,-780 533.5,-780 527.5,-780 521.5,-774 521.5,-768 521.5,-768 521.5,-673 521.5,-673 521.5,-667 527.5,-661 533.5,-661"/>
<text text-anchor="middle" x="653.81" y="-767.45" font-family="Helvetica,sans-Serif" font-weight="bold" font-size="9.00">path</text>
</g>
<g id="clust18" class="cluster">
<title>cluster_src/js/view/content/path/path</title>
<path fill="#ffffff" stroke="black" stroke-width="2" d="M677.12,-669C677.12,-669 766.12,-669 766.12,-669 772.12,-669 778.12,-675 778.12,-681 778.12,-681 778.12,-741 778.12,-741 778.12,-747 772.12,-753 766.12,-753 766.12,-753 677.12,-753 677.12,-753 671.12,-753 665.12,-747 665.12,-741 665.12,-741 665.12,-681 665.12,-681 665.12,-675 671.12,-669 677.12,-669"/>
<text text-anchor="middle" x="721.62" y="-740.45" font-family="Helvetica,sans-Serif" font-weight="bold" font-size="9.00">path</text>
</g>
<g id="clust19" class="cluster">
<title>cluster_src/js/view/content/roof</title>
<path fill="#ffffff" stroke="black" stroke-width="2" d="M533.12,-788C533.12,-788 601.88,-788 601.88,-788 607.88,-788 613.88,-794 613.88,-800 613.88,-800 613.88,-829 613.88,-829 613.88,-835 607.88,-841 601.88,-841 601.88,-841 533.12,-841 533.12,-841 527.12,-841 521.12,-835 521.12,-829 521.12,-829 521.12,-800 521.12,-800 521.12,-794 527.12,-788 533.12,-788"/>
<text text-anchor="middle" x="567.5" y="-828.45" font-family="Helvetica,sans-Serif" font-weight="bold" font-size="9.00">roof</text>
</g>
<g id="clust20" class="cluster">
<title>cluster_src/js/view/content/wall</title>
<path fill="#ffffff" stroke="black" stroke-width="2" d="M533.88,-849C533.88,-849 779,-849 779,-849 785,-849 791,-855 791,-861 791,-861 791,-925 791,-925 791,-931 785,-937 779,-937 779,-937 533.88,-937 533.88,-937 527.88,-937 521.88,-931 521.88,-925 521.88,-925 521.88,-861 521.88,-861 521.88,-855 527.88,-849 533.88,-849"/>
<text text-anchor="middle" x="656.44" y="-924.45" font-family="Helvetica,sans-Serif" font-weight="bold" font-size="9.00">wall</text>
</g>
<g id="clust21" class="cluster">
<title>cluster_src/js/view/content/wall/wall</title>
<path fill="#ffffff" stroke="black" stroke-width="2" d="M672.25,-857C672.25,-857 771,-857 771,-857 777,-857 783,-863 783,-869 783,-869 783,-898 783,-898 783,-904 777,-910 771,-910 771,-910 672.25,-910 672.25,-910 666.25,-910 660.25,-904 660.25,-898 660.25,-898 660.25,-869 660.25,-869 660.25,-863 666.25,-857 672.25,-857"/>
<text text-anchor="middle" x="721.62" y="-897.45" font-family="Helvetica,sans-Serif" font-weight="bold" font-size="9.00">wall</text>
</g>
<g id="clust22" class="cluster">
<title>cluster_src/js/view/interaction</title>
<path fill="#ffffff" stroke="black" stroke-width="2" d="M371.25,-972C371.25,-972 470.75,-972 470.75,-972 476.75,-972 482.75,-978 482.75,-984 482.75,-984 482.75,-1013 482.75,-1013 482.75,-1019 476.75,-1025 470.75,-1025 470.75,-1025 371.25,-1025 371.25,-1025 365.25,-1025 359.25,-1019 359.25,-1013 359.25,-1013 359.25,-984 359.25,-984 359.25,-978 365.25,-972 371.25,-972"/>
<text text-anchor="middle" x="421" y="-1012.45" font-family="Helvetica,sans-Serif" font-weight="bold" font-size="9.00">interaction</text>
</g>
<g id="clust23" class="cluster">
<title>cluster_src/js/view/light</title>
<path fill="#ffffff" stroke="black" stroke-width="2" d="M382.5,-1033C382.5,-1033 459.5,-1033 459.5,-1033 465.5,-1033 471.5,-1039 471.5,-1045 471.5,-1045 471.5,-1074 471.5,-1074 471.5,-1080 465.5,-1086 459.5,-1086 459.5,-1086 382.5,-1086 382.5,-1086 376.5,-1086 370.5,-1080 370.5,-1074 370.5,-1074 370.5,-1045 370.5,-1045 370.5,-1039 376.5,-1033 382.5,-1033"/>
<text text-anchor="middle" x="421" y="-1073.45" font-family="Helvetica,sans-Serif" font-weight="bold" font-size="9.00">light</text>
</g>
<g id="clust24" class="cluster">
<title>cluster_src/js/view/render</title>
<path fill="#ffffff" stroke="black" stroke-width="2" d="M377.25,-1094C377.25,-1094 464.75,-1094 464.75,-1094 470.75,-1094 476.75,-1100 476.75,-1106 476.75,-1106 476.75,-1135 476.75,-1135 476.75,-1141 470.75,-1147 464.75,-1147 464.75,-1147 377.25,-1147 377.25,-1147 371.25,-1147 365.25,-1141 365.25,-1135 365.25,-1135 365.25,-1106 365.25,-1106 365.25,-1100 371.25,-1094 377.25,-1094"/>
<text text-anchor="middle" x="421" y="-1134.45" font-family="Helvetica,sans-Serif" font-weight="bold" font-size="9.00">render</text>
</g>
<!-- src/js/application/Application.js -->
<g id="node1" class="node">
<title>src/js/application/Application.js</title>
<g id="a_node1"><a xlink:href="src/js/application/Application.js" xlink:title="Application.js">
<path fill="#ffffcc" stroke="black" d="M158.58,-516.25C158.58,-516.25 100.17,-516.25 100.17,-516.25 97.08,-516.25 94,-513.17 94,-510.08 94,-510.08 94,-503.92 94,-503.92 94,-500.83 97.08,-497.75 100.17,-497.75 100.17,-497.75 158.58,-497.75 158.58,-497.75 161.67,-497.75 164.75,-500.83 164.75,-503.92 164.75,-503.92 164.75,-510.08 164.75,-510.08 164.75,-513.17 161.67,-516.25 158.58,-516.25"/>
<text text-anchor="start" x="102" y="-503.7" font-family="Helvetica,sans-Serif" font-size="9.00">Application.js</text>
</a>
</g>
</g>
<!-- src/js/controller/Controller.js -->
<g id="node2" class="node">
<title>src/js/controller/Controller.js</title>
<g id="a_node2"><a xlink:href="src/js/controller/Controller.js" xlink:title="Controller.js">
<path fill="#ffffcc" stroke="black" d="M247.33,-516.25C247.33,-516.25 194.92,-516.25 194.92,-516.25 191.83,-516.25 188.75,-513.17 188.75,-510.08 188.75,-510.08 188.75,-503.92 188.75,-503.92 188.75,-500.83 191.83,-497.75 194.92,-497.75 194.92,-497.75 247.33,-497.75 247.33,-497.75 250.42,-497.75 253.5,-500.83 253.5,-503.92 253.5,-503.92 253.5,-510.08 253.5,-510.08 253.5,-513.17 250.42,-516.25 247.33,-516.25"/>
<text text-anchor="start" x="196.75" y="-503.7" font-family="Helvetica,sans-Serif" font-size="9.00">Controller.js</text>
</a>
</g>
</g>
<!-- src/js/application/Application.js&#45;&gt;src/js/controller/Controller.js -->
<g id="edge1" class="edge">
<title>src/js/application/Application.js&#45;&gt;src/js/controller/Controller.js</title>
<path fill="none" stroke="#000000" stroke-width="2" stroke-opacity="0.200000" d="M165.07,-507C169.88,-507 174.86,-507 179.76,-507"/>
<polygon fill="#000000" fill-opacity="0.200000" stroke="#000000" stroke-width="2" stroke-opacity="0.200000" points="179.43,-509.1 185.43,-507 179.43,-504.9 179.43,-509.1"/>
</g>
<!-- src/js/ui/UIController.js -->
<g id="node3" class="node">
<title>src/js/ui/UIController.js</title>
<g id="a_node3"><a xlink:href="src/js/ui/UIController.js" xlink:title="UIController.js">
<path fill="#ffffcc" stroke="black" d="M345.08,-149.25C345.08,-149.25 283.67,-149.25 283.67,-149.25 280.58,-149.25 277.5,-146.17 277.5,-143.08 277.5,-143.08 277.5,-136.92 277.5,-136.92 277.5,-133.83 280.58,-130.75 283.67,-130.75 283.67,-130.75 345.08,-130.75 345.08,-130.75 348.17,-130.75 351.25,-133.83 351.25,-136.92 351.25,-136.92 351.25,-143.08 351.25,-143.08 351.25,-146.17 348.17,-149.25 345.08,-149.25"/>
<text text-anchor="start" x="285.5" y="-136.7" font-family="Helvetica,sans-Serif" font-size="9.00">UIController.js</text>
</a>
</g>
</g>
<!-- src/js/controller/Controller.js&#45;&gt;src/js/ui/UIController.js -->
<g id="edge2" class="edge">
<title>src/js/controller/Controller.js&#45;&gt;src/js/ui/UIController.js</title>
<path fill="none" stroke="#000000" stroke-width="2" stroke-opacity="0.200000" d="M222.96,-497.55C226.22,-462.59 239.45,-337.52 269.5,-239 278.54,-209.37 294.12,-176.87 304.07,-157.47"/>
<polygon fill="#000000" fill-opacity="0.200000" stroke="#000000" stroke-width="2" stroke-opacity="0.200000" points="305.9,-158.51 306.81,-152.22 302.17,-156.57 305.9,-158.51"/>
</g>
<!-- src/js/view/View.js -->
<g id="node4" class="node">
<title>src/js/view/View.js</title>
<g id="a_node4"><a xlink:href="src/js/view/View.js" xlink:title="View.js">
<path fill="#ffffcc" stroke="black" d="M335.21,-884.25C335.21,-884.25 293.54,-884.25 293.54,-884.25 290.46,-884.25 287.38,-881.17 287.38,-878.08 287.38,-878.08 287.38,-871.92 287.38,-871.92 287.38,-868.83 290.46,-865.75 293.54,-865.75 293.54,-865.75 335.21,-865.75 335.21,-865.75 338.29,-865.75 341.38,-868.83 341.38,-871.92 341.38,-871.92 341.38,-878.08 341.38,-878.08 341.38,-881.17 338.29,-884.25 335.21,-884.25"/>
<text text-anchor="start" x="300.12" y="-871.7" font-family="Helvetica,sans-Serif" font-size="9.00">View.js</text>
</a>
</g>
</g>
<!-- src/js/controller/Controller.js&#45;&gt;src/js/view/View.js -->
<g id="edge3" class="edge">
<title>src/js/controller/Controller.js&#45;&gt;src/js/view/View.js</title>
<path fill="none" stroke="#000000" stroke-width="2" stroke-opacity="0.200000" d="M224.47,-516.47C236.62,-565.47 292.44,-790.59 308.84,-856.7"/>
<polygon fill="#000000" fill-opacity="0.200000" stroke="#000000" stroke-width="2" stroke-opacity="0.200000" points="306.75,-857 310.23,-862.32 310.82,-855.99 306.75,-857"/>
</g>
<!-- src/js/ui/map/UIMenuMap.js -->
<g id="node6" class="node">
<title>src/js/ui/map/UIMenuMap.js</title>
<g id="a_node6"><a xlink:href="src/js/ui/map/UIMenuMap.js" xlink:title="UIMenuMap.js">
<path fill="#ffffcc" stroke="black" d="M452.46,-58.25C452.46,-58.25 389.54,-58.25 389.54,-58.25 386.46,-58.25 383.38,-55.17 383.38,-52.08 383.38,-52.08 383.38,-45.92 383.38,-45.92 383.38,-42.83 386.46,-39.75 389.54,-39.75 389.54,-39.75 452.46,-39.75 452.46,-39.75 455.54,-39.75 458.62,-42.83 458.62,-45.92 458.62,-45.92 458.62,-52.08 458.62,-52.08 458.62,-55.17 455.54,-58.25 452.46,-58.25"/>
<text text-anchor="start" x="391.38" y="-45.7" font-family="Helvetica,sans-Serif" font-size="9.00">UIMenuMap.js</text>
</a>
</g>
</g>
<!-- src/js/ui/UIController.js&#45;&gt;src/js/ui/map/UIMenuMap.js -->
<g id="edge5" class="edge">
<title>src/js/ui/UIController.js&#45;&gt;src/js/ui/map/UIMenuMap.js</title>
<path fill="none" stroke="#000000" stroke-width="2" stroke-opacity="0.200000" d="M322.5,-130.5C330.69,-119.93 344.86,-102.67 359.25,-90 370.42,-80.16 384.07,-70.75 395.6,-63.43"/>
<polygon fill="#000000" fill-opacity="0.200000" stroke="#000000" stroke-width="2" stroke-opacity="0.200000" points="396.63,-65.27 400.61,-60.32 394.41,-61.7 396.63,-65.27"/>
</g>
<!-- src/js/ui/path/UIMenuPath.js -->
<g id="node7" class="node">
<title>src/js/ui/path/UIMenuPath.js</title>
<g id="a_node7"><a xlink:href="src/js/ui/path/UIMenuPath.js" xlink:title="UIMenuPath.js">
<path fill="#ffffcc" stroke="black" d="M452.83,-119.25C452.83,-119.25 389.17,-119.25 389.17,-119.25 386.08,-119.25 383,-116.17 383,-113.08 383,-113.08 383,-106.92 383,-106.92 383,-103.83 386.08,-100.75 389.17,-100.75 389.17,-100.75 452.83,-100.75 452.83,-100.75 455.92,-100.75 459,-103.83 459,-106.92 459,-106.92 459,-113.08 459,-113.08 459,-116.17 455.92,-119.25 452.83,-119.25"/>
<text text-anchor="start" x="391" y="-106.7" font-family="Helvetica,sans-Serif" font-size="9.00">UIMenuPath.js</text>
</a>
</g>
</g>
<!-- src/js/ui/UIController.js&#45;&gt;src/js/ui/path/UIMenuPath.js -->
<g id="edge6" class="edge">
<title>src/js/ui/UIController.js&#45;&gt;src/js/ui/path/UIMenuPath.js</title>
<path fill="none" stroke="#000000" stroke-width="2" stroke-opacity="0.200000" d="M349.34,-130.26C358.39,-127.67 368.27,-124.83 377.7,-122.13"/>
<polygon fill="#000000" fill-opacity="0.200000" stroke="#000000" stroke-width="2" stroke-opacity="0.200000" points="378.1,-124.2 383.29,-120.53 376.95,-120.16 378.1,-124.2"/>
</g>
<!-- src/js/ui/wall/UIMenuWall.js -->
<g id="node8" class="node">
<title>src/js/ui/wall/UIMenuWall.js</title>
<g id="a_node8"><a xlink:href="src/js/ui/wall/UIMenuWall.js" xlink:title="UIMenuWall.js">
<path fill="#ffffcc" stroke="black" d="M452.46,-180.25C452.46,-180.25 389.54,-180.25 389.54,-180.25 386.46,-180.25 383.38,-177.17 383.38,-174.08 383.38,-174.08 383.38,-167.92 383.38,-167.92 383.38,-164.83 386.46,-161.75 389.54,-161.75 389.54,-161.75 452.46,-161.75 452.46,-161.75 455.54,-161.75 458.62,-164.83 458.62,-167.92 458.62,-167.92 458.62,-174.08 458.62,-174.08 458.62,-177.17 455.54,-180.25 452.46,-180.25"/>
<text text-anchor="start" x="391.38" y="-167.7" font-family="Helvetica,sans-Serif" font-size="9.00">UIMenuWall.js</text>
</a>
</g>
</g>
<!-- src/js/ui/UIController.js&#45;&gt;src/js/ui/wall/UIMenuWall.js -->
<g id="edge7" class="edge">
<title>src/js/ui/UIController.js&#45;&gt;src/js/ui/wall/UIMenuWall.js</title>
<path fill="none" stroke="#000000" stroke-width="2" stroke-opacity="0.200000" d="M348.19,-149.72C357.93,-152.61 368.72,-155.81 378.91,-158.83"/>
<polygon fill="#000000" fill-opacity="0.200000" stroke="#000000" stroke-width="2" stroke-opacity="0.200000" points="378.05,-160.76 384.4,-160.45 379.24,-156.73 378.05,-160.76"/>
</g>
<!-- src/js/view/camera/CameraController.js -->
<g id="node9" class="node">
<title>src/js/view/camera/CameraController.js</title>
<g id="a_node9"><a xlink:href="src/js/view/camera/CameraController.js" xlink:title="CameraController.js">
<path fill="#ffffcc" stroke="black" d="M463.71,-407.25C463.71,-407.25 378.29,-407.25 378.29,-407.25 375.21,-407.25 372.12,-404.17 372.12,-401.08 372.12,-401.08 372.12,-394.92 372.12,-394.92 372.12,-391.83 375.21,-388.75 378.29,-388.75 378.29,-388.75 463.71,-388.75 463.71,-388.75 466.79,-388.75 469.88,-391.83 469.88,-394.92 469.88,-394.92 469.88,-401.08 469.88,-401.08 469.88,-404.17 466.79,-407.25 463.71,-407.25"/>
<text text-anchor="start" x="380.12" y="-394.7" font-family="Helvetica,sans-Serif" font-size="9.00">CameraController.js</text>
</a>
</g>
</g>
<!-- src/js/view/View.js&#45;&gt;src/js/view/camera/CameraController.js -->
<g id="edge8" class="edge">
<title>src/js/view/View.js&#45;&gt;src/js/view/camera/CameraController.js</title>
<path fill="none" stroke="#000000" stroke-width="2" stroke-opacity="0.200000" d="M316.88,-865.31C322.03,-832.59 339.65,-723.31 359.25,-634 377.3,-551.75 404.01,-454.73 415,-415.63"/>
<polygon fill="#000000" fill-opacity="0.200000" stroke="#000000" stroke-width="2" stroke-opacity="0.200000" points="416.89,-416.64 416.5,-410.3 412.85,-415.5 416.89,-416.64"/>
</g>
<!-- src/js/view/content/ContentController.js -->
<g id="node10" class="node">
<title>src/js/view/content/ContentController.js</title>
<g id="a_node10"><a xlink:href="src/js/view/content/ContentController.js" xlink:title="ContentController.js">
<path fill="#ffffcc" stroke="black" d="M463.33,-770.25C463.33,-770.25 378.67,-770.25 378.67,-770.25 375.58,-770.25 372.5,-767.17 372.5,-764.08 372.5,-764.08 372.5,-757.92 372.5,-757.92 372.5,-754.83 375.58,-751.75 378.67,-751.75 378.67,-751.75 463.33,-751.75 463.33,-751.75 466.42,-751.75 469.5,-754.83 469.5,-757.92 469.5,-757.92 469.5,-764.08 469.5,-764.08 469.5,-767.17 466.42,-770.25 463.33,-770.25"/>
<text text-anchor="start" x="380.5" y="-757.7" font-family="Helvetica,sans-Serif" font-size="9.00">ContentController.js</text>
</a>
</g>
</g>
<!-- src/js/view/View.js&#45;&gt;src/js/view/content/ContentController.js -->
<g id="edge9" class="edge">
<title>src/js/view/View.js&#45;&gt;src/js/view/content/ContentController.js</title>
<path fill="none" stroke="#000000" stroke-width="2" stroke-opacity="0.200000" d="M324.3,-865.28C342.29,-845.68 383.08,-801.23 405.15,-777.18"/>
<polygon fill="#000000" fill-opacity="0.200000" stroke="#000000" stroke-width="2" stroke-opacity="0.200000" points="406.55,-778.77 409.06,-772.93 403.45,-775.93 406.55,-778.77"/>
</g>
<!-- src/js/view/interaction/InteractionController.js -->
<g id="node11" class="node">
<title>src/js/view/interaction/InteractionController.js</title>
<g id="a_node11"><a xlink:href="src/js/view/interaction/InteractionController.js" xlink:title="InteractionController.js">
<path fill="#ffffcc" stroke="black" d="M468.58,-998.25C468.58,-998.25 373.42,-998.25 373.42,-998.25 370.33,-998.25 367.25,-995.17 367.25,-992.08 367.25,-992.08 367.25,-985.92 367.25,-985.92 367.25,-982.83 370.33,-979.75 373.42,-979.75 373.42,-979.75 468.58,-979.75 468.58,-979.75 471.67,-979.75 474.75,-982.83 474.75,-985.92 474.75,-985.92 474.75,-992.08 474.75,-992.08 474.75,-995.17 471.67,-998.25 468.58,-998.25"/>
<text text-anchor="start" x="375.25" y="-985.7" font-family="Helvetica,sans-Serif" font-size="9.00">InteractionController.js</text>
</a>
</g>
</g>
<!-- src/js/view/View.js&#45;&gt;src/js/view/interaction/InteractionController.js -->
<g id="edge10" class="edge">
<title>src/js/view/View.js&#45;&gt;src/js/view/interaction/InteractionController.js</title>
<path fill="none" stroke="#000000" stroke-width="2" stroke-opacity="0.200000" d="M317.37,-884.52C321.74,-903 333.82,-943.94 359.25,-967 362.83,-970.25 366.93,-973.03 371.27,-975.4"/>
<polygon fill="#000000" fill-opacity="0.200000" stroke="#000000" stroke-width="2" stroke-opacity="0.200000" points="370.24,-977.24 376.56,-977.94 372.06,-973.45 370.24,-977.24"/>
</g>
<!-- src/js/view/light/LightController.js -->
<g id="node12" class="node">
<title>src/js/view/light/LightController.js</title>
<g id="a_node12"><a xlink:href="src/js/view/light/LightController.js" xlink:title="LightController.js">
<path fill="#ffffcc" stroke="black" d="M457.33,-1059.25C457.33,-1059.25 384.67,-1059.25 384.67,-1059.25 381.58,-1059.25 378.5,-1056.17 378.5,-1053.08 378.5,-1053.08 378.5,-1046.92 378.5,-1046.92 378.5,-1043.83 381.58,-1040.75 384.67,-1040.75 384.67,-1040.75 457.33,-1040.75 457.33,-1040.75 460.42,-1040.75 463.5,-1043.83 463.5,-1046.92 463.5,-1046.92 463.5,-1053.08 463.5,-1053.08 463.5,-1056.17 460.42,-1059.25 457.33,-1059.25"/>
<text text-anchor="start" x="386.5" y="-1046.7" font-family="Helvetica,sans-Serif" font-size="9.00">LightController.js</text>
</a>
</g>
</g>
<!-- src/js/view/View.js&#45;&gt;src/js/view/light/LightController.js -->
<g id="edge11" class="edge">
<title>src/js/view/View.js&#45;&gt;src/js/view/light/LightController.js</title>
<path fill="none" stroke="#000000" stroke-width="2" stroke-opacity="0.200000" d="M315.29,-884.69C315.57,-911.24 320.02,-986 359.25,-1028 362.5,-1031.48 366.35,-1034.42 370.51,-1036.89"/>
<polygon fill="#000000" fill-opacity="0.200000" stroke="#000000" stroke-width="2" stroke-opacity="0.200000" points="369.26,-1038.61 375.56,-1039.47 371.18,-1034.87 369.26,-1038.61"/>
</g>
<!-- src/js/view/render/RenderController.js -->
<g id="node13" class="node">
<title>src/js/view/render/RenderController.js</title>
<g id="a_node13"><a xlink:href="src/js/view/render/RenderController.js" xlink:title="RenderController.js">
<path fill="#ffffcc" stroke="black" d="M462.58,-1120.25C462.58,-1120.25 379.42,-1120.25 379.42,-1120.25 376.33,-1120.25 373.25,-1117.17 373.25,-1114.08 373.25,-1114.08 373.25,-1107.92 373.25,-1107.92 373.25,-1104.83 376.33,-1101.75 379.42,-1101.75 379.42,-1101.75 462.58,-1101.75 462.58,-1101.75 465.67,-1101.75 468.75,-1104.83 468.75,-1107.92 468.75,-1107.92 468.75,-1114.08 468.75,-1114.08 468.75,-1117.17 465.67,-1120.25 462.58,-1120.25"/>
<text text-anchor="start" x="381.25" y="-1107.7" font-family="Helvetica,sans-Serif" font-size="9.00">RenderController.js</text>
</a>
</g>
</g>
<!-- src/js/view/View.js&#45;&gt;src/js/view/render/RenderController.js -->
<g id="edge12" class="edge">
<title>src/js/view/View.js&#45;&gt;src/js/view/render/RenderController.js</title>
<path fill="none" stroke="#000000" stroke-width="2" stroke-opacity="0.200000" d="M316.12,-884.63C319.17,-922.08 331.97,-1057.44 359.25,-1089 361.88,-1092.04 364.96,-1094.66 368.32,-1096.92"/>
<polygon fill="#000000" fill-opacity="0.200000" stroke="#000000" stroke-width="2" stroke-opacity="0.200000" points="367.16,-1098.68 373.42,-1099.82 369.24,-1095.03 367.16,-1098.68"/>
</g>
<!-- src/js/index.js -->
<g id="node5" class="node">
<title>src/js/index.js</title>
<g id="a_node5"><a xlink:href="src/js/index.js" xlink:title="index.js">
<path fill="#ffffcc" stroke="black" d="M71.83,-516.25C71.83,-516.25 30.17,-516.25 30.17,-516.25 27.08,-516.25 24,-513.17 24,-510.08 24,-510.08 24,-503.92 24,-503.92 24,-500.83 27.08,-497.75 30.17,-497.75 30.17,-497.75 71.83,-497.75 71.83,-497.75 74.92,-497.75 78,-500.83 78,-503.92 78,-503.92 78,-510.08 78,-510.08 78,-513.17 74.92,-516.25 71.83,-516.25"/>
<text text-anchor="start" x="35.25" y="-503.7" font-family="Helvetica,sans-Serif" font-size="9.00">index.js</text>
</a>
</g>
</g>
<!-- src/js/index.js&#45;&gt;src/js/application/Application.js -->
<g id="edge4" class="edge">
<title>src/js/index.js&#45;&gt;src/js/application/Application.js</title>
<path fill="none" stroke="#000000" stroke-width="2" stroke-opacity="0.200000" d="M78.28,-507C80.44,-507 82.64,-507 84.88,-507"/>
<polygon fill="#000000" fill-opacity="0.200000" stroke="#000000" stroke-width="2" stroke-opacity="0.200000" points="84.52,-509.1 90.52,-507 84.52,-504.9 84.52,-509.1"/>
</g>
<!-- src/js/view/camera/keyboard/CameraKeyboardController.js -->
<g id="node14" class="node">
<title>src/js/view/camera/keyboard/CameraKeyboardController.js</title>
<g id="a_node14"><a xlink:href="src/js/view/camera/keyboard/CameraKeyboardController.js" xlink:title="CameraKeyboardController.js">
<path fill="#ffffcc" stroke="black" d="M630.08,-284.25C630.08,-284.25 504.92,-284.25 504.92,-284.25 501.83,-284.25 498.75,-281.17 498.75,-278.08 498.75,-278.08 498.75,-271.92 498.75,-271.92 498.75,-268.83 501.83,-265.75 504.92,-265.75 504.92,-265.75 630.08,-265.75 630.08,-265.75 633.17,-265.75 636.25,-268.83 636.25,-271.92 636.25,-271.92 636.25,-278.08 636.25,-278.08 636.25,-281.17 633.17,-284.25 630.08,-284.25"/>
<text text-anchor="start" x="506.75" y="-271.7" font-family="Helvetica,sans-Serif" font-size="9.00">CameraKeyboardController.js</text>
</a>
</g>
</g>
<!-- src/js/view/camera/CameraController.js&#45;&gt;src/js/view/camera/keyboard/CameraKeyboardController.js -->
<g id="edge13" class="edge">
<title>src/js/view/camera/CameraController.js&#45;&gt;src/js/view/camera/keyboard/CameraKeyboardController.js</title>
<path fill="none" stroke="#000000" stroke-width="2" stroke-opacity="0.200000" d="M428.25,-388.39C439.3,-371.96 463.69,-338.09 490.75,-316 504.21,-305.01 521.06,-295.55 535.44,-288.5"/>
<polygon fill="#000000" fill-opacity="0.200000" stroke="#000000" stroke-width="2" stroke-opacity="0.200000" points="536.33,-290.4 540.85,-285.93 534.53,-286.61 536.33,-290.4"/>
</g>
<!-- src/js/view/camera/module/CameraModuleLookat.js -->
<g id="node15" class="node">
<title>src/js/view/camera/module/CameraModuleLookat.js</title>
<g id="a_node15"><a xlink:href="src/js/view/camera/module/CameraModuleLookat.js" xlink:title="CameraModuleLookat.js">
<path fill="#ffffcc" stroke="black" d="M619.58,-345.25C619.58,-345.25 515.42,-345.25 515.42,-345.25 512.33,-345.25 509.25,-342.17 509.25,-339.08 509.25,-339.08 509.25,-332.92 509.25,-332.92 509.25,-329.83 512.33,-326.75 515.42,-326.75 515.42,-326.75 619.58,-326.75 619.58,-326.75 622.67,-326.75 625.75,-329.83 625.75,-332.92 625.75,-332.92 625.75,-339.08 625.75,-339.08 625.75,-342.17 622.67,-345.25 619.58,-345.25"/>
<text text-anchor="start" x="517.25" y="-332.7" font-family="Helvetica,sans-Serif" font-size="9.00">CameraModuleLookat.js</text>
</a>
</g>
</g>
<!-- src/js/view/camera/CameraController.js&#45;&gt;src/js/view/camera/module/CameraModuleLookat.js -->
<g id="edge14" class="edge">
<title>src/js/view/camera/CameraController.js&#45;&gt;src/js/view/camera/module/CameraModuleLookat.js</title>
<path fill="none" stroke="#000000" stroke-width="2" stroke-opacity="0.200000" d="M433.37,-388.37C446.4,-377.85 468.78,-361.26 490.75,-352 493.93,-350.66 497.24,-349.42 500.62,-348.29"/>
<polygon fill="#000000" fill-opacity="0.200000" stroke="#000000" stroke-width="2" stroke-opacity="0.200000" points="501.1,-350.34 506.22,-346.56 499.87,-346.32 501.1,-350.34"/>
</g>
<!-- src/js/view/camera/module/CameraModuleOffset.js -->
<g id="node16" class="node">
<title>src/js/view/camera/module/CameraModuleOffset.js</title>
<g id="a_node16"><a xlink:href="src/js/view/camera/module/CameraModuleOffset.js" xlink:title="CameraModuleOffset.js">
<path fill="#ffffcc" stroke="black" d="M617.33,-376.25C617.33,-376.25 517.67,-376.25 517.67,-376.25 514.58,-376.25 511.5,-373.17 511.5,-370.08 511.5,-370.08 511.5,-363.92 511.5,-363.92 511.5,-360.83 514.58,-357.75 517.67,-357.75 517.67,-357.75 617.33,-357.75 617.33,-357.75 620.42,-357.75 623.5,-360.83 623.5,-363.92 623.5,-363.92 623.5,-370.08 623.5,-370.08 623.5,-373.17 620.42,-376.25 617.33,-376.25"/>
<text text-anchor="start" x="519.5" y="-363.7" font-family="Helvetica,sans-Serif" font-size="9.00">CameraModuleOffset.js</text>
</a>
</g>
</g>
<!-- src/js/view/camera/CameraController.js&#45;&gt;src/js/view/camera/module/CameraModuleOffset.js -->
<g id="edge15" class="edge">
<title>src/js/view/camera/CameraController.js&#45;&gt;src/js/view/camera/module/CameraModuleOffset.js</title>
<path fill="none" stroke="#000000" stroke-width="2" stroke-opacity="0.200000" d="M466.37,-388.27C474.48,-386.51 482.87,-384.69 490.75,-383 497.5,-381.55 504.58,-380.04 511.6,-378.55"/>
<polygon fill="#000000" fill-opacity="0.200000" stroke="#000000" stroke-width="2" stroke-opacity="0.200000" points="512.03,-380.61 517.46,-377.31 511.16,-376.5 512.03,-380.61"/>
</g>
<!-- src/js/view/camera/module/CameraModulePhi.js -->
<g id="node17" class="node">
<title>src/js/view/camera/module/CameraModulePhi.js</title>
<g id="a_node17"><a xlink:href="src/js/view/camera/module/CameraModulePhi.js" xlink:title="CameraModulePhi.js">
<path fill="#ffffcc" stroke="black" d="M612.46,-407.25C612.46,-407.25 522.54,-407.25 522.54,-407.25 519.46,-407.25 516.38,-404.17 516.38,-401.08 516.38,-401.08 516.38,-394.92 516.38,-394.92 516.38,-391.83 519.46,-388.75 522.54,-388.75 522.54,-388.75 612.46,-388.75 612.46,-388.75 615.54,-388.75 618.62,-391.83 618.62,-394.92 618.62,-394.92 618.62,-401.08 618.62,-401.08 618.62,-404.17 615.54,-407.25 612.46,-407.25"/>
<text text-anchor="start" x="524.38" y="-394.7" font-family="Helvetica,sans-Serif" font-size="9.00">CameraModulePhi.js</text>
</a>
</g>
</g>
<!-- src/js/view/camera/CameraController.js&#45;&gt;src/js/view/camera/module/CameraModulePhi.js -->
<g id="edge16" class="edge">
<title>src/js/view/camera/CameraController.js&#45;&gt;src/js/view/camera/module/CameraModulePhi.js</title>
<path fill="none" stroke="#000000" stroke-width="2" stroke-opacity="0.200000" d="M470.12,-398C482.01,-398 494.89,-398 507.24,-398"/>
<polygon fill="#000000" fill-opacity="0.200000" stroke="#000000" stroke-width="2" stroke-opacity="0.200000" points="507.09,-400.1 513.09,-398 507.09,-395.9 507.09,-400.1"/>
</g>
<!-- src/js/view/camera/module/CameraModuleRadius.js -->
<g id="node18" class="node">
<title>src/js/view/camera/module/CameraModuleRadius.js</title>
<g id="a_node18"><a xlink:href="src/js/view/camera/module/CameraModuleRadius.js" xlink:title="CameraModuleRadius.js">
<path fill="#ffffcc" stroke="black" d="M620.33,-438.25C620.33,-438.25 514.67,-438.25 514.67,-438.25 511.58,-438.25 508.5,-435.17 508.5,-432.08 508.5,-432.08 508.5,-425.92 508.5,-425.92 508.5,-422.83 511.58,-419.75 514.67,-419.75 514.67,-419.75 620.33,-419.75 620.33,-419.75 623.42,-419.75 626.5,-422.83 626.5,-425.92 626.5,-425.92 626.5,-432.08 626.5,-432.08 626.5,-435.17 623.42,-438.25 620.33,-438.25"/>
<text text-anchor="start" x="516.5" y="-425.7" font-family="Helvetica,sans-Serif" font-size="9.00">CameraModuleRadius.js</text>
</a>
</g>
</g>
<!-- src/js/view/camera/CameraController.js&#45;&gt;src/js/view/camera/module/CameraModuleRadius.js -->
<g id="edge17" class="edge">
<title>src/js/view/camera/CameraController.js&#45;&gt;src/js/view/camera/module/CameraModuleRadius.js</title>
<path fill="none" stroke="#000000" stroke-width="2" stroke-opacity="0.200000" d="M466.37,-407.73C474.48,-409.49 482.87,-411.31 490.75,-413 497.5,-414.45 504.58,-415.96 511.6,-417.45"/>
<polygon fill="#000000" fill-opacity="0.200000" stroke="#000000" stroke-width="2" stroke-opacity="0.200000" points="511.16,-419.5 517.46,-418.69 512.03,-415.39 511.16,-419.5"/>
</g>
<!-- src/js/view/camera/module/CameraModuleTheta.js -->
<g id="node19" class="node">
<title>src/js/view/camera/module/CameraModuleTheta.js</title>
<g id="a_node19"><a xlink:href="src/js/view/camera/module/CameraModuleTheta.js" xlink:title="CameraModuleTheta.js">
<path fill="#ffffcc" stroke="black" d="M617.33,-469.25C617.33,-469.25 517.67,-469.25 517.67,-469.25 514.58,-469.25 511.5,-466.17 511.5,-463.08 511.5,-463.08 511.5,-456.92 511.5,-456.92 511.5,-453.83 514.58,-450.75 517.67,-450.75 517.67,-450.75 617.33,-450.75 617.33,-450.75 620.42,-450.75 623.5,-453.83 623.5,-456.92 623.5,-456.92 623.5,-463.08 623.5,-463.08 623.5,-466.17 620.42,-469.25 617.33,-469.25"/>
<text text-anchor="start" x="519.5" y="-456.7" font-family="Helvetica,sans-Serif" font-size="9.00">CameraModuleTheta.js</text>
</a>
</g>
</g>
<!-- src/js/view/camera/CameraController.js&#45;&gt;src/js/view/camera/module/CameraModuleTheta.js -->
<g id="edge18" class="edge">
<title>src/js/view/camera/CameraController.js&#45;&gt;src/js/view/camera/module/CameraModuleTheta.js</title>
<path fill="none" stroke="#000000" stroke-width="2" stroke-opacity="0.200000" d="M433.37,-407.63C446.4,-418.15 468.78,-434.74 490.75,-444 494.57,-445.61 498.58,-447.07 502.66,-448.38"/>
<polygon fill="#000000" fill-opacity="0.200000" stroke="#000000" stroke-width="2" stroke-opacity="0.200000" points="501.87,-450.34 508.22,-450.03 503.06,-446.31 501.87,-450.34"/>
</g>
<!-- src/js/view/content/intersection/ContentIntersection.js -->
<g id="node20" class="node">
<title>src/js/view/content/intersection/ContentIntersection.js</title>
<g id="a_node20"><a xlink:href="src/js/view/content/intersection/ContentIntersection.js" xlink:title="ContentIntersection.js">
<path fill="#ffffcc" stroke="black" d="M613.58,-565.25C613.58,-565.25 521.42,-565.25 521.42,-565.25 518.33,-565.25 515.25,-562.17 515.25,-559.08 515.25,-559.08 515.25,-552.92 515.25,-552.92 515.25,-549.83 518.33,-546.75 521.42,-546.75 521.42,-546.75 613.58,-546.75 613.58,-546.75 616.67,-546.75 619.75,-549.83 619.75,-552.92 619.75,-552.92 619.75,-559.08 619.75,-559.08 619.75,-562.17 616.67,-565.25 613.58,-565.25"/>
<text text-anchor="start" x="523.25" y="-552.7" font-family="Helvetica,sans-Serif" font-size="9.00">ContentIntersection.js</text>
</a>
</g>
</g>
<!-- src/js/view/content/ContentController.js&#45;&gt;src/js/view/content/intersection/ContentIntersection.js -->
<g id="edge19" class="edge">
<title>src/js/view/content/ContentController.js&#45;&gt;src/js/view/content/intersection/ContentIntersection.js</title>
<path fill="none" stroke="#000000" stroke-width="2" stroke-opacity="0.200000" d="M434.62,-751.29C449.09,-739.34 472.18,-717.58 482.75,-693 491.21,-673.33 479.04,-614.92 490.75,-597 498.88,-584.56 512.11,-575.6 525.26,-569.29"/>
<polygon fill="#000000" fill-opacity="0.200000" stroke="#000000" stroke-width="2" stroke-opacity="0.200000" points="525.98,-571.27 530.62,-566.93 524.29,-567.43 525.98,-571.27"/>
</g>
<!-- src/js/view/content/map/ContentMap.js -->
<g id="node21" class="node">
<title>src/js/view/content/map/ContentMap.js</title>
<g id="a_node21"><a xlink:href="src/js/view/content/map/ContentMap.js" xlink:title="ContentMap.js">
<path fill="#ffffcc" stroke="black" d="M598.96,-626.25C598.96,-626.25 536.04,-626.25 536.04,-626.25 532.96,-626.25 529.88,-623.17 529.88,-620.08 529.88,-620.08 529.88,-613.92 529.88,-613.92 529.88,-610.83 532.96,-607.75 536.04,-607.75 536.04,-607.75 598.96,-607.75 598.96,-607.75 602.04,-607.75 605.12,-610.83 605.12,-613.92 605.12,-613.92 605.12,-620.08 605.12,-620.08 605.12,-623.17 602.04,-626.25 598.96,-626.25"/>
<text text-anchor="start" x="537.88" y="-613.7" font-family="Helvetica,sans-Serif" font-size="9.00">ContentMap.js</text>
</a>
</g>
</g>
<!-- src/js/view/content/ContentController.js&#45;&gt;src/js/view/content/map/ContentMap.js -->
<g id="edge20" class="edge">
<title>src/js/view/content/ContentController.js&#45;&gt;src/js/view/content/map/ContentMap.js</title>
<path fill="none" stroke="#000000" stroke-width="2" stroke-opacity="0.200000" d="M433.29,-751.65C447.12,-739.57 470.25,-717.19 482.75,-693 490.07,-678.82 481.1,-670.71 490.75,-658 500.13,-645.66 514.33,-636.59 527.91,-630.16"/>
<polygon fill="#000000" fill-opacity="0.200000" stroke="#000000" stroke-width="2" stroke-opacity="0.200000" points="528.39,-632.25 533.03,-627.91 526.69,-628.41 528.39,-632.25"/>
</g>
<!-- src/js/view/content/path/ContentPath.js -->
<g id="node22" class="node">
<title>src/js/view/content/path/ContentPath.js</title>
<g id="a_node22"><a xlink:href="src/js/view/content/path/ContentPath.js" xlink:title="ContentPath.js">
<path fill="#ffffcc" stroke="black" d="M599.33,-726.25C599.33,-726.25 535.67,-726.25 535.67,-726.25 532.58,-726.25 529.5,-723.17 529.5,-720.08 529.5,-720.08 529.5,-713.92 529.5,-713.92 529.5,-710.83 532.58,-707.75 535.67,-707.75 535.67,-707.75 599.33,-707.75 599.33,-707.75 602.42,-707.75 605.5,-710.83 605.5,-713.92 605.5,-713.92 605.5,-720.08 605.5,-720.08 605.5,-723.17 602.42,-726.25 599.33,-726.25"/>
<text text-anchor="start" x="537.5" y="-713.7" font-family="Helvetica,sans-Serif" font-size="9.00">ContentPath.js</text>
</a>
</g>
</g>
<!-- src/js/view/content/ContentController.js&#45;&gt;src/js/view/content/path/ContentPath.js -->
<g id="edge21" class="edge">
<title>src/js/view/content/ContentController.js&#45;&gt;src/js/view/content/path/ContentPath.js</title>
<path fill="none" stroke="#000000" stroke-width="2" stroke-opacity="0.200000" d="M453.71,-751.34C475.07,-744.84 503.43,-736.2 526.36,-729.22"/>
<polygon fill="#000000" fill-opacity="0.200000" stroke="#000000" stroke-width="2" stroke-opacity="0.200000" points="526.84,-731.27 531.97,-727.52 525.62,-727.25 526.84,-731.27"/>
</g>
<!-- src/js/view/content/roof/ContentRoof.js -->
<g id="node23" class="node">
<title>src/js/view/content/roof/ContentRoof.js</title>
<g id="a_node23"><a xlink:href="src/js/view/content/roof/ContentRoof.js" xlink:title="ContentRoof.js">
<path fill="#ffffcc" stroke="black" d="M599.71,-814.25C599.71,-814.25 535.29,-814.25 535.29,-814.25 532.21,-814.25 529.12,-811.17 529.12,-808.08 529.12,-808.08 529.12,-801.92 529.12,-801.92 529.12,-798.83 532.21,-795.75 535.29,-795.75 535.29,-795.75 599.71,-795.75 599.71,-795.75 602.79,-795.75 605.88,-798.83 605.88,-801.92 605.88,-801.92 605.88,-808.08 605.88,-808.08 605.88,-811.17 602.79,-814.25 599.71,-814.25"/>
<text text-anchor="start" x="537.12" y="-801.7" font-family="Helvetica,sans-Serif" font-size="9.00">ContentRoof.js</text>
</a>
</g>
</g>
<!-- src/js/view/content/ContentController.js&#45;&gt;src/js/view/content/roof/ContentRoof.js -->
<g id="edge22" class="edge">
<title>src/js/view/content/ContentController.js&#45;&gt;src/js/view/content/roof/ContentRoof.js</title>
<path fill="none" stroke="#000000" stroke-width="2" stroke-opacity="0.200000" d="M451.72,-770.71C463.81,-774.6 477.92,-779.09 490.75,-783 501.5,-786.28 513.14,-789.72 524,-792.88"/>
<polygon fill="#000000" fill-opacity="0.200000" stroke="#000000" stroke-width="2" stroke-opacity="0.200000" points="523.25,-794.84 529.6,-794.5 524.42,-790.81 523.25,-794.84"/>
</g>
<!-- src/js/view/content/wall/ContentWall.js -->
<g id="node24" class="node">
<title>src/js/view/content/wall/ContentWall.js</title>
<g id="a_node24"><a xlink:href="src/js/view/content/wall/ContentWall.js" xlink:title="ContentWall.js">
<path fill="#ffffcc" stroke="black" d="M598.96,-879.25C598.96,-879.25 536.04,-879.25 536.04,-879.25 532.96,-879.25 529.88,-876.17 529.88,-873.08 529.88,-873.08 529.88,-866.92 529.88,-866.92 529.88,-863.83 532.96,-860.75 536.04,-860.75 536.04,-860.75 598.96,-860.75 598.96,-860.75 602.04,-860.75 605.12,-863.83 605.12,-866.92 605.12,-866.92 605.12,-873.08 605.12,-873.08 605.12,-876.17 602.04,-879.25 598.96,-879.25"/>
<text text-anchor="start" x="537.88" y="-866.7" font-family="Helvetica,sans-Serif" font-size="9.00">ContentWall.js</text>
</a>
</g>
</g>
<!-- src/js/view/content/ContentController.js&#45;&gt;src/js/view/content/wall/ContentWall.js -->
<g id="edge23" class="edge">
<title>src/js/view/content/ContentController.js&#45;&gt;src/js/view/content/wall/ContentWall.js</title>
<path fill="none" stroke="#000000" stroke-width="2" stroke-opacity="0.200000" d="M427.52,-770.67C437.8,-787.86 461.51,-823.78 490.75,-844 499.87,-850.3 510.65,-855.2 521.17,-858.96"/>
<polygon fill="#000000" fill-opacity="0.200000" stroke="#000000" stroke-width="2" stroke-opacity="0.200000" points="520.29,-860.88 526.65,-860.78 521.62,-856.89 520.29,-860.88"/>
</g>
<!-- src/js/view/content/path/path/ContentPathLine.js -->
<g id="node26" class="node">
<title>src/js/view/content/path/path/ContentPathLine.js</title>
<g id="a_node26"><a xlink:href="src/js/view/content/path/path/ContentPathLine.js" xlink:title="ContentPathLine.js">
<path fill="#ffffcc" stroke="black" d="M762.46,-695.25C762.46,-695.25 680.79,-695.25 680.79,-695.25 677.71,-695.25 674.62,-692.17 674.62,-689.08 674.62,-689.08 674.62,-682.92 674.62,-682.92 674.62,-679.83 677.71,-676.75 680.79,-676.75 680.79,-676.75 762.46,-676.75 762.46,-676.75 765.54,-676.75 768.62,-679.83 768.62,-682.92 768.62,-682.92 768.62,-689.08 768.62,-689.08 768.62,-692.17 765.54,-695.25 762.46,-695.25"/>
<text text-anchor="start" x="682.62" y="-682.7" font-family="Helvetica,sans-Serif" font-size="9.00">ContentPathLine.js</text>
</a>
</g>
</g>
<!-- src/js/view/content/path/ContentPath.js&#45;&gt;src/js/view/content/path/path/ContentPathLine.js -->
<g id="edge24" class="edge">
<title>src/js/view/content/path/ContentPath.js&#45;&gt;src/js/view/content/path/path/ContentPathLine.js</title>
<path fill="none" stroke="#000000" stroke-width="2" stroke-opacity="0.200000" d="M605.71,-709.42C623.72,-705.75 645.7,-701.27 665.59,-697.21"/>
<polygon fill="#000000" fill-opacity="0.200000" stroke="#000000" stroke-width="2" stroke-opacity="0.200000" points="665.84,-699.31 671.3,-696.05 665,-695.19 665.84,-699.31"/>
</g>
<!-- src/js/view/content/path/path/ContentPathPoint.js -->
<g id="node27" class="node">
<title>src/js/view/content/path/path/ContentPathPoint.js</title>
<g id="a_node27"><a xlink:href="src/js/view/content/path/path/ContentPathPoint.js" xlink:title="ContentPathPoint.js">
<path fill="#ffffcc" stroke="black" d="M763.96,-726.25C763.96,-726.25 679.29,-726.25 679.29,-726.25 676.21,-726.25 673.12,-723.17 673.12,-720.08 673.12,-720.08 673.12,-713.92 673.12,-713.92 673.12,-710.83 676.21,-707.75 679.29,-707.75 679.29,-707.75 763.96,-707.75 763.96,-707.75 767.04,-707.75 770.12,-710.83 770.12,-713.92 770.12,-713.92 770.12,-720.08 770.12,-720.08 770.12,-723.17 767.04,-726.25 763.96,-726.25"/>
<text text-anchor="start" x="681.12" y="-713.7" font-family="Helvetica,sans-Serif" font-size="9.00">ContentPathPoint.js</text>
</a>
</g>
</g>
<!-- src/js/view/content/path/ContentPath.js&#45;&gt;src/js/view/content/path/path/ContentPathPoint.js -->
<g id="edge25" class="edge">
<title>src/js/view/content/path/ContentPath.js&#45;&gt;src/js/view/content/path/path/ContentPathPoint.js</title>
<path fill="none" stroke="#000000" stroke-width="2" stroke-opacity="0.200000" d="M605.71,-717C623.26,-717 644.57,-717 664.06,-717"/>
<polygon fill="#000000" fill-opacity="0.200000" stroke="#000000" stroke-width="2" stroke-opacity="0.200000" points="663.83,-719.1 669.83,-717 663.83,-714.9 663.83,-719.1"/>
</g>
<!-- src/js/view/content/wall/wall/ContentWallSurface.js -->
<g id="node28" class="node">
<title>src/js/view/content/wall/wall/ContentWallSurface.js</title>
<g id="a_node28"><a xlink:href="src/js/view/content/wall/wall/ContentWallSurface.js" xlink:title="ContentWallSurface.js">
<path fill="#ffffcc" stroke="black" d="M768.83,-883.25C768.83,-883.25 674.42,-883.25 674.42,-883.25 671.33,-883.25 668.25,-880.17 668.25,-877.08 668.25,-877.08 668.25,-870.92 668.25,-870.92 668.25,-867.83 671.33,-864.75 674.42,-864.75 674.42,-864.75 768.83,-864.75 768.83,-864.75 771.92,-864.75 775,-867.83 775,-870.92 775,-870.92 775,-877.08 775,-877.08 775,-880.17 771.92,-883.25 768.83,-883.25"/>
<text text-anchor="start" x="676.25" y="-870.7" font-family="Helvetica,sans-Serif" font-size="9.00">ContentWallSurface.js</text>
</a>
</g>
</g>
<!-- src/js/view/content/wall/ContentWall.js&#45;&gt;src/js/view/content/wall/wall/ContentWallSurface.js -->
<g id="edge26" class="edge">
<title>src/js/view/content/wall/ContentWall.js&#45;&gt;src/js/view/content/wall/wall/ContentWallSurface.js</title>
<path fill="none" stroke="#000000" stroke-width="2" stroke-opacity="0.200000" d="M605.33,-870.97C621.5,-871.39 640.93,-871.9 659.19,-872.38"/>
<polygon fill="#000000" fill-opacity="0.200000" stroke="#000000" stroke-width="2" stroke-opacity="0.200000" points="658.96,-874.48 665.01,-872.54 659.07,-870.28 658.96,-874.48"/>
</g>
<!-- src/js/view/content/cursor/ContentCursor.js -->
<g id="node25" class="node">
<title>src/js/view/content/cursor/ContentCursor.js</title>
<g id="a_node25"><a xlink:href="src/js/view/content/cursor/ContentCursor.js" xlink:title="ContentCursor.js">
<path fill="#ffffcc" stroke="black" d="M456.96,-663.25C456.96,-663.25 385.04,-663.25 385.04,-663.25 381.96,-663.25 378.88,-660.17 378.88,-657.08 378.88,-657.08 378.88,-650.92 378.88,-650.92 378.88,-647.83 381.96,-644.75 385.04,-644.75 385.04,-644.75 456.96,-644.75 456.96,-644.75 460.04,-644.75 463.12,-647.83 463.12,-650.92 463.12,-650.92 463.12,-657.08 463.12,-657.08 463.12,-660.17 460.04,-663.25 456.96,-663.25"/>
<text text-anchor="start" x="386.88" y="-650.7" font-family="Helvetica,sans-Serif" font-size="9.00">ContentCursor.js</text>
</a>
</g>
</g>
</g>
</svg>
