<?xml version="1.0" encoding="UTF-8" standalone="no"?>
<!DOCTYPE svg PUBLIC "-//W3C//DTD SVG 1.1//EN"
 "http://www.w3.org/Graphics/SVG/1.1/DTD/svg11.dtd">
<!-- Generated by graphviz version 12.2.1 (20241206.2353)
 -->
<!-- Title: dependency&#45;cruiser output Pages: 1 -->
<svg width="512pt" height="252pt"
 viewBox="0.00 0.00 511.75 252.00" xmlns="http://www.w3.org/2000/svg" xmlns:xlink="http://www.w3.org/1999/xlink">
<g id="graph0" class="graph" transform="scale(1 1) rotate(0) translate(4 248)">
<title>dependency&#45;cruiser output</title>
<polygon fill="white" stroke="none" points="-4,4 -4,-248 507.75,-248 507.75,4 -4,4"/>
<g id="clust1" class="cluster">
<title>cluster_src</title>
<path fill="#ffffff" stroke="black" stroke-width="2" d="M20,-8C20,-8 483.75,-8 483.75,-8 489.75,-8 495.75,-14 495.75,-20 495.75,-20 495.75,-224 495.75,-224 495.75,-230 489.75,-236 483.75,-236 483.75,-236 20,-236 20,-236 14,-236 8,-230 8,-224 8,-224 8,-20 8,-20 8,-14 14,-8 20,-8"/>
<text text-anchor="middle" x="251.88" y="-223.45" font-family="Helvetica,sans-Serif" font-weight="bold" font-size="9.00">src</text>
</g>
<g id="clust2" class="cluster">
<title>cluster_src/js</title>
<path fill="#ffffff" stroke="black" stroke-width="2" d="M28,-16C28,-16 475.75,-16 475.75,-16 481.75,-16 487.75,-22 487.75,-28 487.75,-28 487.75,-197 487.75,-197 487.75,-203 481.75,-209 475.75,-209 475.75,-209 28,-209 28,-209 22,-209 16,-203 16,-197 16,-197 16,-28 16,-28 16,-22 22,-16 28,-16"/>
<text text-anchor="middle" x="251.88" y="-196.45" font-family="Helvetica,sans-Serif" font-weight="bold" font-size="9.00">js</text>
</g>
<g id="clust3" class="cluster">
<title>cluster_src/js/application</title>
<path fill="#ffffff" stroke="black" stroke-width="2" d="M98,-24C98,-24 467.75,-24 467.75,-24 473.75,-24 479.75,-30 479.75,-36 479.75,-36 479.75,-109 479.75,-109 479.75,-115 473.75,-121 467.75,-121 467.75,-121 98,-121 98,-121 92,-121 86,-115 86,-109 86,-109 86,-36 86,-36 86,-30 92,-24 98,-24"/>
<text text-anchor="middle" x="282.88" y="-108.45" font-family="Helvetica,sans-Serif" font-weight="bold" font-size="9.00">application</text>
</g>
<g id="clust4" class="cluster">
<title>cluster_src/js/controller</title>
<path fill="#ffffff" stroke="black" stroke-width="2" d="M262,-129C262,-129 318.75,-129 318.75,-129 324.75,-129 330.75,-135 330.75,-141 330.75,-141 330.75,-170 330.75,-170 330.75,-176 324.75,-182 318.75,-182 318.75,-182 262,-182 262,-182 256,-182 250,-176 250,-170 250,-170 250,-141 250,-141 250,-135 256,-129 262,-129"/>
<text text-anchor="middle" x="290.38" y="-169.45" font-family="Helvetica,sans-Serif" font-weight="bold" font-size="9.00">controller</text>
</g>
<!-- src/js/application/Application.js -->
<g id="node1" class="node">
<title>src/js/application/Application.js</title>
<g id="a_node1"><a xlink:href="src/js/application/Application.js" xlink:title="Application.js">
<path fill="#ffffcc" stroke="black" d="M180.33,-63.25C180.33,-63.25 121.92,-63.25 121.92,-63.25 118.83,-63.25 115.75,-60.17 115.75,-57.08 115.75,-57.08 115.75,-50.92 115.75,-50.92 115.75,-47.83 118.83,-44.75 121.92,-44.75 121.92,-44.75 180.33,-44.75 180.33,-44.75 183.42,-44.75 186.5,-47.83 186.5,-50.92 186.5,-50.92 186.5,-57.08 186.5,-57.08 186.5,-60.17 183.42,-63.25 180.33,-63.25"/>
<text text-anchor="start" x="123.75" y="-50.7" font-family="Helvetica,sans-Serif" font-size="9.00">Application.js</text>
</a>
</g>
</g>
<!-- src/js/controller/Controller.js -->
<g id="node2" class="node">
<title>src/js/controller/Controller.js</title>
<g id="a_node2"><a xlink:href="src/js/controller/Controller.js" xlink:title="Controller.js">
<path fill="#ffffcc" stroke="black" d="M316.58,-155.25C316.58,-155.25 264.17,-155.25 264.17,-155.25 261.08,-155.25 258,-152.17 258,-149.08 258,-149.08 258,-142.92 258,-142.92 258,-139.83 261.08,-136.75 264.17,-136.75 264.17,-136.75 316.58,-136.75 316.58,-136.75 319.67,-136.75 322.75,-139.83 322.75,-142.92 322.75,-142.92 322.75,-149.08 322.75,-149.08 322.75,-152.17 319.67,-155.25 316.58,-155.25"/>
<text text-anchor="start" x="266" y="-142.7" font-family="Helvetica,sans-Serif" font-size="9.00">Controller.js</text>
</a>
</g>
</g>
<!-- src/js/application/Application.js&#45;&gt;src/js/controller/Controller.js -->
<g id="edge1" class="edge">
<title>src/js/application/Application.js&#45;&gt;src/js/controller/Controller.js</title>
<path fill="none" stroke="#000000" stroke-width="2" stroke-opacity="0.200000" d="M186.98,-57.91C194.86,-60.3 202.57,-64.08 208.25,-70 225.34,-87.81 204.47,-105.89 221.25,-124 228.58,-131.91 238.76,-136.98 249.02,-140.23"/>
<polygon fill="#000000" fill-opacity="0.200000" stroke="#000000" stroke-width="2" stroke-opacity="0.200000" points="248.33,-142.22 254.67,-141.77 249.43,-138.17 248.33,-142.22"/>
</g>
<!-- src/js/application/ApplicationConfiguration.js -->
<g id="node3" class="node">
<title>src/js/application/ApplicationConfiguration.js</title>
<g id="a_node3"><a xlink:href="src/js/application/ApplicationConfiguration.js" xlink:title="ApplicationConfiguration.js">
<path fill="#ffffcc" stroke="black" d="M347.33,-50.25C347.33,-50.25 233.42,-50.25 233.42,-50.25 230.33,-50.25 227.25,-47.17 227.25,-44.08 227.25,-44.08 227.25,-37.92 227.25,-37.92 227.25,-34.83 230.33,-31.75 233.42,-31.75 233.42,-31.75 347.33,-31.75 347.33,-31.75 350.42,-31.75 353.5,-34.83 353.5,-37.92 353.5,-37.92 353.5,-44.08 353.5,-44.08 353.5,-47.17 350.42,-50.25 347.33,-50.25"/>
<text text-anchor="start" x="235.25" y="-37.7" font-family="Helvetica,sans-Serif" font-size="9.00">ApplicationConfiguration.js</text>
</a>
</g>
</g>
<!-- src/js/application/Application.js&#45;&gt;src/js/application/ApplicationConfiguration.js -->
<g id="edge2" class="edge">
<title>src/js/application/Application.js&#45;&gt;src/js/application/ApplicationConfiguration.js</title>
<path fill="none" stroke="#000000" stroke-width="2" stroke-opacity="0.200000" d="M186.76,-50.72C196.41,-49.81 207.26,-48.78 218.19,-47.74"/>
<polygon fill="#000000" fill-opacity="0.200000" stroke="#000000" stroke-width="2" stroke-opacity="0.200000" points="218.17,-49.85 223.95,-47.2 217.78,-45.67 218.17,-49.85"/>
</g>
<!-- src/js/application/ApplicationLogger.js -->
<g id="node4" class="node">
<title>src/js/application/ApplicationLogger.js</title>
<g id="a_node4"><a xlink:href="src/js/application/ApplicationLogger.js" xlink:title="ApplicationLogger.js">
<path fill="#ffffcc" stroke="black" d="M465.58,-72.25C465.58,-72.25 378.67,-72.25 378.67,-72.25 375.58,-72.25 372.5,-69.17 372.5,-66.08 372.5,-66.08 372.5,-59.92 372.5,-59.92 372.5,-56.83 375.58,-53.75 378.67,-53.75 378.67,-53.75 465.58,-53.75 465.58,-53.75 468.67,-53.75 471.75,-56.83 471.75,-59.92 471.75,-59.92 471.75,-66.08 471.75,-66.08 471.75,-69.17 468.67,-72.25 465.58,-72.25"/>
<text text-anchor="start" x="380.5" y="-59.7" font-family="Helvetica,sans-Serif" font-size="9.00">ApplicationLogger.js</text>
</a>
</g>
</g>
<!-- src/js/application/Application.js&#45;&gt;src/js/application/ApplicationLogger.js -->
<g id="edge3" class="edge">
<title>src/js/application/Application.js&#45;&gt;src/js/application/ApplicationLogger.js</title>
<path fill="none" stroke="#000000" stroke-width="2" stroke-opacity="0.200000" d="M186.74,-55.16C231.37,-56.65 309.6,-59.27 363.32,-61.07"/>
<polygon fill="#000000" fill-opacity="0.200000" stroke="#000000" stroke-width="2" stroke-opacity="0.200000" points="362.96,-63.16 369.03,-61.26 363.1,-58.96 362.96,-63.16"/>
</g>
<!-- src/js/controller/Controller.js&#45;&gt;src/js/application/ApplicationLogger.js -->
<g id="edge6" class="edge">
<title>src/js/controller/Controller.js&#45;&gt;src/js/application/ApplicationLogger.js</title>
<path fill="none" stroke="#000000" stroke-width="2" stroke-opacity="0.200000" d="M323.22,-139.05C335.14,-135.61 348.46,-130.72 359.5,-124 378.82,-112.25 396.68,-93.29 408.14,-79.63"/>
<polygon fill="#000000" fill-opacity="0.200000" stroke="#000000" stroke-width="2" stroke-opacity="0.200000" points="409.75,-80.98 411.91,-75.01 406.49,-78.33 409.75,-80.98"/>
</g>
<!-- src/js/application/ApplicationConfiguration.js&#45;&gt;src/js/application/ApplicationLogger.js -->
<g id="edge4" class="edge">
<title>src/js/application/ApplicationConfiguration.js&#45;&gt;src/js/application/ApplicationLogger.js</title>
<path fill="none" stroke="#000000" stroke-width="2" stroke-opacity="0.200000" d="M348.66,-50.71C353.58,-51.55 358.57,-52.39 363.49,-53.23"/>
<polygon fill="#000000" fill-opacity="0.200000" stroke="#000000" stroke-width="2" stroke-opacity="0.200000" points="363.02,-55.28 369.28,-54.21 363.72,-51.14 363.02,-55.28"/>
</g>
<!-- src/js/application/ApplicationDispatcher.js -->
<g id="node5" class="node">
<title>src/js/application/ApplicationDispatcher.js</title>
<g id="a_node5"><a xlink:href="src/js/application/ApplicationDispatcher.js" xlink:title="ApplicationDispatcher.js">
<path fill="#ffffcc" stroke="black" d="M202.08,-94.25C202.08,-94.25 100.17,-94.25 100.17,-94.25 97.08,-94.25 94,-91.17 94,-88.08 94,-88.08 94,-81.92 94,-81.92 94,-78.83 97.08,-75.75 100.17,-75.75 100.17,-75.75 202.08,-75.75 202.08,-75.75 205.17,-75.75 208.25,-78.83 208.25,-81.92 208.25,-81.92 208.25,-88.08 208.25,-88.08 208.25,-91.17 205.17,-94.25 202.08,-94.25"/>
<text text-anchor="start" x="102" y="-81.7" font-family="Helvetica,sans-Serif" font-size="9.00">ApplicationDispatcher.js</text>
</a>
</g>
</g>
<!-- src/js/application/ApplicationDispatcherEvent.js -->
<g id="node6" class="node">
<title>src/js/application/ApplicationDispatcherEvent.js</title>
<g id="a_node6"><a xlink:href="src/js/application/ApplicationDispatcherEvent.js" xlink:title="ApplicationDispatcherEvent.js">
<path fill="#ffffcc" stroke="black" d="M353.33,-94.25C353.33,-94.25 227.42,-94.25 227.42,-94.25 224.33,-94.25 221.25,-91.17 221.25,-88.08 221.25,-88.08 221.25,-81.92 221.25,-81.92 221.25,-78.83 224.33,-75.75 227.42,-75.75 227.42,-75.75 353.33,-75.75 353.33,-75.75 356.42,-75.75 359.5,-78.83 359.5,-81.92 359.5,-81.92 359.5,-88.08 359.5,-88.08 359.5,-91.17 356.42,-94.25 353.33,-94.25"/>
<text text-anchor="start" x="229.25" y="-81.7" font-family="Helvetica,sans-Serif" font-size="9.00">ApplicationDispatcherEvent.js</text>
</a>
</g>
</g>
<!-- src/js/application/ApplicationDispatcher.js&#45;&gt;src/js/application/ApplicationDispatcherEvent.js -->
<g id="edge5" class="edge">
<title>src/js/application/ApplicationDispatcher.js&#45;&gt;src/js/application/ApplicationDispatcherEvent.js</title>
<path fill="none" stroke="#000000" stroke-width="2" stroke-opacity="0.200000" d="M208.74,-85C209.86,-85 210.99,-85 212.12,-85"/>
<polygon fill="#000000" fill-opacity="0.200000" stroke="#000000" stroke-width="2" stroke-opacity="0.200000" points="211.79,-87.1 217.79,-85 211.79,-82.9 211.79,-87.1"/>
</g>
<!-- src/js/index.js -->
<g id="node7" class="node">
<title>src/js/index.js</title>
<g id="a_node7"><a xlink:href="src/js/index.js" xlink:title="index.js">
<path fill="#ffffcc" stroke="black" d="M71.83,-63.25C71.83,-63.25 30.17,-63.25 30.17,-63.25 27.08,-63.25 24,-60.17 24,-57.08 24,-57.08 24,-50.92 24,-50.92 24,-47.83 27.08,-44.75 30.17,-44.75 30.17,-44.75 71.83,-44.75 71.83,-44.75 74.92,-44.75 78,-47.83 78,-50.92 78,-50.92 78,-57.08 78,-57.08 78,-60.17 74.92,-63.25 71.83,-63.25"/>
<text text-anchor="start" x="35.25" y="-50.7" font-family="Helvetica,sans-Serif" font-size="9.00">index.js</text>
</a>
</g>
</g>
<!-- src/js/index.js&#45;&gt;src/js/application/Application.js -->
<g id="edge7" class="edge">
<title>src/js/index.js&#45;&gt;src/js/application/Application.js</title>
<path fill="none" stroke="#000000" stroke-width="2" stroke-opacity="0.200000" d="M78.3,-54C86.9,-54 96.7,-54 106.24,-54"/>
<polygon fill="#000000" fill-opacity="0.200000" stroke="#000000" stroke-width="2" stroke-opacity="0.200000" points="106.24,-56.1 112.24,-54 106.24,-51.9 106.24,-56.1"/>
</g>
</g>
</svg>
