<?xml version="1.0" encoding="UTF-8" standalone="no"?>
<!DOCTYPE svg PUBLIC "-//W3C//DTD SVG 1.1//EN"
 "http://www.w3.org/Graphics/SVG/1.1/DTD/svg11.dtd">
<!-- Generated by graphviz version 12.2.1 (20241206.2353)
 -->
<!-- Title: dependency&#45;cruiser output Pages: 1 -->
<svg width="698pt" height="1326pt"
 viewBox="0.00 0.00 697.75 1326.00" xmlns="http://www.w3.org/2000/svg" xmlns:xlink="http://www.w3.org/1999/xlink">
<g id="graph0" class="graph" transform="scale(1 1) rotate(0) translate(4 1322)">
<title>dependency&#45;cruiser output</title>
<polygon fill="white" stroke="none" points="-4,4 -4,-1322 693.75,-1322 693.75,4 -4,4"/>
<g id="clust1" class="cluster">
<title>cluster_src</title>
<path fill="#ffffff" stroke="black" stroke-width="2" d="M20,-8C20,-8 669.75,-8 669.75,-8 675.75,-8 681.75,-14 681.75,-20 681.75,-20 681.75,-1298 681.75,-1298 681.75,-1304 675.75,-1310 669.75,-1310 669.75,-1310 20,-1310 20,-1310 14,-1310 8,-1304 8,-1298 8,-1298 8,-20 8,-20 8,-14 14,-8 20,-8"/>
<text text-anchor="middle" x="344.88" y="-1297.45" font-family="Helvetica,sans-Serif" font-weight="bold" font-size="9.00">src</text>
</g>
<g id="clust2" class="cluster">
<title>cluster_src/js</title>
<path fill="#ffffff" stroke="black" stroke-width="2" d="M28,-16C28,-16 661.75,-16 661.75,-16 667.75,-16 673.75,-22 673.75,-28 673.75,-28 673.75,-1271 673.75,-1271 673.75,-1277 667.75,-1283 661.75,-1283 661.75,-1283 28,-1283 28,-1283 22,-1283 16,-1277 16,-1271 16,-1271 16,-28 16,-28 16,-22 22,-16 28,-16"/>
<text text-anchor="middle" x="344.88" y="-1270.45" font-family="Helvetica,sans-Serif" font-weight="bold" font-size="9.00">js</text>
</g>
<g id="clust3" class="cluster">
<title>cluster_src/js/application</title>
<path fill="#ffffff" stroke="black" stroke-width="2" d="M126.25,-30C126.25,-30 464.12,-30 464.12,-30 470.12,-30 476.12,-36 476.12,-42 476.12,-42 476.12,-85 476.12,-85 476.12,-91 470.12,-97 464.12,-97 464.12,-97 126.25,-97 126.25,-97 120.25,-97 114.25,-91 114.25,-85 114.25,-85 114.25,-42 114.25,-42 114.25,-36 120.25,-30 126.25,-30"/>
<text text-anchor="middle" x="295.19" y="-84.45" font-family="Helvetica,sans-Serif" font-weight="bold" font-size="9.00">application</text>
</g>
<g id="clust4" class="cluster">
<title>cluster_src/js/controller</title>
<path fill="#ffffff" stroke="black" stroke-width="2" d="M36,-96C36,-96 92.75,-96 92.75,-96 98.75,-96 104.75,-102 104.75,-108 104.75,-108 104.75,-137 104.75,-137 104.75,-143 98.75,-149 92.75,-149 92.75,-149 36,-149 36,-149 30,-149 24,-143 24,-137 24,-137 24,-108 24,-108 24,-102 30,-96 36,-96"/>
<text text-anchor="middle" x="64.38" y="-136.45" font-family="Helvetica,sans-Serif" font-weight="bold" font-size="9.00">controller</text>
</g>
<g id="clust5" class="cluster">
<title>cluster_src/js/dispatcher</title>
<path fill="#ffffff" stroke="black" stroke-width="2" d="M365.38,-1054C365.38,-1054 645.5,-1054 645.5,-1054 651.5,-1054 657.5,-1060 657.5,-1066 657.5,-1066 657.5,-1095 657.5,-1095 657.5,-1101 651.5,-1107 645.5,-1107 645.5,-1107 365.38,-1107 365.38,-1107 359.38,-1107 353.38,-1101 353.38,-1095 353.38,-1095 353.38,-1066 353.38,-1066 353.38,-1060 359.38,-1054 365.38,-1054"/>
<text text-anchor="middle" x="505.44" y="-1094.45" font-family="Helvetica,sans-Serif" font-weight="bold" font-size="9.00">dispatcher</text>
</g>
<g id="clust6" class="cluster">
<title>cluster_src/js/ui</title>
<path fill="#ffffff" stroke="black" stroke-width="2" d="M124.75,-1046C124.75,-1046 312.62,-1046 312.62,-1046 318.62,-1046 324.62,-1052 324.62,-1058 324.62,-1058 324.62,-1244 324.62,-1244 324.62,-1250 318.62,-1256 312.62,-1256 312.62,-1256 124.75,-1256 124.75,-1256 118.75,-1256 112.75,-1250 112.75,-1244 112.75,-1244 112.75,-1058 112.75,-1058 112.75,-1052 118.75,-1046 124.75,-1046"/>
<text text-anchor="middle" x="218.69" y="-1243.45" font-family="Helvetica,sans-Serif" font-weight="bold" font-size="9.00">ui</text>
</g>
<g id="clust7" class="cluster">
<title>cluster_src/js/ui/map</title>
<path fill="#ffffff" stroke="black" stroke-width="2" d="M237,-1054C237,-1054 304.25,-1054 304.25,-1054 310.25,-1054 316.25,-1060 316.25,-1066 316.25,-1066 316.25,-1095 316.25,-1095 316.25,-1101 310.25,-1107 304.25,-1107 304.25,-1107 237,-1107 237,-1107 231,-1107 225,-1101 225,-1095 225,-1095 225,-1066 225,-1066 225,-1060 231,-1054 237,-1054"/>
<text text-anchor="middle" x="270.62" y="-1094.45" font-family="Helvetica,sans-Serif" font-weight="bold" font-size="9.00">map</text>
</g>
<g id="clust8" class="cluster">
<title>cluster_src/js/ui/path</title>
<path fill="#ffffff" stroke="black" stroke-width="2" d="M236.62,-1115C236.62,-1115 304.62,-1115 304.62,-1115 310.62,-1115 316.62,-1121 316.62,-1127 316.62,-1127 316.62,-1156 316.62,-1156 316.62,-1162 310.62,-1168 304.62,-1168 304.62,-1168 236.62,-1168 236.62,-1168 230.62,-1168 224.62,-1162 224.62,-1156 224.62,-1156 224.62,-1127 224.62,-1127 224.62,-1121 230.62,-1115 236.62,-1115"/>
<text text-anchor="middle" x="270.62" y="-1155.45" font-family="Helvetica,sans-Serif" font-weight="bold" font-size="9.00">path</text>
</g>
<g id="clust9" class="cluster">
<title>cluster_src/js/ui/wall</title>
<path fill="#ffffff" stroke="black" stroke-width="2" d="M237,-1176C237,-1176 304.25,-1176 304.25,-1176 310.25,-1176 316.25,-1182 316.25,-1188 316.25,-1188 316.25,-1217 316.25,-1217 316.25,-1223 310.25,-1229 304.25,-1229 304.25,-1229 237,-1229 237,-1229 231,-1229 225,-1223 225,-1217 225,-1217 225,-1188 225,-1188 225,-1182 231,-1176 237,-1176"/>
<text text-anchor="middle" x="270.62" y="-1216.45" font-family="Helvetica,sans-Serif" font-weight="bold" font-size="9.00">wall</text>
</g>
<g id="clust10" class="cluster">
<title>cluster_src/js/view</title>
<path fill="#ffffff" stroke="black" stroke-width="2" d="M134.62,-106C134.62,-106 653.75,-106 653.75,-106 659.75,-106 665.75,-112 665.75,-118 665.75,-118 665.75,-1026 665.75,-1026 665.75,-1032 659.75,-1038 653.75,-1038 653.75,-1038 134.62,-1038 134.62,-1038 128.62,-1038 122.62,-1032 122.62,-1026 122.62,-1026 122.62,-118 122.62,-118 122.62,-112 128.62,-106 134.62,-106"/>
<text text-anchor="middle" x="394.19" y="-1025.45" font-family="Helvetica,sans-Serif" font-weight="bold" font-size="9.00">view</text>
</g>
<g id="clust11" class="cluster">
<title>cluster_src/js/view/camera</title>
<path fill="#ffffff" stroke="black" stroke-width="2" d="M225.75,-175C225.75,-175 491.25,-175 491.25,-175 497.25,-175 503.25,-181 503.25,-187 503.25,-187 503.25,-436 503.25,-436 503.25,-442 497.25,-448 491.25,-448 491.25,-448 225.75,-448 225.75,-448 219.75,-448 213.75,-442 213.75,-436 213.75,-436 213.75,-187 213.75,-187 213.75,-181 219.75,-175 225.75,-175"/>
<text text-anchor="middle" x="358.5" y="-435.45" font-family="Helvetica,sans-Serif" font-weight="bold" font-size="9.00">camera</text>
</g>
<g id="clust12" class="cluster">
<title>cluster_src/js/view/camera/keyboard</title>
<path fill="#ffffff" stroke="black" stroke-width="2" d="M353.75,-183C353.75,-183 483.25,-183 483.25,-183 489.25,-183 495.25,-189 495.25,-195 495.25,-195 495.25,-224 495.25,-224 495.25,-230 489.25,-236 483.25,-236 483.25,-236 353.75,-236 353.75,-236 347.75,-236 341.75,-230 341.75,-224 341.75,-224 341.75,-195 341.75,-195 341.75,-189 347.75,-183 353.75,-183"/>
<text text-anchor="middle" x="418.5" y="-223.45" font-family="Helvetica,sans-Serif" font-weight="bold" font-size="9.00">keyboard</text>
</g>
<g id="clust13" class="cluster">
<title>cluster_src/js/view/camera/module</title>
<path fill="#ffffff" stroke="black" stroke-width="2" d="M363.5,-244C363.5,-244 473.5,-244 473.5,-244 479.5,-244 485.5,-250 485.5,-256 485.5,-256 485.5,-409 485.5,-409 485.5,-415 479.5,-421 473.5,-421 473.5,-421 363.5,-421 363.5,-421 357.5,-421 351.5,-415 351.5,-409 351.5,-409 351.5,-256 351.5,-256 351.5,-250 357.5,-244 363.5,-244"/>
<text text-anchor="middle" x="418.5" y="-408.45" font-family="Helvetica,sans-Serif" font-weight="bold" font-size="9.00">module</text>
</g>
<g id="clust14" class="cluster">
<title>cluster_src/js/view/content</title>
<path fill="#ffffff" stroke="black" stroke-width="2" d="M224.5,-456C224.5,-456 645.75,-456 645.75,-456 651.75,-456 657.75,-462 657.75,-468 657.75,-468 657.75,-877 657.75,-877 657.75,-883 651.75,-889 645.75,-889 645.75,-889 224.5,-889 224.5,-889 218.5,-889 212.5,-883 212.5,-877 212.5,-877 212.5,-468 212.5,-468 212.5,-462 218.5,-456 224.5,-456"/>
<text text-anchor="middle" x="435.12" y="-876.45" font-family="Helvetica,sans-Serif" font-weight="bold" font-size="9.00">content</text>
</g>
<g id="clust15" class="cluster">
<title>cluster_src/js/view/content/cursor</title>
<path fill="#ffffff" stroke="black" stroke-width="2" d="M232.5,-502C232.5,-502 308.75,-502 308.75,-502 314.75,-502 320.75,-508 320.75,-514 320.75,-514 320.75,-543 320.75,-543 320.75,-549 314.75,-555 308.75,-555 308.75,-555 232.5,-555 232.5,-555 226.5,-555 220.5,-549 220.5,-543 220.5,-543 220.5,-514 220.5,-514 220.5,-508 226.5,-502 232.5,-502"/>
<text text-anchor="middle" x="270.62" y="-542.45" font-family="Helvetica,sans-Serif" font-weight="bold" font-size="9.00">cursor</text>
</g>
<g id="clust16" class="cluster">
<title>cluster_src/js/view/content/intersection</title>
<path fill="#ffffff" stroke="black" stroke-width="2" d="M370.25,-464C370.25,-464 466.75,-464 466.75,-464 472.75,-464 478.75,-470 478.75,-476 478.75,-476 478.75,-505 478.75,-505 478.75,-511 472.75,-517 466.75,-517 466.75,-517 370.25,-517 370.25,-517 364.25,-517 358.25,-511 358.25,-505 358.25,-505 358.25,-476 358.25,-476 358.25,-470 364.25,-464 370.25,-464"/>
<text text-anchor="middle" x="418.5" y="-504.45" font-family="Helvetica,sans-Serif" font-weight="bold" font-size="9.00">intersection</text>
</g>
<g id="clust17" class="cluster">
<title>cluster_src/js/view/content/map</title>
<path fill="#ffffff" stroke="black" stroke-width="2" d="M384.88,-525C384.88,-525 452.12,-525 452.12,-525 458.12,-525 464.12,-531 464.12,-537 464.12,-537 464.12,-566 464.12,-566 464.12,-572 458.12,-578 452.12,-578 452.12,-578 384.88,-578 384.88,-578 378.88,-578 372.88,-572 372.88,-566 372.88,-566 372.88,-537 372.88,-537 372.88,-531 378.88,-525 384.88,-525"/>
<text text-anchor="middle" x="418.5" y="-565.45" font-family="Helvetica,sans-Serif" font-weight="bold" font-size="9.00">map</text>
</g>
<g id="clust18" class="cluster">
<title>cluster_src/js/view/content/path</title>
<path fill="#ffffff" stroke="black" stroke-width="2" d="M384.5,-586C384.5,-586 632.88,-586 632.88,-586 638.88,-586 644.88,-592 644.88,-598 644.88,-598 644.88,-693 644.88,-693 644.88,-699 638.88,-705 632.88,-705 632.88,-705 384.5,-705 384.5,-705 378.5,-705 372.5,-699 372.5,-693 372.5,-693 372.5,-598 372.5,-598 372.5,-592 378.5,-586 384.5,-586"/>
<text text-anchor="middle" x="508.69" y="-692.45" font-family="Helvetica,sans-Serif" font-weight="bold" font-size="9.00">path</text>
</g>
<g id="clust19" class="cluster">
<title>cluster_src/js/view/content/path/path</title>
<path fill="#ffffff" stroke="black" stroke-width="2" d="M535.88,-594C535.88,-594 624.88,-594 624.88,-594 630.88,-594 636.88,-600 636.88,-606 636.88,-606 636.88,-666 636.88,-666 636.88,-672 630.88,-678 624.88,-678 624.88,-678 535.88,-678 535.88,-678 529.88,-678 523.88,-672 523.88,-666 523.88,-666 523.88,-606 523.88,-606 523.88,-600 529.88,-594 535.88,-594"/>
<text text-anchor="middle" x="580.38" y="-665.45" font-family="Helvetica,sans-Serif" font-weight="bold" font-size="9.00">path</text>
</g>
<g id="clust20" class="cluster">
<title>cluster_src/js/view/content/roof</title>
<path fill="#ffffff" stroke="black" stroke-width="2" d="M384.12,-713C384.12,-713 452.88,-713 452.88,-713 458.88,-713 464.88,-719 464.88,-725 464.88,-725 464.88,-754 464.88,-754 464.88,-760 458.88,-766 452.88,-766 452.88,-766 384.12,-766 384.12,-766 378.12,-766 372.12,-760 372.12,-754 372.12,-754 372.12,-725 372.12,-725 372.12,-719 378.12,-713 384.12,-713"/>
<text text-anchor="middle" x="418.5" y="-753.45" font-family="Helvetica,sans-Serif" font-weight="bold" font-size="9.00">roof</text>
</g>
<g id="clust21" class="cluster">
<title>cluster_src/js/view/content/wall</title>
<path fill="#ffffff" stroke="black" stroke-width="2" d="M384.88,-774C384.88,-774 637.75,-774 637.75,-774 643.75,-774 649.75,-780 649.75,-786 649.75,-786 649.75,-850 649.75,-850 649.75,-856 643.75,-862 637.75,-862 637.75,-862 384.88,-862 384.88,-862 378.88,-862 372.88,-856 372.88,-850 372.88,-850 372.88,-786 372.88,-786 372.88,-780 378.88,-774 384.88,-774"/>
<text text-anchor="middle" x="511.31" y="-849.45" font-family="Helvetica,sans-Serif" font-weight="bold" font-size="9.00">wall</text>
</g>
<g id="clust22" class="cluster">
<title>cluster_src/js/view/content/wall/wall</title>
<path fill="#ffffff" stroke="black" stroke-width="2" d="M531,-782C531,-782 629.75,-782 629.75,-782 635.75,-782 641.75,-788 641.75,-794 641.75,-794 641.75,-823 641.75,-823 641.75,-829 635.75,-835 629.75,-835 629.75,-835 531,-835 531,-835 525,-835 519,-829 519,-823 519,-823 519,-794 519,-794 519,-788 525,-782 531,-782"/>
<text text-anchor="middle" x="580.38" y="-822.45" font-family="Helvetica,sans-Serif" font-weight="bold" font-size="9.00">wall</text>
</g>
<g id="clust23" class="cluster">
<title>cluster_src/js/view/interaction</title>
<path fill="#ffffff" stroke="black" stroke-width="2" d="M220.88,-897C220.88,-897 320.38,-897 320.38,-897 326.38,-897 332.38,-903 332.38,-909 332.38,-909 332.38,-938 332.38,-938 332.38,-944 326.38,-950 320.38,-950 320.38,-950 220.88,-950 220.88,-950 214.88,-950 208.88,-944 208.88,-938 208.88,-938 208.88,-909 208.88,-909 208.88,-903 214.88,-897 220.88,-897"/>
<text text-anchor="middle" x="270.62" y="-937.45" font-family="Helvetica,sans-Serif" font-weight="bold" font-size="9.00">interaction</text>
</g>
<g id="clust24" class="cluster">
<title>cluster_src/js/view/light</title>
<path fill="#ffffff" stroke="black" stroke-width="2" d="M232.12,-114C232.12,-114 309.12,-114 309.12,-114 315.12,-114 321.12,-120 321.12,-126 321.12,-126 321.12,-155 321.12,-155 321.12,-161 315.12,-167 309.12,-167 309.12,-167 232.12,-167 232.12,-167 226.12,-167 220.12,-161 220.12,-155 220.12,-155 220.12,-126 220.12,-126 220.12,-120 226.12,-114 232.12,-114"/>
<text text-anchor="middle" x="270.62" y="-154.45" font-family="Helvetica,sans-Serif" font-weight="bold" font-size="9.00">light</text>
</g>
<g id="clust25" class="cluster">
<title>cluster_src/js/view/render</title>
<path fill="#ffffff" stroke="black" stroke-width="2" d="M226.88,-958C226.88,-958 314.38,-958 314.38,-958 320.38,-958 326.38,-964 326.38,-970 326.38,-970 326.38,-999 326.38,-999 326.38,-1005 320.38,-1011 314.38,-1011 314.38,-1011 226.88,-1011 226.88,-1011 220.88,-1011 214.88,-1005 214.88,-999 214.88,-999 214.88,-970 214.88,-970 214.88,-964 220.88,-958 226.88,-958"/>
<text text-anchor="middle" x="270.62" y="-998.45" font-family="Helvetica,sans-Serif" font-weight="bold" font-size="9.00">render</text>
</g>
<!-- src/js/application/Application.js -->
<g id="node1" class="node">
<title>src/js/application/Application.js</title>
<g id="a_node1"><a xlink:href="src/js/application/Application.js" xlink:title="Application.js">
<path fill="#ffffcc" stroke="black" d="M186.83,-70.25C186.83,-70.25 128.42,-70.25 128.42,-70.25 125.33,-70.25 122.25,-67.17 122.25,-64.08 122.25,-64.08 122.25,-57.92 122.25,-57.92 122.25,-54.83 125.33,-51.75 128.42,-51.75 128.42,-51.75 186.83,-51.75 186.83,-51.75 189.92,-51.75 193,-54.83 193,-57.92 193,-57.92 193,-64.08 193,-64.08 193,-67.17 189.92,-70.25 186.83,-70.25"/>
<text text-anchor="start" x="130.25" y="-57.7" font-family="Helvetica,sans-Serif" font-size="9.00">Application.js</text>
</a>
</g>
</g>
<!-- src/js/controller/Controller.js -->
<g id="node2" class="node">
<title>src/js/controller/Controller.js</title>
<g id="a_node2"><a xlink:href="src/js/controller/Controller.js" xlink:title="Controller.js">
<path fill="#ffffcc" stroke="black" d="M90.58,-122.25C90.58,-122.25 38.17,-122.25 38.17,-122.25 35.08,-122.25 32,-119.17 32,-116.08 32,-116.08 32,-109.92 32,-109.92 32,-106.83 35.08,-103.75 38.17,-103.75 38.17,-103.75 90.58,-103.75 90.58,-103.75 93.67,-103.75 96.75,-106.83 96.75,-109.92 96.75,-109.92 96.75,-116.08 96.75,-116.08 96.75,-119.17 93.67,-122.25 90.58,-122.25"/>
<text text-anchor="start" x="40" y="-109.7" font-family="Helvetica,sans-Serif" font-size="9.00">Controller.js</text>
</a>
</g>
</g>
<!-- src/js/application/Application.js&#45;&gt;src/js/controller/Controller.js -->
<g id="edge1" class="edge">
<title>src/js/application/Application.js&#45;&gt;src/js/controller/Controller.js</title>
<path fill="none" stroke="#000000" stroke-width="2" stroke-opacity="0.200000" d="M146.19,-70.48C137.36,-78.14 123.96,-88.93 104.99,-99.39"/>
<polygon fill="#000000" fill-opacity="0.200000" stroke="#000000" stroke-width="2" stroke-opacity="0.200000" points="104.14,-97.47 99.81,-102.12 106.1,-101.18 104.14,-97.47"/>
</g>
<!-- src/js/application/ApplicationConfiguration.js -->
<g id="node3" class="node">
<title>src/js/application/ApplicationConfiguration.js</title>
<g id="a_node3"><a xlink:href="src/js/application/ApplicationConfiguration.js" xlink:title="ApplicationConfiguration.js">
<path fill="#ffffcc" stroke="black" d="M327.58,-70.25C327.58,-70.25 213.67,-70.25 213.67,-70.25 210.58,-70.25 207.5,-67.17 207.5,-64.08 207.5,-64.08 207.5,-57.92 207.5,-57.92 207.5,-54.83 210.58,-51.75 213.67,-51.75 213.67,-51.75 327.58,-51.75 327.58,-51.75 330.67,-51.75 333.75,-54.83 333.75,-57.92 333.75,-57.92 333.75,-64.08 333.75,-64.08 333.75,-67.17 330.67,-70.25 327.58,-70.25"/>
<text text-anchor="start" x="215.5" y="-57.7" font-family="Helvetica,sans-Serif" font-size="9.00">ApplicationConfiguration.js</text>
</a>
</g>
</g>
<!-- src/js/application/Application.js&#45;&gt;src/js/application/ApplicationConfiguration.js -->
<g id="edge2" class="edge">
<title>src/js/application/Application.js&#45;&gt;src/js/application/ApplicationConfiguration.js</title>
<path fill="none" stroke="#000000" stroke-width="2" stroke-opacity="0.200000" d="M193.44,-61C195.11,-61 196.81,-61 198.53,-61"/>
<polygon fill="#000000" fill-opacity="0.200000" stroke="#000000" stroke-width="2" stroke-opacity="0.200000" points="198.25,-63.1 204.25,-61 198.25,-58.9 198.25,-63.1"/>
</g>
<!-- src/js/application/ApplicationLogger.js -->
<g id="node4" class="node">
<title>src/js/application/ApplicationLogger.js</title>
<g id="a_node4"><a xlink:href="src/js/application/ApplicationLogger.js" xlink:title="ApplicationLogger.js">
<path fill="#ffffcc" stroke="black" d="M461.96,-70.25C461.96,-70.25 375.04,-70.25 375.04,-70.25 371.96,-70.25 368.88,-67.17 368.88,-64.08 368.88,-64.08 368.88,-57.92 368.88,-57.92 368.88,-54.83 371.96,-51.75 375.04,-51.75 375.04,-51.75 461.96,-51.75 461.96,-51.75 465.04,-51.75 468.12,-54.83 468.12,-57.92 468.12,-57.92 468.12,-64.08 468.12,-64.08 468.12,-67.17 465.04,-70.25 461.96,-70.25"/>
<text text-anchor="start" x="376.88" y="-57.7" font-family="Helvetica,sans-Serif" font-size="9.00">ApplicationLogger.js</text>
</a>
</g>
</g>
<!-- src/js/application/Application.js&#45;&gt;src/js/application/ApplicationLogger.js -->
<g id="edge3" class="edge">
<title>src/js/application/Application.js&#45;&gt;src/js/application/ApplicationLogger.js</title>
<path fill="none" stroke="#000000" stroke-width="2" stroke-opacity="0.200000" d="M185.18,-51.28C192.33,-49.1 200.13,-47.11 207.5,-46 262.99,-37.68 277.86,-41.03 333.75,-46 343.21,-46.84 353.21,-48.21 362.87,-49.78"/>
<polygon fill="#000000" fill-opacity="0.200000" stroke="#000000" stroke-width="2" stroke-opacity="0.200000" points="362.37,-51.82 368.64,-50.76 363.08,-47.68 362.37,-51.82"/>
</g>
<!-- src/js/controller/Controller.js&#45;&gt;src/js/application/ApplicationLogger.js -->
<g id="edge5" class="edge">
<title>src/js/controller/Controller.js&#45;&gt;src/js/application/ApplicationLogger.js</title>
<path fill="none" stroke="#000000" stroke-width="2" stroke-opacity="0.200000" d="M97.09,-106.22C99.98,-104.58 102.62,-102.53 104.75,-100 120.37,-81.44 95.06,-62.61 112.75,-46 188.94,25.54 328.7,-22.1 388.79,-47.71"/>
<polygon fill="#000000" fill-opacity="0.200000" stroke="#000000" stroke-width="2" stroke-opacity="0.200000" points="387.95,-49.63 394.29,-50.1 389.63,-45.78 387.95,-49.63"/>
</g>
<!-- src/js/ui/UIController.js -->
<g id="node5" class="node">
<title>src/js/ui/UIController.js</title>
<g id="a_node5"><a xlink:href="src/js/ui/UIController.js" xlink:title="UIController.js">
<path fill="#ffffcc" stroke="black" d="M188.33,-1076.25C188.33,-1076.25 126.92,-1076.25 126.92,-1076.25 123.83,-1076.25 120.75,-1073.17 120.75,-1070.08 120.75,-1070.08 120.75,-1063.92 120.75,-1063.92 120.75,-1060.83 123.83,-1057.75 126.92,-1057.75 126.92,-1057.75 188.33,-1057.75 188.33,-1057.75 191.42,-1057.75 194.5,-1060.83 194.5,-1063.92 194.5,-1063.92 194.5,-1070.08 194.5,-1070.08 194.5,-1073.17 191.42,-1076.25 188.33,-1076.25"/>
<text text-anchor="start" x="128.75" y="-1063.7" font-family="Helvetica,sans-Serif" font-size="9.00">UIController.js</text>
</a>
</g>
</g>
<!-- src/js/controller/Controller.js&#45;&gt;src/js/ui/UIController.js -->
<g id="edge6" class="edge">
<title>src/js/controller/Controller.js&#45;&gt;src/js/ui/UIController.js</title>
<path fill="none" stroke="#000000" stroke-width="2" stroke-opacity="0.200000" d="M65.32,-122.74C64.85,-216.57 62.75,-958.24 112.75,-1041 115.51,-1045.56 119.39,-1049.42 123.73,-1052.65"/>
<polygon fill="#000000" fill-opacity="0.200000" stroke="#000000" stroke-width="2" stroke-opacity="0.200000" points="122.59,-1054.41 128.77,-1055.87 124.85,-1050.87 122.59,-1054.41"/>
</g>
<!-- src/js/view/View.js -->
<g id="node6" class="node">
<title>src/js/view/View.js</title>
<g id="a_node6"><a xlink:href="src/js/view/View.js" xlink:title="View.js">
<path fill="#ffffcc" stroke="black" d="M178.46,-220.25C178.46,-220.25 136.79,-220.25 136.79,-220.25 133.71,-220.25 130.62,-217.17 130.62,-214.08 130.62,-214.08 130.62,-207.92 130.62,-207.92 130.62,-204.83 133.71,-201.75 136.79,-201.75 136.79,-201.75 178.46,-201.75 178.46,-201.75 181.54,-201.75 184.62,-204.83 184.62,-207.92 184.62,-207.92 184.62,-214.08 184.62,-214.08 184.62,-217.17 181.54,-220.25 178.46,-220.25"/>
<text text-anchor="start" x="143.38" y="-207.7" font-family="Helvetica,sans-Serif" font-size="9.00">View.js</text>
</a>
</g>
</g>
<!-- src/js/controller/Controller.js&#45;&gt;src/js/view/View.js -->
<g id="edge7" class="edge">
<title>src/js/controller/Controller.js&#45;&gt;src/js/view/View.js</title>
<path fill="none" stroke="#000000" stroke-width="2" stroke-opacity="0.200000" d="M74.12,-122.4C89.75,-139.18 122.63,-174.49 141.83,-195.11"/>
<polygon fill="#000000" fill-opacity="0.200000" stroke="#000000" stroke-width="2" stroke-opacity="0.200000" points="140.08,-196.31 145.71,-199.27 143.15,-193.45 140.08,-196.31"/>
</g>
<!-- src/js/application/ApplicationConfiguration.js&#45;&gt;src/js/application/ApplicationLogger.js -->
<g id="edge4" class="edge">
<title>src/js/application/ApplicationConfiguration.js&#45;&gt;src/js/application/ApplicationLogger.js</title>
<path fill="none" stroke="#000000" stroke-width="2" stroke-opacity="0.200000" d="M333.91,-61C342.53,-61 351.36,-61 359.89,-61"/>
<polygon fill="#000000" fill-opacity="0.200000" stroke="#000000" stroke-width="2" stroke-opacity="0.200000" points="359.62,-63.1 365.62,-61 359.62,-58.9 359.62,-63.1"/>
</g>
<!-- src/js/ui/UIController.js&#45;&gt;src/js/application/ApplicationConfiguration.js -->
<g id="edge10" class="edge">
<title>src/js/ui/UIController.js&#45;&gt;src/js/application/ApplicationConfiguration.js</title>
<path fill="none" stroke="#000000" stroke-width="2" stroke-opacity="0.200000" d="M178.41,-1057.41C184.71,-1053.29 190.96,-1047.83 194.5,-1041 218.76,-994.25 179.77,-137.78 207.5,-93 212.39,-85.1 219.91,-79.07 228.05,-74.49"/>
<polygon fill="#000000" fill-opacity="0.200000" stroke="#000000" stroke-width="2" stroke-opacity="0.200000" points="228.52,-76.6 232.94,-72.03 226.64,-72.85 228.52,-76.6"/>
</g>
<!-- src/js/ui/UIController.js&#45;&gt;src/js/application/ApplicationLogger.js -->
<g id="edge11" class="edge">
<title>src/js/ui/UIController.js&#45;&gt;src/js/application/ApplicationLogger.js</title>
<path fill="none" stroke="#000000" stroke-width="2" stroke-opacity="0.200000" d="M178.41,-1057.41C184.71,-1053.29 190.96,-1047.83 194.5,-1041 206.4,-1018.07 190.74,-130.66 207.5,-111 225.98,-89.33 306.14,-95.98 333.75,-89 350.28,-84.82 368.24,-78.99 383.28,-73.73"/>
<polygon fill="#000000" fill-opacity="0.200000" stroke="#000000" stroke-width="2" stroke-opacity="0.200000" points="383.96,-75.72 388.92,-71.73 382.56,-71.76 383.96,-75.72"/>
</g>
<!-- src/js/ui/map/UIMenuMap.js -->
<g id="node10" class="node">
<title>src/js/ui/map/UIMenuMap.js</title>
<g id="a_node10"><a xlink:href="src/js/ui/map/UIMenuMap.js" xlink:title="UIMenuMap.js">
<path fill="#ffffcc" stroke="black" d="M302.08,-1080.25C302.08,-1080.25 239.17,-1080.25 239.17,-1080.25 236.08,-1080.25 233,-1077.17 233,-1074.08 233,-1074.08 233,-1067.92 233,-1067.92 233,-1064.83 236.08,-1061.75 239.17,-1061.75 239.17,-1061.75 302.08,-1061.75 302.08,-1061.75 305.17,-1061.75 308.25,-1064.83 308.25,-1067.92 308.25,-1067.92 308.25,-1074.08 308.25,-1074.08 308.25,-1077.17 305.17,-1080.25 302.08,-1080.25"/>
<text text-anchor="start" x="241" y="-1067.7" font-family="Helvetica,sans-Serif" font-size="9.00">UIMenuMap.js</text>
</a>
</g>
</g>
<!-- src/js/ui/UIController.js&#45;&gt;src/js/ui/map/UIMenuMap.js -->
<g id="edge12" class="edge">
<title>src/js/ui/UIController.js&#45;&gt;src/js/ui/map/UIMenuMap.js</title>
<path fill="none" stroke="#000000" stroke-width="2" stroke-opacity="0.200000" d="M194.97,-1068.31C204.26,-1068.64 214.38,-1069.01 224.07,-1069.36"/>
<polygon fill="#000000" fill-opacity="0.200000" stroke="#000000" stroke-width="2" stroke-opacity="0.200000" points="223.72,-1071.45 229.79,-1069.56 223.87,-1067.25 223.72,-1071.45"/>
</g>
<!-- src/js/ui/path/UIMenuPath.js -->
<g id="node11" class="node">
<title>src/js/ui/path/UIMenuPath.js</title>
<g id="a_node11"><a xlink:href="src/js/ui/path/UIMenuPath.js" xlink:title="UIMenuPath.js">
<path fill="#ffffcc" stroke="black" d="M302.46,-1141.25C302.46,-1141.25 238.79,-1141.25 238.79,-1141.25 235.71,-1141.25 232.62,-1138.17 232.62,-1135.08 232.62,-1135.08 232.62,-1128.92 232.62,-1128.92 232.62,-1125.83 235.71,-1122.75 238.79,-1122.75 238.79,-1122.75 302.46,-1122.75 302.46,-1122.75 305.54,-1122.75 308.62,-1125.83 308.62,-1128.92 308.62,-1128.92 308.62,-1135.08 308.62,-1135.08 308.62,-1138.17 305.54,-1141.25 302.46,-1141.25"/>
<text text-anchor="start" x="240.62" y="-1128.7" font-family="Helvetica,sans-Serif" font-size="9.00">UIMenuPath.js</text>
</a>
</g>
</g>
<!-- src/js/ui/UIController.js&#45;&gt;src/js/ui/path/UIMenuPath.js -->
<g id="edge13" class="edge">
<title>src/js/ui/UIController.js&#45;&gt;src/js/ui/path/UIMenuPath.js</title>
<path fill="none" stroke="#000000" stroke-width="2" stroke-opacity="0.200000" d="M167.51,-1076.74C176.71,-1086.34 191.91,-1100.84 207.5,-1110 213.4,-1113.46 219.93,-1116.51 226.47,-1119.14"/>
<polygon fill="#000000" fill-opacity="0.200000" stroke="#000000" stroke-width="2" stroke-opacity="0.200000" points="225.54,-1121.03 231.89,-1121.19 227.02,-1117.1 225.54,-1121.03"/>
</g>
<!-- src/js/ui/wall/UIMenuWall.js -->
<g id="node12" class="node">
<title>src/js/ui/wall/UIMenuWall.js</title>
<g id="a_node12"><a xlink:href="src/js/ui/wall/UIMenuWall.js" xlink:title="UIMenuWall.js">
<path fill="#ffffcc" stroke="black" d="M302.08,-1202.25C302.08,-1202.25 239.17,-1202.25 239.17,-1202.25 236.08,-1202.25 233,-1199.17 233,-1196.08 233,-1196.08 233,-1189.92 233,-1189.92 233,-1186.83 236.08,-1183.75 239.17,-1183.75 239.17,-1183.75 302.08,-1183.75 302.08,-1183.75 305.17,-1183.75 308.25,-1186.83 308.25,-1189.92 308.25,-1189.92 308.25,-1196.08 308.25,-1196.08 308.25,-1199.17 305.17,-1202.25 302.08,-1202.25"/>
<text text-anchor="start" x="241" y="-1189.7" font-family="Helvetica,sans-Serif" font-size="9.00">UIMenuWall.js</text>
</a>
</g>
</g>
<!-- src/js/ui/UIController.js&#45;&gt;src/js/ui/wall/UIMenuWall.js -->
<g id="edge14" class="edge">
<title>src/js/ui/UIController.js&#45;&gt;src/js/ui/wall/UIMenuWall.js</title>
<path fill="none" stroke="#000000" stroke-width="2" stroke-opacity="0.200000" d="M160.51,-1076.51C165,-1096.77 178.22,-1144.48 207.5,-1171 212.45,-1175.48 218.37,-1179.06 224.56,-1181.92"/>
<polygon fill="#000000" fill-opacity="0.200000" stroke="#000000" stroke-width="2" stroke-opacity="0.200000" points="223.35,-1183.7 229.7,-1184.03 224.94,-1179.81 223.35,-1183.7"/>
</g>
<!-- src/js/view/View.js&#45;&gt;src/js/application/ApplicationConfiguration.js -->
<g id="edge18" class="edge">
<title>src/js/view/View.js&#45;&gt;src/js/application/ApplicationConfiguration.js</title>
<path fill="none" stroke="#000000" stroke-width="2" stroke-opacity="0.200000" d="M161.62,-201.42C170.72,-172.56 198.02,-87.82 207.5,-79 208.97,-77.63 210.54,-76.37 212.18,-75.2"/>
<polygon fill="#000000" fill-opacity="0.200000" stroke="#000000" stroke-width="2" stroke-opacity="0.200000" points="213.13,-77.08 217.22,-72.21 210.99,-73.47 213.13,-77.08"/>
</g>
<!-- src/js/view/View.js&#45;&gt;src/js/application/ApplicationLogger.js -->
<g id="edge19" class="edge">
<title>src/js/view/View.js&#45;&gt;src/js/application/ApplicationLogger.js</title>
<path fill="none" stroke="#000000" stroke-width="2" stroke-opacity="0.200000" d="M159.46,-201.45C162,-178.57 171.83,-120.46 207.5,-93 229.93,-75.73 305.78,-80.39 333.75,-76 342.18,-74.68 351.06,-73.19 359.78,-71.68"/>
<polygon fill="#000000" fill-opacity="0.200000" stroke="#000000" stroke-width="2" stroke-opacity="0.200000" points="359.88,-73.79 365.42,-70.68 359.15,-69.65 359.88,-73.79"/>
</g>
<!-- src/js/view/camera/CameraController.js -->
<g id="node13" class="node">
<title>src/js/view/camera/CameraController.js</title>
<g id="a_node13"><a xlink:href="src/js/view/camera/CameraController.js" xlink:title="CameraController.js">
<path fill="#ffffcc" stroke="black" d="M313.33,-301.25C313.33,-301.25 227.92,-301.25 227.92,-301.25 224.83,-301.25 221.75,-298.17 221.75,-295.08 221.75,-295.08 221.75,-288.92 221.75,-288.92 221.75,-285.83 224.83,-282.75 227.92,-282.75 227.92,-282.75 313.33,-282.75 313.33,-282.75 316.42,-282.75 319.5,-285.83 319.5,-288.92 319.5,-288.92 319.5,-295.08 319.5,-295.08 319.5,-298.17 316.42,-301.25 313.33,-301.25"/>
<text text-anchor="start" x="229.75" y="-288.7" font-family="Helvetica,sans-Serif" font-size="9.00">CameraController.js</text>
</a>
</g>
</g>
<!-- src/js/view/View.js&#45;&gt;src/js/view/camera/CameraController.js -->
<g id="edge20" class="edge">
<title>src/js/view/View.js&#45;&gt;src/js/view/camera/CameraController.js</title>
<path fill="none" stroke="#000000" stroke-width="2" stroke-opacity="0.200000" d="M171.79,-220.61C190.99,-234.62 226.81,-260.76 249.37,-277.22"/>
<polygon fill="#000000" fill-opacity="0.200000" stroke="#000000" stroke-width="2" stroke-opacity="0.200000" points="247.94,-278.78 254.03,-280.62 250.42,-275.39 247.94,-278.78"/>
</g>
<!-- src/js/view/content/ContentController.js -->
<g id="node14" class="node">
<title>src/js/view/content/ContentController.js</title>
<g id="a_node14"><a xlink:href="src/js/view/content/ContentController.js" xlink:title="ContentController.js">
<path fill="#ffffcc" stroke="black" d="M312.96,-585.25C312.96,-585.25 228.29,-585.25 228.29,-585.25 225.21,-585.25 222.12,-582.17 222.12,-579.08 222.12,-579.08 222.12,-572.92 222.12,-572.92 222.12,-569.83 225.21,-566.75 228.29,-566.75 228.29,-566.75 312.96,-566.75 312.96,-566.75 316.04,-566.75 319.12,-569.83 319.12,-572.92 319.12,-572.92 319.12,-579.08 319.12,-579.08 319.12,-582.17 316.04,-585.25 312.96,-585.25"/>
<text text-anchor="start" x="230.12" y="-572.7" font-family="Helvetica,sans-Serif" font-size="9.00">ContentController.js</text>
</a>
</g>
</g>
<!-- src/js/view/View.js&#45;&gt;src/js/view/content/ContentController.js -->
<g id="edge21" class="edge">
<title>src/js/view/View.js&#45;&gt;src/js/view/content/ContentController.js</title>
<path fill="none" stroke="#000000" stroke-width="2" stroke-opacity="0.200000" d="M158.62,-220.66C158.79,-271.29 162.06,-505.6 207.5,-558 209.45,-560.25 211.66,-562.22 214.06,-563.96"/>
<polygon fill="#000000" fill-opacity="0.200000" stroke="#000000" stroke-width="2" stroke-opacity="0.200000" points="212.9,-565.71 219.13,-566.94 215.02,-562.09 212.9,-565.71"/>
</g>
<!-- src/js/view/interaction/InteractionController.js -->
<g id="node15" class="node">
<title>src/js/view/interaction/InteractionController.js</title>
<g id="a_node15"><a xlink:href="src/js/view/interaction/InteractionController.js" xlink:title="InteractionController.js">
<path fill="#ffffcc" stroke="black" d="M318.21,-923.25C318.21,-923.25 223.04,-923.25 223.04,-923.25 219.96,-923.25 216.88,-920.17 216.88,-917.08 216.88,-917.08 216.88,-910.92 216.88,-910.92 216.88,-907.83 219.96,-904.75 223.04,-904.75 223.04,-904.75 318.21,-904.75 318.21,-904.75 321.29,-904.75 324.38,-907.83 324.38,-910.92 324.38,-910.92 324.38,-917.08 324.38,-917.08 324.38,-920.17 321.29,-923.25 318.21,-923.25"/>
<text text-anchor="start" x="224.88" y="-910.7" font-family="Helvetica,sans-Serif" font-size="9.00">InteractionController.js</text>
</a>
</g>
</g>
<!-- src/js/view/View.js&#45;&gt;src/js/view/interaction/InteractionController.js -->
<g id="edge22" class="edge">
<title>src/js/view/View.js&#45;&gt;src/js/view/interaction/InteractionController.js</title>
<path fill="none" stroke="#000000" stroke-width="2" stroke-opacity="0.200000" d="M158.69,-220.28C159.27,-297.78 164.85,-836.02 207.5,-892 209.76,-894.97 212.46,-897.54 215.44,-899.76"/>
<polygon fill="#000000" fill-opacity="0.200000" stroke="#000000" stroke-width="2" stroke-opacity="0.200000" points="214.06,-901.38 220.27,-902.76 216.27,-897.81 214.06,-901.38"/>
</g>
<!-- src/js/view/light/LightController.js -->
<g id="node16" class="node">
<title>src/js/view/light/LightController.js</title>
<g id="a_node16"><a xlink:href="src/js/view/light/LightController.js" xlink:title="LightController.js">
<path fill="#ffffcc" stroke="black" d="M306.96,-140.25C306.96,-140.25 234.29,-140.25 234.29,-140.25 231.21,-140.25 228.12,-137.17 228.12,-134.08 228.12,-134.08 228.12,-127.92 228.12,-127.92 228.12,-124.83 231.21,-121.75 234.29,-121.75 234.29,-121.75 306.96,-121.75 306.96,-121.75 310.04,-121.75 313.12,-124.83 313.12,-127.92 313.12,-127.92 313.12,-134.08 313.12,-134.08 313.12,-137.17 310.04,-140.25 306.96,-140.25"/>
<text text-anchor="start" x="236.12" y="-127.7" font-family="Helvetica,sans-Serif" font-size="9.00">LightController.js</text>
</a>
</g>
</g>
<!-- src/js/view/View.js&#45;&gt;src/js/view/light/LightController.js -->
<g id="edge23" class="edge">
<title>src/js/view/View.js&#45;&gt;src/js/view/light/LightController.js</title>
<path fill="none" stroke="#000000" stroke-width="2" stroke-opacity="0.200000" d="M170.05,-201.4C179.81,-193.32 194.33,-181.57 207.5,-172 220.19,-162.78 234.82,-153.08 246.69,-145.43"/>
<polygon fill="#000000" fill-opacity="0.200000" stroke="#000000" stroke-width="2" stroke-opacity="0.200000" points="247.57,-147.36 251.49,-142.36 245.31,-143.82 247.57,-147.36"/>
</g>
<!-- src/js/view/render/RenderController.js -->
<g id="node17" class="node">
<title>src/js/view/render/RenderController.js</title>
<g id="a_node17"><a xlink:href="src/js/view/render/RenderController.js" xlink:title="RenderController.js">
<path fill="#ffffcc" stroke="black" d="M312.21,-984.25C312.21,-984.25 229.04,-984.25 229.04,-984.25 225.96,-984.25 222.88,-981.17 222.88,-978.08 222.88,-978.08 222.88,-971.92 222.88,-971.92 222.88,-968.83 225.96,-965.75 229.04,-965.75 229.04,-965.75 312.21,-965.75 312.21,-965.75 315.29,-965.75 318.38,-968.83 318.38,-971.92 318.38,-971.92 318.38,-978.08 318.38,-978.08 318.38,-981.17 315.29,-984.25 312.21,-984.25"/>
<text text-anchor="start" x="230.88" y="-971.7" font-family="Helvetica,sans-Serif" font-size="9.00">RenderController.js</text>
</a>
</g>
</g>
<!-- src/js/view/View.js&#45;&gt;src/js/view/render/RenderController.js -->
<g id="edge24" class="edge">
<title>src/js/view/View.js&#45;&gt;src/js/view/render/RenderController.js</title>
<path fill="none" stroke="#000000" stroke-width="2" stroke-opacity="0.200000" d="M158.63,-220.58C158.74,-303.06 161.13,-891.76 207.5,-953 209.75,-955.98 212.44,-958.55 215.42,-960.78"/>
<polygon fill="#000000" fill-opacity="0.200000" stroke="#000000" stroke-width="2" stroke-opacity="0.200000" points="214.03,-962.39 220.24,-963.77 216.25,-958.82 214.03,-962.39"/>
</g>
<!-- src/js/dispatcher/ApplicationDispatcher.js -->
<g id="node7" class="node">
<title>src/js/dispatcher/ApplicationDispatcher.js</title>
<g id="a_node7"><a xlink:href="src/js/dispatcher/ApplicationDispatcher.js" xlink:title="ApplicationDispatcher.js">
<path fill="#ffffcc" stroke="black" d="M469.46,-1080.25C469.46,-1080.25 367.54,-1080.25 367.54,-1080.25 364.46,-1080.25 361.38,-1077.17 361.38,-1074.08 361.38,-1074.08 361.38,-1067.92 361.38,-1067.92 361.38,-1064.83 364.46,-1061.75 367.54,-1061.75 367.54,-1061.75 469.46,-1061.75 469.46,-1061.75 472.54,-1061.75 475.62,-1064.83 475.62,-1067.92 475.62,-1067.92 475.62,-1074.08 475.62,-1074.08 475.62,-1077.17 472.54,-1080.25 469.46,-1080.25"/>
<text text-anchor="start" x="369.38" y="-1067.7" font-family="Helvetica,sans-Serif" font-size="9.00">ApplicationDispatcher.js</text>
</a>
</g>
</g>
<!-- src/js/dispatcher/ApplicationDispatcherEvent.js -->
<g id="node8" class="node">
<title>src/js/dispatcher/ApplicationDispatcherEvent.js</title>
<g id="a_node8"><a xlink:href="src/js/dispatcher/ApplicationDispatcherEvent.js" xlink:title="ApplicationDispatcherEvent.js">
<path fill="#ffffcc" stroke="black" d="M643.33,-1080.25C643.33,-1080.25 517.42,-1080.25 517.42,-1080.25 514.33,-1080.25 511.25,-1077.17 511.25,-1074.08 511.25,-1074.08 511.25,-1067.92 511.25,-1067.92 511.25,-1064.83 514.33,-1061.75 517.42,-1061.75 517.42,-1061.75 643.33,-1061.75 643.33,-1061.75 646.42,-1061.75 649.5,-1064.83 649.5,-1067.92 649.5,-1067.92 649.5,-1074.08 649.5,-1074.08 649.5,-1077.17 646.42,-1080.25 643.33,-1080.25"/>
<text text-anchor="start" x="519.25" y="-1067.7" font-family="Helvetica,sans-Serif" font-size="9.00">ApplicationDispatcherEvent.js</text>
</a>
</g>
</g>
<!-- src/js/dispatcher/ApplicationDispatcher.js&#45;&gt;src/js/dispatcher/ApplicationDispatcherEvent.js -->
<g id="edge8" class="edge">
<title>src/js/dispatcher/ApplicationDispatcher.js&#45;&gt;src/js/dispatcher/ApplicationDispatcherEvent.js</title>
<path fill="none" stroke="#000000" stroke-width="2" stroke-opacity="0.200000" d="M475.87,-1071C484.36,-1071 493.25,-1071 502.09,-1071"/>
<polygon fill="#000000" fill-opacity="0.200000" stroke="#000000" stroke-width="2" stroke-opacity="0.200000" points="501.87,-1073.1 507.87,-1071 501.87,-1068.9 501.87,-1073.1"/>
</g>
<!-- src/js/index.js -->
<g id="node9" class="node">
<title>src/js/index.js</title>
<g id="a_node9"><a xlink:href="src/js/index.js" xlink:title="index.js">
<path fill="#ffffcc" stroke="black" d="M85.21,-70.25C85.21,-70.25 43.54,-70.25 43.54,-70.25 40.46,-70.25 37.38,-67.17 37.38,-64.08 37.38,-64.08 37.38,-57.92 37.38,-57.92 37.38,-54.83 40.46,-51.75 43.54,-51.75 43.54,-51.75 85.21,-51.75 85.21,-51.75 88.29,-51.75 91.38,-54.83 91.38,-57.92 91.38,-57.92 91.38,-64.08 91.38,-64.08 91.38,-67.17 88.29,-70.25 85.21,-70.25"/>
<text text-anchor="start" x="48.62" y="-57.7" font-family="Helvetica,sans-Serif" font-size="9.00">index.js</text>
</a>
</g>
</g>
<!-- src/js/index.js&#45;&gt;src/js/application/Application.js -->
<g id="edge9" class="edge">
<title>src/js/index.js&#45;&gt;src/js/application/Application.js</title>
<path fill="none" stroke="#000000" stroke-width="2" stroke-opacity="0.200000" d="M91.77,-61C98.36,-61 105.6,-61 112.78,-61"/>
<polygon fill="#000000" fill-opacity="0.200000" stroke="#000000" stroke-width="2" stroke-opacity="0.200000" points="112.77,-63.1 118.77,-61 112.77,-58.9 112.77,-63.1"/>
</g>
<!-- src/js/ui/map/UIMenuMap.js&#45;&gt;src/js/dispatcher/ApplicationDispatcher.js -->
<g id="edge15" class="edge">
<title>src/js/ui/map/UIMenuMap.js&#45;&gt;src/js/dispatcher/ApplicationDispatcher.js</title>
<path fill="none" stroke="#000000" stroke-width="2" stroke-opacity="0.200000" d="M308.44,-1071C321.77,-1071 337.26,-1071 352.31,-1071"/>
<polygon fill="#000000" fill-opacity="0.200000" stroke="#000000" stroke-width="2" stroke-opacity="0.200000" points="352.07,-1073.1 358.07,-1071 352.07,-1068.9 352.07,-1073.1"/>
</g>
<!-- src/js/ui/path/UIMenuPath.js&#45;&gt;src/js/dispatcher/ApplicationDispatcher.js -->
<g id="edge16" class="edge">
<title>src/js/ui/path/UIMenuPath.js&#45;&gt;src/js/dispatcher/ApplicationDispatcher.js</title>
<path fill="none" stroke="#000000" stroke-width="2" stroke-opacity="0.200000" d="M300.92,-1122.27C311.36,-1118.63 323.16,-1114.33 333.75,-1110 352.84,-1102.2 373.88,-1092.39 390.1,-1084.57"/>
<polygon fill="#000000" fill-opacity="0.200000" stroke="#000000" stroke-width="2" stroke-opacity="0.200000" points="390.9,-1086.51 395.38,-1082 389.07,-1082.73 390.9,-1086.51"/>
</g>
<!-- src/js/ui/wall/UIMenuWall.js&#45;&gt;src/js/dispatcher/ApplicationDispatcher.js -->
<g id="edge17" class="edge">
<title>src/js/ui/wall/UIMenuWall.js&#45;&gt;src/js/dispatcher/ApplicationDispatcher.js</title>
<path fill="none" stroke="#000000" stroke-width="2" stroke-opacity="0.200000" d="M308.68,-1183.51C317.35,-1180.33 326.23,-1176.22 333.75,-1171 366.08,-1148.55 393.11,-1110.49 407.14,-1088.37"/>
<polygon fill="#000000" fill-opacity="0.200000" stroke="#000000" stroke-width="2" stroke-opacity="0.200000" points="408.9,-1089.51 410.27,-1083.31 405.33,-1087.3 408.9,-1089.51"/>
</g>
<!-- src/js/view/camera/keyboard/CameraKeyboardController.js -->
<g id="node18" class="node">
<title>src/js/view/camera/keyboard/CameraKeyboardController.js</title>
<g id="a_node18"><a xlink:href="src/js/view/camera/keyboard/CameraKeyboardController.js" xlink:title="CameraKeyboardController.js">
<path fill="#ffffcc" stroke="black" d="M481.08,-209.25C481.08,-209.25 355.92,-209.25 355.92,-209.25 352.83,-209.25 349.75,-206.17 349.75,-203.08 349.75,-203.08 349.75,-196.92 349.75,-196.92 349.75,-193.83 352.83,-190.75 355.92,-190.75 355.92,-190.75 481.08,-190.75 481.08,-190.75 484.17,-190.75 487.25,-193.83 487.25,-196.92 487.25,-196.92 487.25,-203.08 487.25,-203.08 487.25,-206.17 484.17,-209.25 481.08,-209.25"/>
<text text-anchor="start" x="357.75" y="-196.7" font-family="Helvetica,sans-Serif" font-size="9.00">CameraKeyboardController.js</text>
</a>
</g>
</g>
<!-- src/js/view/camera/CameraController.js&#45;&gt;src/js/view/camera/keyboard/CameraKeyboardController.js -->
<g id="edge25" class="edge">
<title>src/js/view/camera/CameraController.js&#45;&gt;src/js/view/camera/keyboard/CameraKeyboardController.js</title>
<path fill="none" stroke="#000000" stroke-width="2" stroke-opacity="0.200000" d="M283.69,-282.46C297.4,-271.81 320.61,-254.33 341.75,-241 357.44,-231.11 375.71,-221.18 390.37,-213.57"/>
<polygon fill="#000000" fill-opacity="0.200000" stroke="#000000" stroke-width="2" stroke-opacity="0.200000" points="391.04,-215.59 395.42,-210.98 389.12,-211.85 391.04,-215.59"/>
</g>
<!-- src/js/view/camera/module/CameraModuleLookat.js -->
<g id="node19" class="node">
<title>src/js/view/camera/module/CameraModuleLookat.js</title>
<g id="a_node19"><a xlink:href="src/js/view/camera/module/CameraModuleLookat.js" xlink:title="CameraModuleLookat.js">
<path fill="#ffffcc" stroke="black" d="M470.58,-394.25C470.58,-394.25 366.42,-394.25 366.42,-394.25 363.33,-394.25 360.25,-391.17 360.25,-388.08 360.25,-388.08 360.25,-381.92 360.25,-381.92 360.25,-378.83 363.33,-375.75 366.42,-375.75 366.42,-375.75 470.58,-375.75 470.58,-375.75 473.67,-375.75 476.75,-378.83 476.75,-381.92 476.75,-381.92 476.75,-388.08 476.75,-388.08 476.75,-391.17 473.67,-394.25 470.58,-394.25"/>
<text text-anchor="start" x="368.25" y="-381.7" font-family="Helvetica,sans-Serif" font-size="9.00">CameraModuleLookat.js</text>
</a>
</g>
</g>
<!-- src/js/view/camera/CameraController.js&#45;&gt;src/js/view/camera/module/CameraModuleLookat.js -->
<g id="edge26" class="edge">
<title>src/js/view/camera/CameraController.js&#45;&gt;src/js/view/camera/module/CameraModuleLookat.js</title>
<path fill="none" stroke="#000000" stroke-width="2" stroke-opacity="0.200000" d="M277.43,-301.57C288.01,-318.14 312.1,-352.02 341.75,-369 344.81,-370.75 348.04,-372.32 351.37,-373.71"/>
<polygon fill="#000000" fill-opacity="0.200000" stroke="#000000" stroke-width="2" stroke-opacity="0.200000" points="350.63,-375.67 356.99,-375.78 352.09,-371.73 350.63,-375.67"/>
</g>
<!-- src/js/view/camera/module/CameraModuleOffset.js -->
<g id="node20" class="node">
<title>src/js/view/camera/module/CameraModuleOffset.js</title>
<g id="a_node20"><a xlink:href="src/js/view/camera/module/CameraModuleOffset.js" xlink:title="CameraModuleOffset.js">
<path fill="#ffffcc" stroke="black" d="M468.33,-270.25C468.33,-270.25 368.67,-270.25 368.67,-270.25 365.58,-270.25 362.5,-267.17 362.5,-264.08 362.5,-264.08 362.5,-257.92 362.5,-257.92 362.5,-254.83 365.58,-251.75 368.67,-251.75 368.67,-251.75 468.33,-251.75 468.33,-251.75 471.42,-251.75 474.5,-254.83 474.5,-257.92 474.5,-257.92 474.5,-264.08 474.5,-264.08 474.5,-267.17 471.42,-270.25 468.33,-270.25"/>
<text text-anchor="start" x="370.5" y="-257.7" font-family="Helvetica,sans-Serif" font-size="9.00">CameraModuleOffset.js</text>
</a>
</g>
</g>
<!-- src/js/view/camera/CameraController.js&#45;&gt;src/js/view/camera/module/CameraModuleOffset.js -->
<g id="edge27" class="edge">
<title>src/js/view/camera/CameraController.js&#45;&gt;src/js/view/camera/module/CameraModuleOffset.js</title>
<path fill="none" stroke="#000000" stroke-width="2" stroke-opacity="0.200000" d="M316.89,-282.3C325.16,-280.53 333.71,-278.71 341.75,-277 348.5,-275.57 355.59,-274.06 362.61,-272.58"/>
<polygon fill="#000000" fill-opacity="0.200000" stroke="#000000" stroke-width="2" stroke-opacity="0.200000" points="363.03,-274.63 368.47,-271.34 362.16,-270.52 363.03,-274.63"/>
</g>
<!-- src/js/view/camera/module/CameraModulePhi.js -->
<g id="node21" class="node">
<title>src/js/view/camera/module/CameraModulePhi.js</title>
<g id="a_node21"><a xlink:href="src/js/view/camera/module/CameraModulePhi.js" xlink:title="CameraModulePhi.js">
<path fill="#ffffcc" stroke="black" d="M463.46,-301.25C463.46,-301.25 373.54,-301.25 373.54,-301.25 370.46,-301.25 367.38,-298.17 367.38,-295.08 367.38,-295.08 367.38,-288.92 367.38,-288.92 367.38,-285.83 370.46,-282.75 373.54,-282.75 373.54,-282.75 463.46,-282.75 463.46,-282.75 466.54,-282.75 469.62,-285.83 469.62,-288.92 469.62,-288.92 469.62,-295.08 469.62,-295.08 469.62,-298.17 466.54,-301.25 463.46,-301.25"/>
<text text-anchor="start" x="375.38" y="-288.7" font-family="Helvetica,sans-Serif" font-size="9.00">CameraModulePhi.js</text>
</a>
</g>
</g>
<!-- src/js/view/camera/CameraController.js&#45;&gt;src/js/view/camera/module/CameraModulePhi.js -->
<g id="edge28" class="edge">
<title>src/js/view/camera/CameraController.js&#45;&gt;src/js/view/camera/module/CameraModulePhi.js</title>
<path fill="none" stroke="#000000" stroke-width="2" stroke-opacity="0.200000" d="M319.79,-292C332.07,-292 345.4,-292 358.16,-292"/>
<polygon fill="#000000" fill-opacity="0.200000" stroke="#000000" stroke-width="2" stroke-opacity="0.200000" points="357.85,-294.1 363.85,-292 357.85,-289.9 357.85,-294.1"/>
</g>
<!-- src/js/view/camera/module/CameraModuleRadius.js -->
<g id="node22" class="node">
<title>src/js/view/camera/module/CameraModuleRadius.js</title>
<g id="a_node22"><a xlink:href="src/js/view/camera/module/CameraModuleRadius.js" xlink:title="CameraModuleRadius.js">
<path fill="#ffffcc" stroke="black" d="M471.33,-332.25C471.33,-332.25 365.67,-332.25 365.67,-332.25 362.58,-332.25 359.5,-329.17 359.5,-326.08 359.5,-326.08 359.5,-319.92 359.5,-319.92 359.5,-316.83 362.58,-313.75 365.67,-313.75 365.67,-313.75 471.33,-313.75 471.33,-313.75 474.42,-313.75 477.5,-316.83 477.5,-319.92 477.5,-319.92 477.5,-326.08 477.5,-326.08 477.5,-329.17 474.42,-332.25 471.33,-332.25"/>
<text text-anchor="start" x="367.5" y="-319.7" font-family="Helvetica,sans-Serif" font-size="9.00">CameraModuleRadius.js</text>
</a>
</g>
</g>
<!-- src/js/view/camera/CameraController.js&#45;&gt;src/js/view/camera/module/CameraModuleRadius.js -->
<g id="edge29" class="edge">
<title>src/js/view/camera/CameraController.js&#45;&gt;src/js/view/camera/module/CameraModuleRadius.js</title>
<path fill="none" stroke="#000000" stroke-width="2" stroke-opacity="0.200000" d="M316.89,-301.7C325.16,-303.47 333.71,-305.29 341.75,-307 348.5,-308.43 355.59,-309.94 362.61,-311.42"/>
<polygon fill="#000000" fill-opacity="0.200000" stroke="#000000" stroke-width="2" stroke-opacity="0.200000" points="362.16,-313.48 368.47,-312.66 363.03,-309.37 362.16,-313.48"/>
</g>
<!-- src/js/view/camera/module/CameraModuleTheta.js -->
<g id="node23" class="node">
<title>src/js/view/camera/module/CameraModuleTheta.js</title>
<g id="a_node23"><a xlink:href="src/js/view/camera/module/CameraModuleTheta.js" xlink:title="CameraModuleTheta.js">
<path fill="#ffffcc" stroke="black" d="M468.33,-363.25C468.33,-363.25 368.67,-363.25 368.67,-363.25 365.58,-363.25 362.5,-360.17 362.5,-357.08 362.5,-357.08 362.5,-350.92 362.5,-350.92 362.5,-347.83 365.58,-344.75 368.67,-344.75 368.67,-344.75 468.33,-344.75 468.33,-344.75 471.42,-344.75 474.5,-347.83 474.5,-350.92 474.5,-350.92 474.5,-357.08 474.5,-357.08 474.5,-360.17 471.42,-363.25 468.33,-363.25"/>
<text text-anchor="start" x="370.5" y="-350.7" font-family="Helvetica,sans-Serif" font-size="9.00">CameraModuleTheta.js</text>
</a>
</g>
</g>
<!-- src/js/view/camera/CameraController.js&#45;&gt;src/js/view/camera/module/CameraModuleTheta.js -->
<g id="edge30" class="edge">
<title>src/js/view/camera/CameraController.js&#45;&gt;src/js/view/camera/module/CameraModuleTheta.js</title>
<path fill="none" stroke="#000000" stroke-width="2" stroke-opacity="0.200000" d="M283.26,-301.62C296.57,-312.13 319.44,-328.71 341.75,-338 345.58,-339.59 349.59,-341.04 353.68,-342.34"/>
<polygon fill="#000000" fill-opacity="0.200000" stroke="#000000" stroke-width="2" stroke-opacity="0.200000" points="352.9,-344.3 359.25,-343.98 354.08,-340.27 352.9,-344.3"/>
</g>
<!-- src/js/view/content/ContentController.js&#45;&gt;src/js/application/ApplicationLogger.js -->
<g id="edge31" class="edge">
<title>src/js/view/content/ContentController.js&#45;&gt;src/js/application/ApplicationLogger.js</title>
<path fill="none" stroke="#000000" stroke-width="2" stroke-opacity="0.200000" d="M319.42,-569.19C324.97,-566.52 329.99,-562.9 333.75,-558 346.54,-541.34 335.66,-200.1 341.75,-180 354.12,-139.15 384.76,-98.76 403.06,-77.14"/>
<polygon fill="#000000" fill-opacity="0.200000" stroke="#000000" stroke-width="2" stroke-opacity="0.200000" points="404.43,-78.76 406.77,-72.85 401.26,-76.02 404.43,-78.76"/>
</g>
<!-- src/js/view/content/ContentController.js&#45;&gt;src/js/dispatcher/ApplicationDispatcher.js -->
<g id="edge32" class="edge">
<title>src/js/view/content/ContentController.js&#45;&gt;src/js/dispatcher/ApplicationDispatcher.js</title>
<path fill="none" stroke="#000000" stroke-width="2" stroke-opacity="0.200000" d="M273.53,-585.59C280.92,-622.23 308.85,-756.82 341.75,-865 363.31,-935.91 395.84,-1017.99 410.22,-1053.33"/>
<polygon fill="#000000" fill-opacity="0.200000" stroke="#000000" stroke-width="2" stroke-opacity="0.200000" points="408.11,-1053.71 412.32,-1058.47 412,-1052.12 408.11,-1053.71"/>
</g>
<!-- src/js/view/content/intersection/ContentIntersection.js -->
<g id="node24" class="node">
<title>src/js/view/content/intersection/ContentIntersection.js</title>
<g id="a_node24"><a xlink:href="src/js/view/content/intersection/ContentIntersection.js" xlink:title="ContentIntersection.js">
<path fill="#ffffcc" stroke="black" d="M464.58,-490.25C464.58,-490.25 372.42,-490.25 372.42,-490.25 369.33,-490.25 366.25,-487.17 366.25,-484.08 366.25,-484.08 366.25,-477.92 366.25,-477.92 366.25,-474.83 369.33,-471.75 372.42,-471.75 372.42,-471.75 464.58,-471.75 464.58,-471.75 467.67,-471.75 470.75,-474.83 470.75,-477.92 470.75,-477.92 470.75,-484.08 470.75,-484.08 470.75,-487.17 467.67,-490.25 464.58,-490.25"/>
<text text-anchor="start" x="374.25" y="-477.7" font-family="Helvetica,sans-Serif" font-size="9.00">ContentIntersection.js</text>
</a>
</g>
</g>
<!-- src/js/view/content/ContentController.js&#45;&gt;src/js/view/content/intersection/ContentIntersection.js -->
<g id="edge33" class="edge">
<title>src/js/view/content/ContentController.js&#45;&gt;src/js/view/content/intersection/ContentIntersection.js</title>
<path fill="none" stroke="#000000" stroke-width="2" stroke-opacity="0.200000" d="M319.49,-568.04C324.82,-565.53 329.75,-562.26 333.75,-558 344.97,-546.05 331.87,-535.08 341.75,-522 351.09,-509.63 365.29,-500.55 378.87,-494.13"/>
<polygon fill="#000000" fill-opacity="0.200000" stroke="#000000" stroke-width="2" stroke-opacity="0.200000" points="379.35,-496.22 383.99,-491.88 377.65,-492.38 379.35,-496.22"/>
</g>
<!-- src/js/view/content/map/ContentMap.js -->
<g id="node25" class="node">
<title>src/js/view/content/map/ContentMap.js</title>
<g id="a_node25"><a xlink:href="src/js/view/content/map/ContentMap.js" xlink:title="ContentMap.js">
<path fill="#ffffcc" stroke="black" d="M449.96,-551.25C449.96,-551.25 387.04,-551.25 387.04,-551.25 383.96,-551.25 380.88,-548.17 380.88,-545.08 380.88,-545.08 380.88,-538.92 380.88,-538.92 380.88,-535.83 383.96,-532.75 387.04,-532.75 387.04,-532.75 449.96,-532.75 449.96,-532.75 453.04,-532.75 456.12,-535.83 456.12,-538.92 456.12,-538.92 456.12,-545.08 456.12,-545.08 456.12,-548.17 453.04,-551.25 449.96,-551.25"/>
<text text-anchor="start" x="388.88" y="-538.7" font-family="Helvetica,sans-Serif" font-size="9.00">ContentMap.js</text>
</a>
</g>
</g>
<!-- src/js/view/content/ContentController.js&#45;&gt;src/js/view/content/map/ContentMap.js -->
<g id="edge34" class="edge">
<title>src/js/view/content/ContentController.js&#45;&gt;src/js/view/content/map/ContentMap.js</title>
<path fill="none" stroke="#000000" stroke-width="2" stroke-opacity="0.200000" d="M313.43,-566.26C331.74,-561.99 353.28,-556.97 372,-552.6"/>
<polygon fill="#000000" fill-opacity="0.200000" stroke="#000000" stroke-width="2" stroke-opacity="0.200000" points="372.34,-554.68 377.71,-551.27 371.39,-550.59 372.34,-554.68"/>
</g>
<!-- src/js/view/content/path/ContentPath.js -->
<g id="node26" class="node">
<title>src/js/view/content/path/ContentPath.js</title>
<g id="a_node26"><a xlink:href="src/js/view/content/path/ContentPath.js" xlink:title="ContentPath.js">
<path fill="#ffffcc" stroke="black" d="M450.33,-620.25C450.33,-620.25 386.67,-620.25 386.67,-620.25 383.58,-620.25 380.5,-617.17 380.5,-614.08 380.5,-614.08 380.5,-607.92 380.5,-607.92 380.5,-604.83 383.58,-601.75 386.67,-601.75 386.67,-601.75 450.33,-601.75 450.33,-601.75 453.42,-601.75 456.5,-604.83 456.5,-607.92 456.5,-607.92 456.5,-614.08 456.5,-614.08 456.5,-617.17 453.42,-620.25 450.33,-620.25"/>
<text text-anchor="start" x="388.5" y="-607.7" font-family="Helvetica,sans-Serif" font-size="9.00">ContentPath.js</text>
</a>
</g>
</g>
<!-- src/js/view/content/ContentController.js&#45;&gt;src/js/view/content/path/ContentPath.js -->
<g id="edge35" class="edge">
<title>src/js/view/content/ContentController.js&#45;&gt;src/js/view/content/path/ContentPath.js</title>
<path fill="none" stroke="#000000" stroke-width="2" stroke-opacity="0.200000" d="M312.26,-585.75C330.6,-590.15 352.35,-595.37 371.31,-599.92"/>
<polygon fill="#000000" fill-opacity="0.200000" stroke="#000000" stroke-width="2" stroke-opacity="0.200000" points="370.81,-601.96 377.14,-601.32 371.79,-597.87 370.81,-601.96"/>
</g>
<!-- src/js/view/content/roof/ContentRoof.js -->
<g id="node27" class="node">
<title>src/js/view/content/roof/ContentRoof.js</title>
<g id="a_node27"><a xlink:href="src/js/view/content/roof/ContentRoof.js" xlink:title="ContentRoof.js">
<path fill="#ffffcc" stroke="black" d="M450.71,-739.25C450.71,-739.25 386.29,-739.25 386.29,-739.25 383.21,-739.25 380.12,-736.17 380.12,-733.08 380.12,-733.08 380.12,-726.92 380.12,-726.92 380.12,-723.83 383.21,-720.75 386.29,-720.75 386.29,-720.75 450.71,-720.75 450.71,-720.75 453.79,-720.75 456.88,-723.83 456.88,-726.92 456.88,-726.92 456.88,-733.08 456.88,-733.08 456.88,-736.17 453.79,-739.25 450.71,-739.25"/>
<text text-anchor="start" x="388.12" y="-726.7" font-family="Helvetica,sans-Serif" font-size="9.00">ContentRoof.js</text>
</a>
</g>
</g>
<!-- src/js/view/content/ContentController.js&#45;&gt;src/js/view/content/roof/ContentRoof.js -->
<g id="edge36" class="edge">
<title>src/js/view/content/ContentController.js&#45;&gt;src/js/view/content/roof/ContentRoof.js</title>
<path fill="none" stroke="#000000" stroke-width="2" stroke-opacity="0.200000" d="M273.95,-585.63C280.34,-609.99 300.47,-674.44 341.75,-708 350.3,-714.95 360.96,-719.71 371.56,-722.96"/>
<polygon fill="#000000" fill-opacity="0.200000" stroke="#000000" stroke-width="2" stroke-opacity="0.200000" points="370.75,-724.91 377.09,-724.46 371.85,-720.86 370.75,-724.91"/>
</g>
<!-- src/js/view/content/wall/ContentWall.js -->
<g id="node28" class="node">
<title>src/js/view/content/wall/ContentWall.js</title>
<g id="a_node28"><a xlink:href="src/js/view/content/wall/ContentWall.js" xlink:title="ContentWall.js">
<path fill="#ffffcc" stroke="black" d="M449.96,-804.25C449.96,-804.25 387.04,-804.25 387.04,-804.25 383.96,-804.25 380.88,-801.17 380.88,-798.08 380.88,-798.08 380.88,-791.92 380.88,-791.92 380.88,-788.83 383.96,-785.75 387.04,-785.75 387.04,-785.75 449.96,-785.75 449.96,-785.75 453.04,-785.75 456.12,-788.83 456.12,-791.92 456.12,-791.92 456.12,-798.08 456.12,-798.08 456.12,-801.17 453.04,-804.25 449.96,-804.25"/>
<text text-anchor="start" x="388.88" y="-791.7" font-family="Helvetica,sans-Serif" font-size="9.00">ContentWall.js</text>
</a>
</g>
</g>
<!-- src/js/view/content/ContentController.js&#45;&gt;src/js/view/content/wall/ContentWall.js -->
<g id="edge37" class="edge">
<title>src/js/view/content/ContentController.js&#45;&gt;src/js/view/content/wall/ContentWall.js</title>
<path fill="none" stroke="#000000" stroke-width="2" stroke-opacity="0.200000" d="M272.27,-585.56C274.89,-616.59 287.32,-715.54 341.75,-769 350.05,-777.15 361.02,-782.75 372.02,-786.6"/>
<polygon fill="#000000" fill-opacity="0.200000" stroke="#000000" stroke-width="2" stroke-opacity="0.200000" points="371.15,-788.53 377.51,-788.31 372.4,-784.52 371.15,-788.53"/>
</g>
<!-- src/js/view/interaction/InteractionController.js&#45;&gt;src/js/dispatcher/ApplicationDispatcher.js -->
<g id="edge41" class="edge">
<title>src/js/view/interaction/InteractionController.js&#45;&gt;src/js/dispatcher/ApplicationDispatcher.js</title>
<path fill="none" stroke="#000000" stroke-width="2" stroke-opacity="0.200000" d="M289.73,-923.59C302.84,-931.07 320.5,-942.3 333.75,-955 365.67,-985.6 393.69,-1029.73 407.8,-1053.78"/>
<polygon fill="#000000" fill-opacity="0.200000" stroke="#000000" stroke-width="2" stroke-opacity="0.200000" points="405.87,-1054.63 410.69,-1058.78 409.5,-1052.53 405.87,-1054.63"/>
</g>
<!-- src/js/view/light/LightController.js&#45;&gt;src/js/application/ApplicationLogger.js -->
<g id="edge42" class="edge">
<title>src/js/view/light/LightController.js&#45;&gt;src/js/application/ApplicationLogger.js</title>
<path fill="none" stroke="#000000" stroke-width="2" stroke-opacity="0.200000" d="M291.91,-121.27C317.27,-109.09 360.83,-88.19 389.4,-74.48"/>
<polygon fill="#000000" fill-opacity="0.200000" stroke="#000000" stroke-width="2" stroke-opacity="0.200000" points="390.16,-76.45 394.66,-71.96 388.34,-72.66 390.16,-76.45"/>
</g>
<!-- src/js/view/render/RenderController.js&#45;&gt;src/js/application/ApplicationConfiguration.js -->
<g id="edge43" class="edge">
<title>src/js/view/render/RenderController.js&#45;&gt;src/js/application/ApplicationConfiguration.js</title>
<path fill="none" stroke="#000000" stroke-width="2" stroke-opacity="0.200000" d="M222.72,-966.88C213.34,-962.7 205.13,-956.43 201,-947 196.38,-936.44 196.38,-127.56 201,-117 209.07,-98.56 226.85,-84.43 242.42,-74.97"/>
<polygon fill="#000000" fill-opacity="0.200000" stroke="#000000" stroke-width="2" stroke-opacity="0.200000" points="243.06,-77.03 247.21,-72.21 240.96,-73.39 243.06,-77.03"/>
</g>
<!-- src/js/view/content/path/path/ContentPathLine.js -->
<g id="node30" class="node">
<title>src/js/view/content/path/path/ContentPathLine.js</title>
<g id="a_node30"><a xlink:href="src/js/view/content/path/path/ContentPathLine.js" xlink:title="ContentPathLine.js">
<path fill="#ffffcc" stroke="black" d="M621.21,-620.25C621.21,-620.25 539.54,-620.25 539.54,-620.25 536.46,-620.25 533.38,-617.17 533.38,-614.08 533.38,-614.08 533.38,-607.92 533.38,-607.92 533.38,-604.83 536.46,-601.75 539.54,-601.75 539.54,-601.75 621.21,-601.75 621.21,-601.75 624.29,-601.75 627.38,-604.83 627.38,-607.92 627.38,-607.92 627.38,-614.08 627.38,-614.08 627.38,-617.17 624.29,-620.25 621.21,-620.25"/>
<text text-anchor="start" x="541.38" y="-607.7" font-family="Helvetica,sans-Serif" font-size="9.00">ContentPathLine.js</text>
</a>
</g>
</g>
<!-- src/js/view/content/path/ContentPath.js&#45;&gt;src/js/view/content/path/path/ContentPathLine.js -->
<g id="edge38" class="edge">
<title>src/js/view/content/path/ContentPath.js&#45;&gt;src/js/view/content/path/path/ContentPathLine.js</title>
<path fill="none" stroke="#000000" stroke-width="2" stroke-opacity="0.200000" d="M456.98,-611C476.94,-611 501.87,-611 524.01,-611"/>
<polygon fill="#000000" fill-opacity="0.200000" stroke="#000000" stroke-width="2" stroke-opacity="0.200000" points="523.95,-613.1 529.95,-611 523.95,-608.9 523.95,-613.1"/>
</g>
<!-- src/js/view/content/path/path/ContentPathPoint.js -->
<g id="node31" class="node">
<title>src/js/view/content/path/path/ContentPathPoint.js</title>
<g id="a_node31"><a xlink:href="src/js/view/content/path/path/ContentPathPoint.js" xlink:title="ContentPathPoint.js">
<path fill="#ffffcc" stroke="black" d="M622.71,-651.25C622.71,-651.25 538.04,-651.25 538.04,-651.25 534.96,-651.25 531.88,-648.17 531.88,-645.08 531.88,-645.08 531.88,-638.92 531.88,-638.92 531.88,-635.83 534.96,-632.75 538.04,-632.75 538.04,-632.75 622.71,-632.75 622.71,-632.75 625.79,-632.75 628.88,-635.83 628.88,-638.92 628.88,-638.92 628.88,-645.08 628.88,-645.08 628.88,-648.17 625.79,-651.25 622.71,-651.25"/>
<text text-anchor="start" x="539.88" y="-638.7" font-family="Helvetica,sans-Serif" font-size="9.00">ContentPathPoint.js</text>
</a>
</g>
</g>
<!-- src/js/view/content/path/ContentPath.js&#45;&gt;src/js/view/content/path/path/ContentPathPoint.js -->
<g id="edge39" class="edge">
<title>src/js/view/content/path/ContentPath.js&#45;&gt;src/js/view/content/path/path/ContentPathPoint.js</title>
<path fill="none" stroke="#000000" stroke-width="2" stroke-opacity="0.200000" d="M456.98,-618.27C476.53,-622.06 500.85,-626.77 522.65,-631"/>
<polygon fill="#000000" fill-opacity="0.200000" stroke="#000000" stroke-width="2" stroke-opacity="0.200000" points="522.24,-633.06 528.53,-632.14 523.04,-628.94 522.24,-633.06"/>
</g>
<!-- src/js/view/content/wall/wall/ContentWallSurface.js -->
<g id="node32" class="node">
<title>src/js/view/content/wall/wall/ContentWallSurface.js</title>
<g id="a_node32"><a xlink:href="src/js/view/content/wall/wall/ContentWallSurface.js" xlink:title="ContentWallSurface.js">
<path fill="#ffffcc" stroke="black" d="M627.58,-808.25C627.58,-808.25 533.17,-808.25 533.17,-808.25 530.08,-808.25 527,-805.17 527,-802.08 527,-802.08 527,-795.92 527,-795.92 527,-792.83 530.08,-789.75 533.17,-789.75 533.17,-789.75 627.58,-789.75 627.58,-789.75 630.67,-789.75 633.75,-792.83 633.75,-795.92 633.75,-795.92 633.75,-802.08 633.75,-802.08 633.75,-805.17 630.67,-808.25 627.58,-808.25"/>
<text text-anchor="start" x="535" y="-795.7" font-family="Helvetica,sans-Serif" font-size="9.00">ContentWallSurface.js</text>
</a>
</g>
</g>
<!-- src/js/view/content/wall/ContentWall.js&#45;&gt;src/js/view/content/wall/wall/ContentWallSurface.js -->
<g id="edge40" class="edge">
<title>src/js/view/content/wall/ContentWall.js&#45;&gt;src/js/view/content/wall/wall/ContentWallSurface.js</title>
<path fill="none" stroke="#000000" stroke-width="2" stroke-opacity="0.200000" d="M456.58,-795.93C474.82,-796.38 497.29,-796.95 518,-797.46"/>
<polygon fill="#000000" fill-opacity="0.200000" stroke="#000000" stroke-width="2" stroke-opacity="0.200000" points="517.67,-799.56 523.72,-797.61 517.78,-795.36 517.67,-799.56"/>
</g>
<!-- src/js/view/content/cursor/ContentCursor.js -->
<g id="node29" class="node">
<title>src/js/view/content/cursor/ContentCursor.js</title>
<g id="a_node29"><a xlink:href="src/js/view/content/cursor/ContentCursor.js" xlink:title="ContentCursor.js">
<path fill="#ffffcc" stroke="black" d="M306.58,-528.25C306.58,-528.25 234.67,-528.25 234.67,-528.25 231.58,-528.25 228.5,-525.17 228.5,-522.08 228.5,-522.08 228.5,-515.92 228.5,-515.92 228.5,-512.83 231.58,-509.75 234.67,-509.75 234.67,-509.75 306.58,-509.75 306.58,-509.75 309.67,-509.75 312.75,-512.83 312.75,-515.92 312.75,-515.92 312.75,-522.08 312.75,-522.08 312.75,-525.17 309.67,-528.25 306.58,-528.25"/>
<text text-anchor="start" x="236.5" y="-515.7" font-family="Helvetica,sans-Serif" font-size="9.00">ContentCursor.js</text>
</a>
</g>
</g>
</g>
</svg>
