<?xml version="1.0" encoding="UTF-8" standalone="no"?>
<!DOCTYPE svg PUBLIC "-//W3C//DTD SVG 1.1//EN"
 "http://www.w3.org/Graphics/SVG/1.1/DTD/svg11.dtd">
<!-- Generated by graphviz version 12.2.1 (20241206.2353)
 -->
<!-- Title: dependency&#45;cruiser output Pages: 1 -->
<svg width="848pt" height="1319pt"
 viewBox="0.00 0.00 848.00 1319.00" xmlns="http://www.w3.org/2000/svg" xmlns:xlink="http://www.w3.org/1999/xlink">
<g id="graph0" class="graph" transform="scale(1 1) rotate(0) translate(4 1315)">
<title>dependency&#45;cruiser output</title>
<polygon fill="white" stroke="none" points="-4,4 -4,-1315 844,-1315 844,4 -4,4"/>
<g id="clust1" class="cluster">
<title>cluster_src</title>
<path fill="#ffffff" stroke="black" stroke-width="2" d="M20,-8C20,-8 820,-8 820,-8 826,-8 832,-14 832,-20 832,-20 832,-1291 832,-1291 832,-1297 826,-1303 820,-1303 820,-1303 20,-1303 20,-1303 14,-1303 8,-1297 8,-1291 8,-1291 8,-20 8,-20 8,-14 14,-8 20,-8"/>
<text text-anchor="middle" x="420" y="-1290.45" font-family="Helvetica,sans-Serif" font-weight="bold" font-size="9.00">src</text>
</g>
<g id="clust2" class="cluster">
<title>cluster_src/js</title>
<path fill="#ffffff" stroke="black" stroke-width="2" d="M28,-16C28,-16 812,-16 812,-16 818,-16 824,-22 824,-28 824,-28 824,-1264 824,-1264 824,-1270 818,-1276 812,-1276 812,-1276 28,-1276 28,-1276 22,-1276 16,-1270 16,-1264 16,-1264 16,-28 16,-28 16,-22 22,-16 28,-16"/>
<text text-anchor="middle" x="420" y="-1263.45" font-family="Helvetica,sans-Serif" font-weight="bold" font-size="9.00">js</text>
</g>
<g id="clust3" class="cluster">
<title>cluster_src/js/application</title>
<path fill="#ffffff" stroke="black" stroke-width="2" d="M126.25,-964C126.25,-964 464.12,-964 464.12,-964 470.12,-964 476.12,-970 476.12,-976 476.12,-976 476.12,-1019 476.12,-1019 476.12,-1025 470.12,-1031 464.12,-1031 464.12,-1031 126.25,-1031 126.25,-1031 120.25,-1031 114.25,-1025 114.25,-1019 114.25,-1019 114.25,-976 114.25,-976 114.25,-970 120.25,-964 126.25,-964"/>
<text text-anchor="middle" x="295.19" y="-1018.45" font-family="Helvetica,sans-Serif" font-weight="bold" font-size="9.00">application</text>
</g>
<g id="clust4" class="cluster">
<title>cluster_src/js/controller</title>
<path fill="#ffffff" stroke="black" stroke-width="2" d="M36,-1000C36,-1000 92.75,-1000 92.75,-1000 98.75,-1000 104.75,-1006 104.75,-1012 104.75,-1012 104.75,-1041 104.75,-1041 104.75,-1047 98.75,-1053 92.75,-1053 92.75,-1053 36,-1053 36,-1053 30,-1053 24,-1047 24,-1041 24,-1041 24,-1012 24,-1012 24,-1006 30,-1000 36,-1000"/>
<text text-anchor="middle" x="64.38" y="-1040.45" font-family="Helvetica,sans-Serif" font-weight="bold" font-size="9.00">controller</text>
</g>
<g id="clust5" class="cluster">
<title>cluster_src/js/dispatcher</title>
<path fill="#ffffff" stroke="black" stroke-width="2" d="M523.25,-993C523.25,-993 804,-993 804,-993 810,-993 816,-999 816,-1005 816,-1005 816,-1034 816,-1034 816,-1040 810,-1046 804,-1046 804,-1046 523.25,-1046 523.25,-1046 517.25,-1046 511.25,-1040 511.25,-1034 511.25,-1034 511.25,-1005 511.25,-1005 511.25,-999 517.25,-993 523.25,-993"/>
<text text-anchor="middle" x="663.62" y="-1033.45" font-family="Helvetica,sans-Serif" font-weight="bold" font-size="9.00">dispatcher</text>
</g>
<g id="clust6" class="cluster">
<title>cluster_src/js/ui</title>
<path fill="#ffffff" stroke="black" stroke-width="2" d="M124.75,-1039C124.75,-1039 312.62,-1039 312.62,-1039 318.62,-1039 324.62,-1045 324.62,-1051 324.62,-1051 324.62,-1237 324.62,-1237 324.62,-1243 318.62,-1249 312.62,-1249 312.62,-1249 124.75,-1249 124.75,-1249 118.75,-1249 112.75,-1243 112.75,-1237 112.75,-1237 112.75,-1051 112.75,-1051 112.75,-1045 118.75,-1039 124.75,-1039"/>
<text text-anchor="middle" x="218.69" y="-1236.45" font-family="Helvetica,sans-Serif" font-weight="bold" font-size="9.00">ui</text>
</g>
<g id="clust7" class="cluster">
<title>cluster_src/js/ui/map</title>
<path fill="#ffffff" stroke="black" stroke-width="2" d="M237,-1108C237,-1108 304.25,-1108 304.25,-1108 310.25,-1108 316.25,-1114 316.25,-1120 316.25,-1120 316.25,-1149 316.25,-1149 316.25,-1155 310.25,-1161 304.25,-1161 304.25,-1161 237,-1161 237,-1161 231,-1161 225,-1155 225,-1149 225,-1149 225,-1120 225,-1120 225,-1114 231,-1108 237,-1108"/>
<text text-anchor="middle" x="270.62" y="-1148.45" font-family="Helvetica,sans-Serif" font-weight="bold" font-size="9.00">map</text>
</g>
<g id="clust8" class="cluster">
<title>cluster_src/js/ui/path</title>
<path fill="#ffffff" stroke="black" stroke-width="2" d="M236.62,-1169C236.62,-1169 304.62,-1169 304.62,-1169 310.62,-1169 316.62,-1175 316.62,-1181 316.62,-1181 316.62,-1210 316.62,-1210 316.62,-1216 310.62,-1222 304.62,-1222 304.62,-1222 236.62,-1222 236.62,-1222 230.62,-1222 224.62,-1216 224.62,-1210 224.62,-1210 224.62,-1181 224.62,-1181 224.62,-1175 230.62,-1169 236.62,-1169"/>
<text text-anchor="middle" x="270.62" y="-1209.45" font-family="Helvetica,sans-Serif" font-weight="bold" font-size="9.00">path</text>
</g>
<g id="clust9" class="cluster">
<title>cluster_src/js/ui/wall</title>
<path fill="#ffffff" stroke="black" stroke-width="2" d="M237,-1047C237,-1047 304.25,-1047 304.25,-1047 310.25,-1047 316.25,-1053 316.25,-1059 316.25,-1059 316.25,-1088 316.25,-1088 316.25,-1094 310.25,-1100 304.25,-1100 304.25,-1100 237,-1100 237,-1100 231,-1100 225,-1094 225,-1088 225,-1088 225,-1059 225,-1059 225,-1053 231,-1047 237,-1047"/>
<text text-anchor="middle" x="270.62" y="-1087.45" font-family="Helvetica,sans-Serif" font-weight="bold" font-size="9.00">wall</text>
</g>
<g id="clust10" class="cluster">
<title>cluster_src/js/view</title>
<path fill="#ffffff" stroke="black" stroke-width="2" d="M134.62,-24C134.62,-24 649.75,-24 649.75,-24 655.75,-24 661.75,-30 661.75,-36 661.75,-36 661.75,-944 661.75,-944 661.75,-950 655.75,-956 649.75,-956 649.75,-956 134.62,-956 134.62,-956 128.62,-956 122.62,-950 122.62,-944 122.62,-944 122.62,-36 122.62,-36 122.62,-30 128.62,-24 134.62,-24"/>
<text text-anchor="middle" x="392.19" y="-943.45" font-family="Helvetica,sans-Serif" font-weight="bold" font-size="9.00">view</text>
</g>
<g id="clust11" class="cluster">
<title>cluster_src/js/view/camera</title>
<path fill="#ffffff" stroke="black" stroke-width="2" d="M225.75,-32C225.75,-32 491.25,-32 491.25,-32 497.25,-32 503.25,-38 503.25,-44 503.25,-44 503.25,-293 503.25,-293 503.25,-299 497.25,-305 491.25,-305 491.25,-305 225.75,-305 225.75,-305 219.75,-305 213.75,-299 213.75,-293 213.75,-293 213.75,-44 213.75,-44 213.75,-38 219.75,-32 225.75,-32"/>
<text text-anchor="middle" x="358.5" y="-292.45" font-family="Helvetica,sans-Serif" font-weight="bold" font-size="9.00">camera</text>
</g>
<g id="clust12" class="cluster">
<title>cluster_src/js/view/camera/keyboard</title>
<path fill="#ffffff" stroke="black" stroke-width="2" d="M353.75,-40C353.75,-40 483.25,-40 483.25,-40 489.25,-40 495.25,-46 495.25,-52 495.25,-52 495.25,-81 495.25,-81 495.25,-87 489.25,-93 483.25,-93 483.25,-93 353.75,-93 353.75,-93 347.75,-93 341.75,-87 341.75,-81 341.75,-81 341.75,-52 341.75,-52 341.75,-46 347.75,-40 353.75,-40"/>
<text text-anchor="middle" x="418.5" y="-80.45" font-family="Helvetica,sans-Serif" font-weight="bold" font-size="9.00">keyboard</text>
</g>
<g id="clust13" class="cluster">
<title>cluster_src/js/view/camera/module</title>
<path fill="#ffffff" stroke="black" stroke-width="2" d="M363.5,-101C363.5,-101 473.5,-101 473.5,-101 479.5,-101 485.5,-107 485.5,-113 485.5,-113 485.5,-266 485.5,-266 485.5,-272 479.5,-278 473.5,-278 473.5,-278 363.5,-278 363.5,-278 357.5,-278 351.5,-272 351.5,-266 351.5,-266 351.5,-113 351.5,-113 351.5,-107 357.5,-101 363.5,-101"/>
<text text-anchor="middle" x="418.5" y="-265.45" font-family="Helvetica,sans-Serif" font-weight="bold" font-size="9.00">module</text>
</g>
<g id="clust14" class="cluster">
<title>cluster_src/js/view/content</title>
<path fill="#ffffff" stroke="black" stroke-width="2" d="M224.5,-313C224.5,-313 641.75,-313 641.75,-313 647.75,-313 653.75,-319 653.75,-325 653.75,-325 653.75,-734 653.75,-734 653.75,-740 647.75,-746 641.75,-746 641.75,-746 224.5,-746 224.5,-746 218.5,-746 212.5,-740 212.5,-734 212.5,-734 212.5,-325 212.5,-325 212.5,-319 218.5,-313 224.5,-313"/>
<text text-anchor="middle" x="433.12" y="-733.45" font-family="Helvetica,sans-Serif" font-weight="bold" font-size="9.00">content</text>
</g>
<g id="clust15" class="cluster">
<title>cluster_src/js/view/content/cursor</title>
<path fill="#ffffff" stroke="black" stroke-width="2" d="M232.5,-418C232.5,-418 308.75,-418 308.75,-418 314.75,-418 320.75,-424 320.75,-430 320.75,-430 320.75,-459 320.75,-459 320.75,-465 314.75,-471 308.75,-471 308.75,-471 232.5,-471 232.5,-471 226.5,-471 220.5,-465 220.5,-459 220.5,-459 220.5,-430 220.5,-430 220.5,-424 226.5,-418 232.5,-418"/>
<text text-anchor="middle" x="270.62" y="-458.45" font-family="Helvetica,sans-Serif" font-weight="bold" font-size="9.00">cursor</text>
</g>
<g id="clust16" class="cluster">
<title>cluster_src/js/view/content/intersection</title>
<path fill="#ffffff" stroke="black" stroke-width="2" d="M370.25,-321C370.25,-321 466.75,-321 466.75,-321 472.75,-321 478.75,-327 478.75,-333 478.75,-333 478.75,-362 478.75,-362 478.75,-368 472.75,-374 466.75,-374 466.75,-374 370.25,-374 370.25,-374 364.25,-374 358.25,-368 358.25,-362 358.25,-362 358.25,-333 358.25,-333 358.25,-327 364.25,-321 370.25,-321"/>
<text text-anchor="middle" x="418.5" y="-361.45" font-family="Helvetica,sans-Serif" font-weight="bold" font-size="9.00">intersection</text>
</g>
<g id="clust17" class="cluster">
<title>cluster_src/js/view/content/map</title>
<path fill="#ffffff" stroke="black" stroke-width="2" d="M384.88,-509C384.88,-509 452.12,-509 452.12,-509 458.12,-509 464.12,-515 464.12,-521 464.12,-521 464.12,-550 464.12,-550 464.12,-556 458.12,-562 452.12,-562 452.12,-562 384.88,-562 384.88,-562 378.88,-562 372.88,-556 372.88,-550 372.88,-550 372.88,-521 372.88,-521 372.88,-515 378.88,-509 384.88,-509"/>
<text text-anchor="middle" x="418.5" y="-549.45" font-family="Helvetica,sans-Serif" font-weight="bold" font-size="9.00">map</text>
</g>
<g id="clust18" class="cluster">
<title>cluster_src/js/view/content/path</title>
<path fill="#ffffff" stroke="black" stroke-width="2" d="M384.5,-382C384.5,-382 628.88,-382 628.88,-382 634.88,-382 640.88,-388 640.88,-394 640.88,-394 640.88,-489 640.88,-489 640.88,-495 634.88,-501 628.88,-501 628.88,-501 384.5,-501 384.5,-501 378.5,-501 372.5,-495 372.5,-489 372.5,-489 372.5,-394 372.5,-394 372.5,-388 378.5,-382 384.5,-382"/>
<text text-anchor="middle" x="506.69" y="-488.45" font-family="Helvetica,sans-Serif" font-weight="bold" font-size="9.00">path</text>
</g>
<g id="clust19" class="cluster">
<title>cluster_src/js/view/content/path/path</title>
<path fill="#ffffff" stroke="black" stroke-width="2" d="M531.88,-390C531.88,-390 620.88,-390 620.88,-390 626.88,-390 632.88,-396 632.88,-402 632.88,-402 632.88,-462 632.88,-462 632.88,-468 626.88,-474 620.88,-474 620.88,-474 531.88,-474 531.88,-474 525.88,-474 519.88,-468 519.88,-462 519.88,-462 519.88,-402 519.88,-402 519.88,-396 525.88,-390 531.88,-390"/>
<text text-anchor="middle" x="576.38" y="-461.45" font-family="Helvetica,sans-Serif" font-weight="bold" font-size="9.00">path</text>
</g>
<g id="clust20" class="cluster">
<title>cluster_src/js/view/content/roof</title>
<path fill="#ffffff" stroke="black" stroke-width="2" d="M384.12,-570C384.12,-570 452.88,-570 452.88,-570 458.88,-570 464.88,-576 464.88,-582 464.88,-582 464.88,-611 464.88,-611 464.88,-617 458.88,-623 452.88,-623 452.88,-623 384.12,-623 384.12,-623 378.12,-623 372.12,-617 372.12,-611 372.12,-611 372.12,-582 372.12,-582 372.12,-576 378.12,-570 384.12,-570"/>
<text text-anchor="middle" x="418.5" y="-610.45" font-family="Helvetica,sans-Serif" font-weight="bold" font-size="9.00">roof</text>
</g>
<g id="clust21" class="cluster">
<title>cluster_src/js/view/content/wall</title>
<path fill="#ffffff" stroke="black" stroke-width="2" d="M384.88,-631C384.88,-631 633.75,-631 633.75,-631 639.75,-631 645.75,-637 645.75,-643 645.75,-643 645.75,-707 645.75,-707 645.75,-713 639.75,-719 633.75,-719 633.75,-719 384.88,-719 384.88,-719 378.88,-719 372.88,-713 372.88,-707 372.88,-707 372.88,-643 372.88,-643 372.88,-637 378.88,-631 384.88,-631"/>
<text text-anchor="middle" x="509.31" y="-706.45" font-family="Helvetica,sans-Serif" font-weight="bold" font-size="9.00">wall</text>
</g>
<g id="clust22" class="cluster">
<title>cluster_src/js/view/content/wall/wall</title>
<path fill="#ffffff" stroke="black" stroke-width="2" d="M527,-639C527,-639 625.75,-639 625.75,-639 631.75,-639 637.75,-645 637.75,-651 637.75,-651 637.75,-680 637.75,-680 637.75,-686 631.75,-692 625.75,-692 625.75,-692 527,-692 527,-692 521,-692 515,-686 515,-680 515,-680 515,-651 515,-651 515,-645 521,-639 527,-639"/>
<text text-anchor="middle" x="576.38" y="-679.45" font-family="Helvetica,sans-Serif" font-weight="bold" font-size="9.00">wall</text>
</g>
<g id="clust23" class="cluster">
<title>cluster_src/js/view/interaction</title>
<path fill="#ffffff" stroke="black" stroke-width="2" d="M220.88,-754C220.88,-754 320.38,-754 320.38,-754 326.38,-754 332.38,-760 332.38,-766 332.38,-766 332.38,-795 332.38,-795 332.38,-801 326.38,-807 320.38,-807 320.38,-807 220.88,-807 220.88,-807 214.88,-807 208.88,-801 208.88,-795 208.88,-795 208.88,-766 208.88,-766 208.88,-760 214.88,-754 220.88,-754"/>
<text text-anchor="middle" x="270.62" y="-794.45" font-family="Helvetica,sans-Serif" font-weight="bold" font-size="9.00">interaction</text>
</g>
<g id="clust24" class="cluster">
<title>cluster_src/js/view/light</title>
<path fill="#ffffff" stroke="black" stroke-width="2" d="M232.12,-815C232.12,-815 309.12,-815 309.12,-815 315.12,-815 321.12,-821 321.12,-827 321.12,-827 321.12,-856 321.12,-856 321.12,-862 315.12,-868 309.12,-868 309.12,-868 232.12,-868 232.12,-868 226.12,-868 220.12,-862 220.12,-856 220.12,-856 220.12,-827 220.12,-827 220.12,-821 226.12,-815 232.12,-815"/>
<text text-anchor="middle" x="270.62" y="-855.45" font-family="Helvetica,sans-Serif" font-weight="bold" font-size="9.00">light</text>
</g>
<g id="clust25" class="cluster">
<title>cluster_src/js/view/render</title>
<path fill="#ffffff" stroke="black" stroke-width="2" d="M226.88,-876C226.88,-876 314.38,-876 314.38,-876 320.38,-876 326.38,-882 326.38,-888 326.38,-888 326.38,-917 326.38,-917 326.38,-923 320.38,-929 314.38,-929 314.38,-929 226.88,-929 226.88,-929 220.88,-929 214.88,-923 214.88,-917 214.88,-917 214.88,-888 214.88,-888 214.88,-882 220.88,-876 226.88,-876"/>
<text text-anchor="middle" x="270.62" y="-916.45" font-family="Helvetica,sans-Serif" font-weight="bold" font-size="9.00">render</text>
</g>
<!-- src/js/application/Application.js -->
<g id="node1" class="node">
<title>src/js/application/Application.js</title>
<g id="a_node1"><a xlink:href="src/js/application/Application.js" xlink:title="Application.js">
<path fill="#ffffcc" stroke="black" d="M186.83,-998.25C186.83,-998.25 128.42,-998.25 128.42,-998.25 125.33,-998.25 122.25,-995.17 122.25,-992.08 122.25,-992.08 122.25,-985.92 122.25,-985.92 122.25,-982.83 125.33,-979.75 128.42,-979.75 128.42,-979.75 186.83,-979.75 186.83,-979.75 189.92,-979.75 193,-982.83 193,-985.92 193,-985.92 193,-992.08 193,-992.08 193,-995.17 189.92,-998.25 186.83,-998.25"/>
<text text-anchor="start" x="130.25" y="-985.7" font-family="Helvetica,sans-Serif" font-size="9.00">Application.js</text>
</a>
</g>
</g>
<!-- src/js/controller/Controller.js -->
<g id="node2" class="node">
<title>src/js/controller/Controller.js</title>
<g id="a_node2"><a xlink:href="src/js/controller/Controller.js" xlink:title="Controller.js">
<path fill="#ffffcc" stroke="black" d="M90.58,-1026.25C90.58,-1026.25 38.17,-1026.25 38.17,-1026.25 35.08,-1026.25 32,-1023.17 32,-1020.08 32,-1020.08 32,-1013.92 32,-1013.92 32,-1010.83 35.08,-1007.75 38.17,-1007.75 38.17,-1007.75 90.58,-1007.75 90.58,-1007.75 93.67,-1007.75 96.75,-1010.83 96.75,-1013.92 96.75,-1013.92 96.75,-1020.08 96.75,-1020.08 96.75,-1023.17 93.67,-1026.25 90.58,-1026.25"/>
<text text-anchor="start" x="40" y="-1013.7" font-family="Helvetica,sans-Serif" font-size="9.00">Controller.js</text>
</a>
</g>
</g>
<!-- src/js/application/Application.js&#45;&gt;src/js/controller/Controller.js -->
<g id="edge1" class="edge">
<title>src/js/application/Application.js&#45;&gt;src/js/controller/Controller.js</title>
<path fill="none" stroke="#000000" stroke-width="2" stroke-opacity="0.200000" d="M125.02,-998.7C118.65,-1000.65 111.88,-1002.73 105.27,-1004.76"/>
<polygon fill="#000000" fill-opacity="0.200000" stroke="#000000" stroke-width="2" stroke-opacity="0.200000" points="105.05,-1002.63 99.93,-1006.4 106.28,-1006.64 105.05,-1002.63"/>
</g>
<!-- src/js/application/ApplicationConfiguration.js -->
<g id="node3" class="node">
<title>src/js/application/ApplicationConfiguration.js</title>
<g id="a_node3"><a xlink:href="src/js/application/ApplicationConfiguration.js" xlink:title="ApplicationConfiguration.js">
<path fill="#ffffcc" stroke="black" d="M327.58,-990.25C327.58,-990.25 213.67,-990.25 213.67,-990.25 210.58,-990.25 207.5,-987.17 207.5,-984.08 207.5,-984.08 207.5,-977.92 207.5,-977.92 207.5,-974.83 210.58,-971.75 213.67,-971.75 213.67,-971.75 327.58,-971.75 327.58,-971.75 330.67,-971.75 333.75,-974.83 333.75,-977.92 333.75,-977.92 333.75,-984.08 333.75,-984.08 333.75,-987.17 330.67,-990.25 327.58,-990.25"/>
<text text-anchor="start" x="215.5" y="-977.7" font-family="Helvetica,sans-Serif" font-size="9.00">ApplicationConfiguration.js</text>
</a>
</g>
</g>
<!-- src/js/application/Application.js&#45;&gt;src/js/application/ApplicationConfiguration.js -->
<g id="edge2" class="edge">
<title>src/js/application/Application.js&#45;&gt;src/js/application/ApplicationConfiguration.js</title>
<path fill="none" stroke="#000000" stroke-width="2" stroke-opacity="0.200000" d="M193.44,-986.49C195.11,-986.37 196.81,-986.25 198.53,-986.12"/>
<polygon fill="#000000" fill-opacity="0.200000" stroke="#000000" stroke-width="2" stroke-opacity="0.200000" points="198.42,-988.24 204.26,-985.71 198.12,-984.05 198.42,-988.24"/>
</g>
<!-- src/js/application/ApplicationLogger.js -->
<g id="node4" class="node">
<title>src/js/application/ApplicationLogger.js</title>
<g id="a_node4"><a xlink:href="src/js/application/ApplicationLogger.js" xlink:title="ApplicationLogger.js">
<path fill="#ffffcc" stroke="black" d="M461.96,-990.25C461.96,-990.25 375.04,-990.25 375.04,-990.25 371.96,-990.25 368.88,-987.17 368.88,-984.08 368.88,-984.08 368.88,-977.92 368.88,-977.92 368.88,-974.83 371.96,-971.75 375.04,-971.75 375.04,-971.75 461.96,-971.75 461.96,-971.75 465.04,-971.75 468.12,-974.83 468.12,-977.92 468.12,-977.92 468.12,-984.08 468.12,-984.08 468.12,-987.17 465.04,-990.25 461.96,-990.25"/>
<text text-anchor="start" x="376.88" y="-977.7" font-family="Helvetica,sans-Serif" font-size="9.00">ApplicationLogger.js</text>
</a>
</g>
</g>
<!-- src/js/application/Application.js&#45;&gt;src/js/application/ApplicationLogger.js -->
<g id="edge3" class="edge">
<title>src/js/application/Application.js&#45;&gt;src/js/application/ApplicationLogger.js</title>
<path fill="none" stroke="#000000" stroke-width="2" stroke-opacity="0.200000" d="M193.27,-994.58C198.04,-995.17 202.88,-995.67 207.5,-996 263.47,-999.99 277.86,-1000.97 333.75,-996 343.21,-995.16 353.21,-993.79 362.87,-992.22"/>
<polygon fill="#000000" fill-opacity="0.200000" stroke="#000000" stroke-width="2" stroke-opacity="0.200000" points="363.08,-994.32 368.64,-991.24 362.37,-990.18 363.08,-994.32"/>
</g>
<!-- src/js/controller/Controller.js&#45;&gt;src/js/application/ApplicationLogger.js -->
<g id="edge5" class="edge">
<title>src/js/controller/Controller.js&#45;&gt;src/js/application/ApplicationLogger.js</title>
<path fill="none" stroke="#000000" stroke-width="2" stroke-opacity="0.200000" d="M96.98,-1017.17C147.36,-1017 248.86,-1014.9 333.75,-1002 347.73,-999.88 362.78,-996.47 376.21,-993.01"/>
<polygon fill="#000000" fill-opacity="0.200000" stroke="#000000" stroke-width="2" stroke-opacity="0.200000" points="376.59,-995.08 381.85,-991.51 375.51,-991.02 376.59,-995.08"/>
</g>
<!-- src/js/ui/UIController.js -->
<g id="node5" class="node">
<title>src/js/ui/UIController.js</title>
<g id="a_node5"><a xlink:href="src/js/ui/UIController.js" xlink:title="UIController.js">
<path fill="#ffffcc" stroke="black" d="M188.33,-1069.25C188.33,-1069.25 126.92,-1069.25 126.92,-1069.25 123.83,-1069.25 120.75,-1066.17 120.75,-1063.08 120.75,-1063.08 120.75,-1056.92 120.75,-1056.92 120.75,-1053.83 123.83,-1050.75 126.92,-1050.75 126.92,-1050.75 188.33,-1050.75 188.33,-1050.75 191.42,-1050.75 194.5,-1053.83 194.5,-1056.92 194.5,-1056.92 194.5,-1063.08 194.5,-1063.08 194.5,-1066.17 191.42,-1069.25 188.33,-1069.25"/>
<text text-anchor="start" x="128.75" y="-1056.7" font-family="Helvetica,sans-Serif" font-size="9.00">UIController.js</text>
</a>
</g>
</g>
<!-- src/js/controller/Controller.js&#45;&gt;src/js/ui/UIController.js -->
<g id="edge6" class="edge">
<title>src/js/controller/Controller.js&#45;&gt;src/js/ui/UIController.js</title>
<path fill="none" stroke="#000000" stroke-width="2" stroke-opacity="0.200000" d="M85.63,-1026.54C98.18,-1032.46 114.49,-1040.14 128.31,-1046.66"/>
<polygon fill="#000000" fill-opacity="0.200000" stroke="#000000" stroke-width="2" stroke-opacity="0.200000" points="127.05,-1048.39 133.38,-1049.04 128.84,-1044.59 127.05,-1048.39"/>
</g>
<!-- src/js/view/View.js -->
<g id="node6" class="node">
<title>src/js/view/View.js</title>
<g id="a_node6"><a xlink:href="src/js/view/View.js" xlink:title="View.js">
<path fill="#ffffcc" stroke="black" d="M178.46,-871.25C178.46,-871.25 136.79,-871.25 136.79,-871.25 133.71,-871.25 130.62,-868.17 130.62,-865.08 130.62,-865.08 130.62,-858.92 130.62,-858.92 130.62,-855.83 133.71,-852.75 136.79,-852.75 136.79,-852.75 178.46,-852.75 178.46,-852.75 181.54,-852.75 184.62,-855.83 184.62,-858.92 184.62,-858.92 184.62,-865.08 184.62,-865.08 184.62,-868.17 181.54,-871.25 178.46,-871.25"/>
<text text-anchor="start" x="143.38" y="-858.7" font-family="Helvetica,sans-Serif" font-size="9.00">View.js</text>
</a>
</g>
</g>
<!-- src/js/controller/Controller.js&#45;&gt;src/js/view/View.js -->
<g id="edge7" class="edge">
<title>src/js/controller/Controller.js&#45;&gt;src/js/view/View.js</title>
<path fill="none" stroke="#000000" stroke-width="2" stroke-opacity="0.200000" d="M97,-1010.14C99.9,-1008.51 102.57,-1006.49 104.75,-1004 117.54,-989.36 107,-979.57 112.75,-961 121.92,-931.41 137.46,-898.9 147.37,-879.49"/>
<polygon fill="#000000" fill-opacity="0.200000" stroke="#000000" stroke-width="2" stroke-opacity="0.200000" points="149.2,-880.53 150.1,-874.23 145.47,-878.59 149.2,-880.53"/>
</g>
<!-- src/js/application/ApplicationConfiguration.js&#45;&gt;src/js/application/ApplicationLogger.js -->
<g id="edge4" class="edge">
<title>src/js/application/ApplicationConfiguration.js&#45;&gt;src/js/application/ApplicationLogger.js</title>
<path fill="none" stroke="#000000" stroke-width="2" stroke-opacity="0.200000" d="M333.91,-981C342.53,-981 351.36,-981 359.89,-981"/>
<polygon fill="#000000" fill-opacity="0.200000" stroke="#000000" stroke-width="2" stroke-opacity="0.200000" points="359.62,-983.1 365.62,-981 359.62,-978.9 359.62,-983.1"/>
</g>
<!-- src/js/ui/UIController.js&#45;&gt;src/js/application/ApplicationConfiguration.js -->
<g id="edge10" class="edge">
<title>src/js/ui/UIController.js&#45;&gt;src/js/application/ApplicationConfiguration.js</title>
<path fill="none" stroke="#000000" stroke-width="2" stroke-opacity="0.200000" d="M172.24,-1050.31C191.4,-1036.68 226.48,-1011.71 248.9,-995.75"/>
<polygon fill="#000000" fill-opacity="0.200000" stroke="#000000" stroke-width="2" stroke-opacity="0.200000" points="250.11,-997.46 253.78,-992.27 247.68,-994.04 250.11,-997.46"/>
</g>
<!-- src/js/ui/UIController.js&#45;&gt;src/js/application/ApplicationLogger.js -->
<g id="edge11" class="edge">
<title>src/js/ui/UIController.js&#45;&gt;src/js/application/ApplicationLogger.js</title>
<path fill="none" stroke="#000000" stroke-width="2" stroke-opacity="0.200000" d="M186.09,-1050.28C193.02,-1048.03 200.49,-1045.78 207.5,-1044 262.79,-1029.98 279.48,-1038.56 333.75,-1021 354.57,-1014.27 376.86,-1003.42 393.21,-994.72"/>
<polygon fill="#000000" fill-opacity="0.200000" stroke="#000000" stroke-width="2" stroke-opacity="0.200000" points="393.79,-996.8 398.06,-992.09 391.79,-993.11 393.79,-996.8"/>
</g>
<!-- src/js/ui/map/UIMenuMap.js -->
<g id="node10" class="node">
<title>src/js/ui/map/UIMenuMap.js</title>
<g id="a_node10"><a xlink:href="src/js/ui/map/UIMenuMap.js" xlink:title="UIMenuMap.js">
<path fill="#ffffcc" stroke="black" d="M302.08,-1134.25C302.08,-1134.25 239.17,-1134.25 239.17,-1134.25 236.08,-1134.25 233,-1131.17 233,-1128.08 233,-1128.08 233,-1121.92 233,-1121.92 233,-1118.83 236.08,-1115.75 239.17,-1115.75 239.17,-1115.75 302.08,-1115.75 302.08,-1115.75 305.17,-1115.75 308.25,-1118.83 308.25,-1121.92 308.25,-1121.92 308.25,-1128.08 308.25,-1128.08 308.25,-1131.17 305.17,-1134.25 302.08,-1134.25"/>
<text text-anchor="start" x="241" y="-1121.7" font-family="Helvetica,sans-Serif" font-size="9.00">UIMenuMap.js</text>
</a>
</g>
</g>
<!-- src/js/ui/UIController.js&#45;&gt;src/js/ui/map/UIMenuMap.js -->
<g id="edge12" class="edge">
<title>src/js/ui/UIController.js&#45;&gt;src/js/ui/map/UIMenuMap.js</title>
<path fill="none" stroke="#000000" stroke-width="2" stroke-opacity="0.200000" d="M167.51,-1069.74C176.71,-1079.34 191.91,-1093.84 207.5,-1103 213.4,-1106.46 219.93,-1109.51 226.47,-1112.14"/>
<polygon fill="#000000" fill-opacity="0.200000" stroke="#000000" stroke-width="2" stroke-opacity="0.200000" points="225.54,-1114.03 231.89,-1114.19 227.02,-1110.1 225.54,-1114.03"/>
</g>
<!-- src/js/ui/path/UIMenuPath.js -->
<g id="node11" class="node">
<title>src/js/ui/path/UIMenuPath.js</title>
<g id="a_node11"><a xlink:href="src/js/ui/path/UIMenuPath.js" xlink:title="UIMenuPath.js">
<path fill="#ffffcc" stroke="black" d="M302.46,-1195.25C302.46,-1195.25 238.79,-1195.25 238.79,-1195.25 235.71,-1195.25 232.62,-1192.17 232.62,-1189.08 232.62,-1189.08 232.62,-1182.92 232.62,-1182.92 232.62,-1179.83 235.71,-1176.75 238.79,-1176.75 238.79,-1176.75 302.46,-1176.75 302.46,-1176.75 305.54,-1176.75 308.62,-1179.83 308.62,-1182.92 308.62,-1182.92 308.62,-1189.08 308.62,-1189.08 308.62,-1192.17 305.54,-1195.25 302.46,-1195.25"/>
<text text-anchor="start" x="240.62" y="-1182.7" font-family="Helvetica,sans-Serif" font-size="9.00">UIMenuPath.js</text>
</a>
</g>
</g>
<!-- src/js/ui/UIController.js&#45;&gt;src/js/ui/path/UIMenuPath.js -->
<g id="edge13" class="edge">
<title>src/js/ui/UIController.js&#45;&gt;src/js/ui/path/UIMenuPath.js</title>
<path fill="none" stroke="#000000" stroke-width="2" stroke-opacity="0.200000" d="M160.51,-1069.51C165,-1089.77 178.22,-1137.48 207.5,-1164 212.28,-1168.33 217.97,-1171.82 223.93,-1174.63"/>
<polygon fill="#000000" fill-opacity="0.200000" stroke="#000000" stroke-width="2" stroke-opacity="0.200000" points="223.03,-1176.53 229.38,-1176.89 224.65,-1172.65 223.03,-1176.53"/>
</g>
<!-- src/js/ui/wall/UIMenuWall.js -->
<g id="node12" class="node">
<title>src/js/ui/wall/UIMenuWall.js</title>
<g id="a_node12"><a xlink:href="src/js/ui/wall/UIMenuWall.js" xlink:title="UIMenuWall.js">
<path fill="#ffffcc" stroke="black" d="M302.08,-1073.25C302.08,-1073.25 239.17,-1073.25 239.17,-1073.25 236.08,-1073.25 233,-1070.17 233,-1067.08 233,-1067.08 233,-1060.92 233,-1060.92 233,-1057.83 236.08,-1054.75 239.17,-1054.75 239.17,-1054.75 302.08,-1054.75 302.08,-1054.75 305.17,-1054.75 308.25,-1057.83 308.25,-1060.92 308.25,-1060.92 308.25,-1067.08 308.25,-1067.08 308.25,-1070.17 305.17,-1073.25 302.08,-1073.25"/>
<text text-anchor="start" x="241" y="-1060.7" font-family="Helvetica,sans-Serif" font-size="9.00">UIMenuWall.js</text>
</a>
</g>
</g>
<!-- src/js/ui/UIController.js&#45;&gt;src/js/ui/wall/UIMenuWall.js -->
<g id="edge14" class="edge">
<title>src/js/ui/UIController.js&#45;&gt;src/js/ui/wall/UIMenuWall.js</title>
<path fill="none" stroke="#000000" stroke-width="2" stroke-opacity="0.200000" d="M194.97,-1061.31C204.26,-1061.64 214.38,-1062.01 224.07,-1062.36"/>
<polygon fill="#000000" fill-opacity="0.200000" stroke="#000000" stroke-width="2" stroke-opacity="0.200000" points="223.72,-1064.45 229.79,-1062.56 223.87,-1060.25 223.72,-1064.45"/>
</g>
<!-- src/js/view/View.js&#45;&gt;src/js/application/ApplicationConfiguration.js -->
<g id="edge18" class="edge">
<title>src/js/view/View.js&#45;&gt;src/js/application/ApplicationConfiguration.js</title>
<path fill="none" stroke="#000000" stroke-width="2" stroke-opacity="0.200000" d="M160.85,-871.46C165.85,-890.69 179.77,-934.57 207.5,-959 211.3,-962.34 215.63,-965.19 220.21,-967.61"/>
<polygon fill="#000000" fill-opacity="0.200000" stroke="#000000" stroke-width="2" stroke-opacity="0.200000" points="219.02,-969.37 225.35,-970.01 220.8,-965.56 219.02,-969.37"/>
</g>
<!-- src/js/view/View.js&#45;&gt;src/js/application/ApplicationLogger.js -->
<g id="edge19" class="edge">
<title>src/js/view/View.js&#45;&gt;src/js/application/ApplicationLogger.js</title>
<path fill="none" stroke="#000000" stroke-width="2" stroke-opacity="0.200000" d="M162.47,-871.37C169.22,-886.59 184.67,-916.54 207.5,-932 220.16,-940.57 302.18,-958.16 359.88,-969.76"/>
<polygon fill="#000000" fill-opacity="0.200000" stroke="#000000" stroke-width="2" stroke-opacity="0.200000" points="359.3,-971.79 365.59,-970.91 360.12,-967.67 359.3,-971.79"/>
</g>
<!-- src/js/view/camera/CameraController.js -->
<g id="node13" class="node">
<title>src/js/view/camera/CameraController.js</title>
<g id="a_node13"><a xlink:href="src/js/view/camera/CameraController.js" xlink:title="CameraController.js">
<path fill="#ffffcc" stroke="black" d="M313.33,-189.25C313.33,-189.25 227.92,-189.25 227.92,-189.25 224.83,-189.25 221.75,-186.17 221.75,-183.08 221.75,-183.08 221.75,-176.92 221.75,-176.92 221.75,-173.83 224.83,-170.75 227.92,-170.75 227.92,-170.75 313.33,-170.75 313.33,-170.75 316.42,-170.75 319.5,-173.83 319.5,-176.92 319.5,-176.92 319.5,-183.08 319.5,-183.08 319.5,-186.17 316.42,-189.25 313.33,-189.25"/>
<text text-anchor="start" x="229.75" y="-176.7" font-family="Helvetica,sans-Serif" font-size="9.00">CameraController.js</text>
</a>
</g>
</g>
<!-- src/js/view/View.js&#45;&gt;src/js/view/camera/CameraController.js -->
<g id="edge20" class="edge">
<title>src/js/view/View.js&#45;&gt;src/js/view/camera/CameraController.js</title>
<path fill="none" stroke="#000000" stroke-width="2" stroke-opacity="0.200000" d="M159.14,-852.49C161.8,-804.98 175.2,-588.85 207.5,-415 222.77,-332.8 251.61,-237.08 263.88,-198"/>
<polygon fill="#000000" fill-opacity="0.200000" stroke="#000000" stroke-width="2" stroke-opacity="0.200000" points="265.77,-198.97 265.58,-192.62 261.77,-197.71 265.77,-198.97"/>
</g>
<!-- src/js/view/content/ContentController.js -->
<g id="node14" class="node">
<title>src/js/view/content/ContentController.js</title>
<g id="a_node14"><a xlink:href="src/js/view/content/ContentController.js" xlink:title="ContentController.js">
<path fill="#ffffcc" stroke="black" d="M312.96,-629.25C312.96,-629.25 228.29,-629.25 228.29,-629.25 225.21,-629.25 222.12,-626.17 222.12,-623.08 222.12,-623.08 222.12,-616.92 222.12,-616.92 222.12,-613.83 225.21,-610.75 228.29,-610.75 228.29,-610.75 312.96,-610.75 312.96,-610.75 316.04,-610.75 319.12,-613.83 319.12,-616.92 319.12,-616.92 319.12,-623.08 319.12,-623.08 319.12,-626.17 316.04,-629.25 312.96,-629.25"/>
<text text-anchor="start" x="230.12" y="-616.7" font-family="Helvetica,sans-Serif" font-size="9.00">ContentController.js</text>
</a>
</g>
</g>
<!-- src/js/view/View.js&#45;&gt;src/js/view/content/ContentController.js -->
<g id="edge21" class="edge">
<title>src/js/view/View.js&#45;&gt;src/js/view/content/ContentController.js</title>
<path fill="none" stroke="#000000" stroke-width="2" stroke-opacity="0.200000" d="M162.72,-852.46C171.01,-833.2 190.43,-788.34 207.5,-751 226.22,-710.04 249.12,-662.35 261.21,-637.34"/>
<polygon fill="#000000" fill-opacity="0.200000" stroke="#000000" stroke-width="2" stroke-opacity="0.200000" points="262.97,-638.53 263.69,-632.22 259.19,-636.7 262.97,-638.53"/>
</g>
<!-- src/js/view/interaction/InteractionController.js -->
<g id="node15" class="node">
<title>src/js/view/interaction/InteractionController.js</title>
<g id="a_node15"><a xlink:href="src/js/view/interaction/InteractionController.js" xlink:title="InteractionController.js">
<path fill="#ffffcc" stroke="black" d="M318.21,-780.25C318.21,-780.25 223.04,-780.25 223.04,-780.25 219.96,-780.25 216.88,-777.17 216.88,-774.08 216.88,-774.08 216.88,-767.92 216.88,-767.92 216.88,-764.83 219.96,-761.75 223.04,-761.75 223.04,-761.75 318.21,-761.75 318.21,-761.75 321.29,-761.75 324.38,-764.83 324.38,-767.92 324.38,-767.92 324.38,-774.08 324.38,-774.08 324.38,-777.17 321.29,-780.25 318.21,-780.25"/>
<text text-anchor="start" x="224.88" y="-767.7" font-family="Helvetica,sans-Serif" font-size="9.00">InteractionController.js</text>
</a>
</g>
</g>
<!-- src/js/view/View.js&#45;&gt;src/js/view/interaction/InteractionController.js -->
<g id="edge22" class="edge">
<title>src/js/view/View.js&#45;&gt;src/js/view/interaction/InteractionController.js</title>
<path fill="none" stroke="#000000" stroke-width="2" stroke-opacity="0.200000" d="M166.74,-852.56C176.02,-842.04 191.96,-824.83 207.5,-812 219.35,-802.22 233.6,-792.67 245.46,-785.26"/>
<polygon fill="#000000" fill-opacity="0.200000" stroke="#000000" stroke-width="2" stroke-opacity="0.200000" points="246.27,-787.23 250.29,-782.3 244.07,-783.65 246.27,-787.23"/>
</g>
<!-- src/js/view/light/LightController.js -->
<g id="node16" class="node">
<title>src/js/view/light/LightController.js</title>
<g id="a_node16"><a xlink:href="src/js/view/light/LightController.js" xlink:title="LightController.js">
<path fill="#ffffcc" stroke="black" d="M306.96,-841.25C306.96,-841.25 234.29,-841.25 234.29,-841.25 231.21,-841.25 228.12,-838.17 228.12,-835.08 228.12,-835.08 228.12,-828.92 228.12,-828.92 228.12,-825.83 231.21,-822.75 234.29,-822.75 234.29,-822.75 306.96,-822.75 306.96,-822.75 310.04,-822.75 313.12,-825.83 313.12,-828.92 313.12,-828.92 313.12,-835.08 313.12,-835.08 313.12,-838.17 310.04,-841.25 306.96,-841.25"/>
<text text-anchor="start" x="236.12" y="-828.7" font-family="Helvetica,sans-Serif" font-size="9.00">LightController.js</text>
</a>
</g>
</g>
<!-- src/js/view/View.js&#45;&gt;src/js/view/light/LightController.js -->
<g id="edge23" class="edge">
<title>src/js/view/View.js&#45;&gt;src/js/view/light/LightController.js</title>
<path fill="none" stroke="#000000" stroke-width="2" stroke-opacity="0.200000" d="M184.93,-854.89C197.04,-851.62 211.73,-847.65 225.46,-843.94"/>
<polygon fill="#000000" fill-opacity="0.200000" stroke="#000000" stroke-width="2" stroke-opacity="0.200000" points="225.68,-846.05 230.93,-842.46 224.59,-842 225.68,-846.05"/>
</g>
<!-- src/js/view/render/RenderController.js -->
<g id="node17" class="node">
<title>src/js/view/render/RenderController.js</title>
<g id="a_node17"><a xlink:href="src/js/view/render/RenderController.js" xlink:title="RenderController.js">
<path fill="#ffffcc" stroke="black" d="M312.21,-902.25C312.21,-902.25 229.04,-902.25 229.04,-902.25 225.96,-902.25 222.88,-899.17 222.88,-896.08 222.88,-896.08 222.88,-889.92 222.88,-889.92 222.88,-886.83 225.96,-883.75 229.04,-883.75 229.04,-883.75 312.21,-883.75 312.21,-883.75 315.29,-883.75 318.38,-886.83 318.38,-889.92 318.38,-889.92 318.38,-896.08 318.38,-896.08 318.38,-899.17 315.29,-902.25 312.21,-902.25"/>
<text text-anchor="start" x="230.88" y="-889.7" font-family="Helvetica,sans-Serif" font-size="9.00">RenderController.js</text>
</a>
</g>
</g>
<!-- src/js/view/View.js&#45;&gt;src/js/view/render/RenderController.js -->
<g id="edge24" class="edge">
<title>src/js/view/View.js&#45;&gt;src/js/view/render/RenderController.js</title>
<path fill="none" stroke="#000000" stroke-width="2" stroke-opacity="0.200000" d="M184.93,-869.35C197.35,-872.82 212.51,-877.05 226.54,-880.97"/>
<polygon fill="#000000" fill-opacity="0.200000" stroke="#000000" stroke-width="2" stroke-opacity="0.200000" points="225.84,-882.95 232.18,-882.54 226.97,-878.91 225.84,-882.95"/>
</g>
<!-- src/js/dispatcher/ApplicationDispatcher.js -->
<g id="node7" class="node">
<title>src/js/dispatcher/ApplicationDispatcher.js</title>
<g id="a_node7"><a xlink:href="src/js/dispatcher/ApplicationDispatcher.js" xlink:title="ApplicationDispatcher.js">
<path fill="#ffffcc" stroke="black" d="M627.33,-1019.25C627.33,-1019.25 525.42,-1019.25 525.42,-1019.25 522.33,-1019.25 519.25,-1016.17 519.25,-1013.08 519.25,-1013.08 519.25,-1006.92 519.25,-1006.92 519.25,-1003.83 522.33,-1000.75 525.42,-1000.75 525.42,-1000.75 627.33,-1000.75 627.33,-1000.75 630.42,-1000.75 633.5,-1003.83 633.5,-1006.92 633.5,-1006.92 633.5,-1013.08 633.5,-1013.08 633.5,-1016.17 630.42,-1019.25 627.33,-1019.25"/>
<text text-anchor="start" x="527.25" y="-1006.7" font-family="Helvetica,sans-Serif" font-size="9.00">ApplicationDispatcher.js</text>
</a>
</g>
</g>
<!-- src/js/dispatcher/ApplicationDispatcherEvent.js -->
<g id="node8" class="node">
<title>src/js/dispatcher/ApplicationDispatcherEvent.js</title>
<g id="a_node8"><a xlink:href="src/js/dispatcher/ApplicationDispatcherEvent.js" xlink:title="ApplicationDispatcherEvent.js">
<path fill="#ffffcc" stroke="black" d="M801.83,-1019.25C801.83,-1019.25 675.92,-1019.25 675.92,-1019.25 672.83,-1019.25 669.75,-1016.17 669.75,-1013.08 669.75,-1013.08 669.75,-1006.92 669.75,-1006.92 669.75,-1003.83 672.83,-1000.75 675.92,-1000.75 675.92,-1000.75 801.83,-1000.75 801.83,-1000.75 804.92,-1000.75 808,-1003.83 808,-1006.92 808,-1006.92 808,-1013.08 808,-1013.08 808,-1016.17 804.92,-1019.25 801.83,-1019.25"/>
<text text-anchor="start" x="677.75" y="-1006.7" font-family="Helvetica,sans-Serif" font-size="9.00">ApplicationDispatcherEvent.js</text>
</a>
</g>
</g>
<!-- src/js/dispatcher/ApplicationDispatcher.js&#45;&gt;src/js/dispatcher/ApplicationDispatcherEvent.js -->
<g id="edge8" class="edge">
<title>src/js/dispatcher/ApplicationDispatcher.js&#45;&gt;src/js/dispatcher/ApplicationDispatcherEvent.js</title>
<path fill="none" stroke="#000000" stroke-width="2" stroke-opacity="0.200000" d="M633.96,-1010C642.56,-1010 651.55,-1010 660.5,-1010"/>
<polygon fill="#000000" fill-opacity="0.200000" stroke="#000000" stroke-width="2" stroke-opacity="0.200000" points="660.39,-1012.1 666.39,-1010 660.39,-1007.9 660.39,-1012.1"/>
</g>
<!-- src/js/index.js -->
<g id="node9" class="node">
<title>src/js/index.js</title>
<g id="a_node9"><a xlink:href="src/js/index.js" xlink:title="index.js">
<path fill="#ffffcc" stroke="black" d="M85.21,-992.25C85.21,-992.25 43.54,-992.25 43.54,-992.25 40.46,-992.25 37.38,-989.17 37.38,-986.08 37.38,-986.08 37.38,-979.92 37.38,-979.92 37.38,-976.83 40.46,-973.75 43.54,-973.75 43.54,-973.75 85.21,-973.75 85.21,-973.75 88.29,-973.75 91.38,-976.83 91.38,-979.92 91.38,-979.92 91.38,-986.08 91.38,-986.08 91.38,-989.17 88.29,-992.25 85.21,-992.25"/>
<text text-anchor="start" x="48.62" y="-979.7" font-family="Helvetica,sans-Serif" font-size="9.00">index.js</text>
</a>
</g>
</g>
<!-- src/js/index.js&#45;&gt;src/js/application/Application.js -->
<g id="edge9" class="edge">
<title>src/js/index.js&#45;&gt;src/js/application/Application.js</title>
<path fill="none" stroke="#000000" stroke-width="2" stroke-opacity="0.200000" d="M91.77,-984.74C98.5,-985.18 105.92,-985.67 113.26,-986.15"/>
<polygon fill="#000000" fill-opacity="0.200000" stroke="#000000" stroke-width="2" stroke-opacity="0.200000" points="112.65,-988.21 118.78,-986.51 112.93,-984.02 112.65,-988.21"/>
</g>
<!-- src/js/ui/map/UIMenuMap.js&#45;&gt;src/js/dispatcher/ApplicationDispatcher.js -->
<g id="edge15" class="edge">
<title>src/js/ui/map/UIMenuMap.js&#45;&gt;src/js/dispatcher/ApplicationDispatcher.js</title>
<path fill="none" stroke="#000000" stroke-width="2" stroke-opacity="0.200000" d="M308.54,-1115.43C354.93,-1102.86 436.57,-1078.96 503.25,-1050 520.27,-1042.61 538.53,-1032.45 552.43,-1024.22"/>
<polygon fill="#000000" fill-opacity="0.200000" stroke="#000000" stroke-width="2" stroke-opacity="0.200000" points="553.4,-1026.09 557.46,-1021.2 551.24,-1022.49 553.4,-1026.09"/>
</g>
<!-- src/js/ui/path/UIMenuPath.js&#45;&gt;src/js/dispatcher/ApplicationDispatcher.js -->
<g id="edge16" class="edge">
<title>src/js/ui/path/UIMenuPath.js&#45;&gt;src/js/dispatcher/ApplicationDispatcher.js</title>
<path fill="none" stroke="#000000" stroke-width="2" stroke-opacity="0.200000" d="M302.87,-1176.35C349.35,-1161.06 438.2,-1128.2 503.25,-1082 526.27,-1065.65 548.61,-1041.71 562.18,-1025.99"/>
<polygon fill="#000000" fill-opacity="0.200000" stroke="#000000" stroke-width="2" stroke-opacity="0.200000" points="563.53,-1027.65 565.81,-1021.72 560.33,-1024.93 563.53,-1027.65"/>
</g>
<!-- src/js/ui/wall/UIMenuWall.js&#45;&gt;src/js/dispatcher/ApplicationDispatcher.js -->
<g id="edge17" class="edge">
<title>src/js/ui/wall/UIMenuWall.js&#45;&gt;src/js/dispatcher/ApplicationDispatcher.js</title>
<path fill="none" stroke="#000000" stroke-width="2" stroke-opacity="0.200000" d="M308.52,-1061.42C354.55,-1057.71 435.46,-1049.52 503.25,-1034 516.09,-1031.06 529.87,-1026.77 541.92,-1022.62"/>
<polygon fill="#000000" fill-opacity="0.200000" stroke="#000000" stroke-width="2" stroke-opacity="0.200000" points="542.53,-1024.63 547.49,-1020.66 541.13,-1020.67 542.53,-1024.63"/>
</g>
<!-- src/js/view/camera/keyboard/CameraKeyboardController.js -->
<g id="node18" class="node">
<title>src/js/view/camera/keyboard/CameraKeyboardController.js</title>
<g id="a_node18"><a xlink:href="src/js/view/camera/keyboard/CameraKeyboardController.js" xlink:title="CameraKeyboardController.js">
<path fill="#ffffcc" stroke="black" d="M481.08,-66.25C481.08,-66.25 355.92,-66.25 355.92,-66.25 352.83,-66.25 349.75,-63.17 349.75,-60.08 349.75,-60.08 349.75,-53.92 349.75,-53.92 349.75,-50.83 352.83,-47.75 355.92,-47.75 355.92,-47.75 481.08,-47.75 481.08,-47.75 484.17,-47.75 487.25,-50.83 487.25,-53.92 487.25,-53.92 487.25,-60.08 487.25,-60.08 487.25,-63.17 484.17,-66.25 481.08,-66.25"/>
<text text-anchor="start" x="357.75" y="-53.7" font-family="Helvetica,sans-Serif" font-size="9.00">CameraKeyboardController.js</text>
</a>
</g>
</g>
<!-- src/js/view/camera/CameraController.js&#45;&gt;src/js/view/camera/keyboard/CameraKeyboardController.js -->
<g id="edge25" class="edge">
<title>src/js/view/camera/CameraController.js&#45;&gt;src/js/view/camera/keyboard/CameraKeyboardController.js</title>
<path fill="none" stroke="#000000" stroke-width="2" stroke-opacity="0.200000" d="M278.04,-170.4C289.38,-153.98 314.36,-120.14 341.75,-98 355.26,-87.08 372.12,-77.62 386.49,-70.56"/>
<polygon fill="#000000" fill-opacity="0.200000" stroke="#000000" stroke-width="2" stroke-opacity="0.200000" points="387.38,-72.46 391.89,-67.98 385.57,-68.67 387.38,-72.46"/>
</g>
<!-- src/js/view/camera/module/CameraModuleLookat.js -->
<g id="node19" class="node">
<title>src/js/view/camera/module/CameraModuleLookat.js</title>
<g id="a_node19"><a xlink:href="src/js/view/camera/module/CameraModuleLookat.js" xlink:title="CameraModuleLookat.js">
<path fill="#ffffcc" stroke="black" d="M470.58,-158.25C470.58,-158.25 366.42,-158.25 366.42,-158.25 363.33,-158.25 360.25,-155.17 360.25,-152.08 360.25,-152.08 360.25,-145.92 360.25,-145.92 360.25,-142.83 363.33,-139.75 366.42,-139.75 366.42,-139.75 470.58,-139.75 470.58,-139.75 473.67,-139.75 476.75,-142.83 476.75,-145.92 476.75,-145.92 476.75,-152.08 476.75,-152.08 476.75,-155.17 473.67,-158.25 470.58,-158.25"/>
<text text-anchor="start" x="368.25" y="-145.7" font-family="Helvetica,sans-Serif" font-size="9.00">CameraModuleLookat.js</text>
</a>
</g>
</g>
<!-- src/js/view/camera/CameraController.js&#45;&gt;src/js/view/camera/module/CameraModuleLookat.js -->
<g id="edge26" class="edge">
<title>src/js/view/camera/CameraController.js&#45;&gt;src/js/view/camera/module/CameraModuleLookat.js</title>
<path fill="none" stroke="#000000" stroke-width="2" stroke-opacity="0.200000" d="M316.89,-170.3C325.16,-168.53 333.71,-166.71 341.75,-165 348.5,-163.57 355.59,-162.06 362.61,-160.58"/>
<polygon fill="#000000" fill-opacity="0.200000" stroke="#000000" stroke-width="2" stroke-opacity="0.200000" points="363.03,-162.63 368.47,-159.34 362.16,-158.52 363.03,-162.63"/>
</g>
<!-- src/js/view/camera/module/CameraModuleOffset.js -->
<g id="node20" class="node">
<title>src/js/view/camera/module/CameraModuleOffset.js</title>
<g id="a_node20"><a xlink:href="src/js/view/camera/module/CameraModuleOffset.js" xlink:title="CameraModuleOffset.js">
<path fill="#ffffcc" stroke="black" d="M468.33,-189.25C468.33,-189.25 368.67,-189.25 368.67,-189.25 365.58,-189.25 362.5,-186.17 362.5,-183.08 362.5,-183.08 362.5,-176.92 362.5,-176.92 362.5,-173.83 365.58,-170.75 368.67,-170.75 368.67,-170.75 468.33,-170.75 468.33,-170.75 471.42,-170.75 474.5,-173.83 474.5,-176.92 474.5,-176.92 474.5,-183.08 474.5,-183.08 474.5,-186.17 471.42,-189.25 468.33,-189.25"/>
<text text-anchor="start" x="370.5" y="-176.7" font-family="Helvetica,sans-Serif" font-size="9.00">CameraModuleOffset.js</text>
</a>
</g>
</g>
<!-- src/js/view/camera/CameraController.js&#45;&gt;src/js/view/camera/module/CameraModuleOffset.js -->
<g id="edge27" class="edge">
<title>src/js/view/camera/CameraController.js&#45;&gt;src/js/view/camera/module/CameraModuleOffset.js</title>
<path fill="none" stroke="#000000" stroke-width="2" stroke-opacity="0.200000" d="M319.79,-180C330.47,-180 341.94,-180 353.15,-180"/>
<polygon fill="#000000" fill-opacity="0.200000" stroke="#000000" stroke-width="2" stroke-opacity="0.200000" points="353.03,-182.1 359.03,-180 353.03,-177.9 353.03,-182.1"/>
</g>
<!-- src/js/view/camera/module/CameraModulePhi.js -->
<g id="node21" class="node">
<title>src/js/view/camera/module/CameraModulePhi.js</title>
<g id="a_node21"><a xlink:href="src/js/view/camera/module/CameraModulePhi.js" xlink:title="CameraModulePhi.js">
<path fill="#ffffcc" stroke="black" d="M463.46,-220.25C463.46,-220.25 373.54,-220.25 373.54,-220.25 370.46,-220.25 367.38,-217.17 367.38,-214.08 367.38,-214.08 367.38,-207.92 367.38,-207.92 367.38,-204.83 370.46,-201.75 373.54,-201.75 373.54,-201.75 463.46,-201.75 463.46,-201.75 466.54,-201.75 469.62,-204.83 469.62,-207.92 469.62,-207.92 469.62,-214.08 469.62,-214.08 469.62,-217.17 466.54,-220.25 463.46,-220.25"/>
<text text-anchor="start" x="375.38" y="-207.7" font-family="Helvetica,sans-Serif" font-size="9.00">CameraModulePhi.js</text>
</a>
</g>
</g>
<!-- src/js/view/camera/CameraController.js&#45;&gt;src/js/view/camera/module/CameraModulePhi.js -->
<g id="edge28" class="edge">
<title>src/js/view/camera/CameraController.js&#45;&gt;src/js/view/camera/module/CameraModulePhi.js</title>
<path fill="none" stroke="#000000" stroke-width="2" stroke-opacity="0.200000" d="M316.89,-189.7C325.16,-191.47 333.71,-193.29 341.75,-195 348.5,-196.43 355.59,-197.94 362.61,-199.42"/>
<polygon fill="#000000" fill-opacity="0.200000" stroke="#000000" stroke-width="2" stroke-opacity="0.200000" points="362.16,-201.48 368.47,-200.66 363.03,-197.37 362.16,-201.48"/>
</g>
<!-- src/js/view/camera/module/CameraModuleRadius.js -->
<g id="node22" class="node">
<title>src/js/view/camera/module/CameraModuleRadius.js</title>
<g id="a_node22"><a xlink:href="src/js/view/camera/module/CameraModuleRadius.js" xlink:title="CameraModuleRadius.js">
<path fill="#ffffcc" stroke="black" d="M471.33,-251.25C471.33,-251.25 365.67,-251.25 365.67,-251.25 362.58,-251.25 359.5,-248.17 359.5,-245.08 359.5,-245.08 359.5,-238.92 359.5,-238.92 359.5,-235.83 362.58,-232.75 365.67,-232.75 365.67,-232.75 471.33,-232.75 471.33,-232.75 474.42,-232.75 477.5,-235.83 477.5,-238.92 477.5,-238.92 477.5,-245.08 477.5,-245.08 477.5,-248.17 474.42,-251.25 471.33,-251.25"/>
<text text-anchor="start" x="367.5" y="-238.7" font-family="Helvetica,sans-Serif" font-size="9.00">CameraModuleRadius.js</text>
</a>
</g>
</g>
<!-- src/js/view/camera/CameraController.js&#45;&gt;src/js/view/camera/module/CameraModuleRadius.js -->
<g id="edge29" class="edge">
<title>src/js/view/camera/CameraController.js&#45;&gt;src/js/view/camera/module/CameraModuleRadius.js</title>
<path fill="none" stroke="#000000" stroke-width="2" stroke-opacity="0.200000" d="M283.26,-189.62C296.57,-200.13 319.44,-216.71 341.75,-226 344.94,-227.33 348.25,-228.55 351.63,-229.67"/>
<polygon fill="#000000" fill-opacity="0.200000" stroke="#000000" stroke-width="2" stroke-opacity="0.200000" points="350.89,-231.64 357.24,-231.39 352.12,-227.63 350.89,-231.64"/>
</g>
<!-- src/js/view/camera/module/CameraModuleTheta.js -->
<g id="node23" class="node">
<title>src/js/view/camera/module/CameraModuleTheta.js</title>
<g id="a_node23"><a xlink:href="src/js/view/camera/module/CameraModuleTheta.js" xlink:title="CameraModuleTheta.js">
<path fill="#ffffcc" stroke="black" d="M468.33,-127.25C468.33,-127.25 368.67,-127.25 368.67,-127.25 365.58,-127.25 362.5,-124.17 362.5,-121.08 362.5,-121.08 362.5,-114.92 362.5,-114.92 362.5,-111.83 365.58,-108.75 368.67,-108.75 368.67,-108.75 468.33,-108.75 468.33,-108.75 471.42,-108.75 474.5,-111.83 474.5,-114.92 474.5,-114.92 474.5,-121.08 474.5,-121.08 474.5,-124.17 471.42,-127.25 468.33,-127.25"/>
<text text-anchor="start" x="370.5" y="-114.7" font-family="Helvetica,sans-Serif" font-size="9.00">CameraModuleTheta.js</text>
</a>
</g>
</g>
<!-- src/js/view/camera/CameraController.js&#45;&gt;src/js/view/camera/module/CameraModuleTheta.js -->
<g id="edge30" class="edge">
<title>src/js/view/camera/CameraController.js&#45;&gt;src/js/view/camera/module/CameraModuleTheta.js</title>
<path fill="none" stroke="#000000" stroke-width="2" stroke-opacity="0.200000" d="M283.26,-170.38C296.57,-159.87 319.44,-143.29 341.75,-134 345.58,-132.41 349.59,-130.96 353.68,-129.66"/>
<polygon fill="#000000" fill-opacity="0.200000" stroke="#000000" stroke-width="2" stroke-opacity="0.200000" points="354.08,-131.73 359.25,-128.02 352.9,-127.7 354.08,-131.73"/>
</g>
<!-- src/js/view/content/ContentController.js&#45;&gt;src/js/application/ApplicationLogger.js -->
<g id="edge31" class="edge">
<title>src/js/view/content/ContentController.js&#45;&gt;src/js/application/ApplicationLogger.js</title>
<path fill="none" stroke="#000000" stroke-width="2" stroke-opacity="0.200000" d="M276.62,-629.72C287.61,-651.26 314.43,-704.79 333.75,-751 366.38,-829.04 398.9,-924.77 411.75,-963.5"/>
<polygon fill="#000000" fill-opacity="0.200000" stroke="#000000" stroke-width="2" stroke-opacity="0.200000" points="409.63,-963.77 413.51,-968.8 413.62,-962.45 409.63,-963.77"/>
</g>
<!-- src/js/view/content/ContentController.js&#45;&gt;src/js/dispatcher/ApplicationDispatcher.js -->
<g id="edge32" class="edge">
<title>src/js/view/content/ContentController.js&#45;&gt;src/js/dispatcher/ApplicationDispatcher.js</title>
<path fill="none" stroke="#000000" stroke-width="2" stroke-opacity="0.200000" d="M276.47,-629.72C286.51,-649.14 311.22,-693.29 341.75,-722 402.75,-779.36 449.6,-754.72 503.25,-819 547.66,-872.21 566.3,-955.56 572.64,-991.97"/>
<polygon fill="#000000" fill-opacity="0.200000" stroke="#000000" stroke-width="2" stroke-opacity="0.200000" points="570.51,-991.98 573.56,-997.56 574.65,-991.3 570.51,-991.98"/>
</g>
<!-- src/js/view/content/intersection/ContentIntersection.js -->
<g id="node24" class="node">
<title>src/js/view/content/intersection/ContentIntersection.js</title>
<g id="a_node24"><a xlink:href="src/js/view/content/intersection/ContentIntersection.js" xlink:title="ContentIntersection.js">
<path fill="#ffffcc" stroke="black" d="M464.58,-347.25C464.58,-347.25 372.42,-347.25 372.42,-347.25 369.33,-347.25 366.25,-344.17 366.25,-341.08 366.25,-341.08 366.25,-334.92 366.25,-334.92 366.25,-331.83 369.33,-328.75 372.42,-328.75 372.42,-328.75 464.58,-328.75 464.58,-328.75 467.67,-328.75 470.75,-331.83 470.75,-334.92 470.75,-334.92 470.75,-341.08 470.75,-341.08 470.75,-344.17 467.67,-347.25 464.58,-347.25"/>
<text text-anchor="start" x="374.25" y="-334.7" font-family="Helvetica,sans-Serif" font-size="9.00">ContentIntersection.js</text>
</a>
</g>
</g>
<!-- src/js/view/content/ContentController.js&#45;&gt;src/js/view/content/intersection/ContentIntersection.js -->
<g id="edge33" class="edge">
<title>src/js/view/content/ContentController.js&#45;&gt;src/js/view/content/intersection/ContentIntersection.js</title>
<path fill="none" stroke="#000000" stroke-width="2" stroke-opacity="0.200000" d="M276.96,-610.46C289.42,-587.69 320.35,-528.01 333.75,-474 338.85,-453.44 330.15,-396.73 341.75,-379 349.89,-366.56 363.12,-357.61 376.27,-351.3"/>
<polygon fill="#000000" fill-opacity="0.200000" stroke="#000000" stroke-width="2" stroke-opacity="0.200000" points="376.99,-353.27 381.63,-348.93 375.29,-349.43 376.99,-353.27"/>
</g>
<!-- src/js/view/content/map/ContentMap.js -->
<g id="node25" class="node">
<title>src/js/view/content/map/ContentMap.js</title>
<g id="a_node25"><a xlink:href="src/js/view/content/map/ContentMap.js" xlink:title="ContentMap.js">
<path fill="#ffffcc" stroke="black" d="M449.96,-535.25C449.96,-535.25 387.04,-535.25 387.04,-535.25 383.96,-535.25 380.88,-532.17 380.88,-529.08 380.88,-529.08 380.88,-522.92 380.88,-522.92 380.88,-519.83 383.96,-516.75 387.04,-516.75 387.04,-516.75 449.96,-516.75 449.96,-516.75 453.04,-516.75 456.12,-519.83 456.12,-522.92 456.12,-522.92 456.12,-529.08 456.12,-529.08 456.12,-532.17 453.04,-535.25 449.96,-535.25"/>
<text text-anchor="start" x="388.88" y="-522.7" font-family="Helvetica,sans-Serif" font-size="9.00">ContentMap.js</text>
</a>
</g>
</g>
<!-- src/js/view/content/ContentController.js&#45;&gt;src/js/view/content/map/ContentMap.js -->
<g id="edge34" class="edge">
<title>src/js/view/content/ContentController.js&#45;&gt;src/js/view/content/map/ContentMap.js</title>
<path fill="none" stroke="#000000" stroke-width="2" stroke-opacity="0.200000" d="M283.14,-610.43C296.73,-599.36 320.19,-580.87 341.75,-567 357.24,-557.03 375.37,-547.17 390,-539.61"/>
<polygon fill="#000000" fill-opacity="0.200000" stroke="#000000" stroke-width="2" stroke-opacity="0.200000" points="390.65,-541.64 395.04,-537.04 388.74,-537.9 390.65,-541.64"/>
</g>
<!-- src/js/view/content/path/ContentPath.js -->
<g id="node26" class="node">
<title>src/js/view/content/path/ContentPath.js</title>
<g id="a_node26"><a xlink:href="src/js/view/content/path/ContentPath.js" xlink:title="ContentPath.js">
<path fill="#ffffcc" stroke="black" d="M450.33,-447.25C450.33,-447.25 386.67,-447.25 386.67,-447.25 383.58,-447.25 380.5,-444.17 380.5,-441.08 380.5,-441.08 380.5,-434.92 380.5,-434.92 380.5,-431.83 383.58,-428.75 386.67,-428.75 386.67,-428.75 450.33,-428.75 450.33,-428.75 453.42,-428.75 456.5,-431.83 456.5,-434.92 456.5,-434.92 456.5,-441.08 456.5,-441.08 456.5,-444.17 453.42,-447.25 450.33,-447.25"/>
<text text-anchor="start" x="388.5" y="-434.7" font-family="Helvetica,sans-Serif" font-size="9.00">ContentPath.js</text>
</a>
</g>
</g>
<!-- src/js/view/content/ContentController.js&#45;&gt;src/js/view/content/path/ContentPath.js -->
<g id="edge35" class="edge">
<title>src/js/view/content/ContentController.js&#45;&gt;src/js/view/content/path/ContentPath.js</title>
<path fill="none" stroke="#000000" stroke-width="2" stroke-opacity="0.200000" d="M276.25,-610.54C286.44,-590.2 312.27,-541.33 341.75,-506 358.64,-485.76 381.56,-466.02 397.75,-453.07"/>
<polygon fill="#000000" fill-opacity="0.200000" stroke="#000000" stroke-width="2" stroke-opacity="0.200000" points="398.88,-454.86 402.3,-449.49 396.28,-451.56 398.88,-454.86"/>
</g>
<!-- src/js/view/content/roof/ContentRoof.js -->
<g id="node27" class="node">
<title>src/js/view/content/roof/ContentRoof.js</title>
<g id="a_node27"><a xlink:href="src/js/view/content/roof/ContentRoof.js" xlink:title="ContentRoof.js">
<path fill="#ffffcc" stroke="black" d="M450.71,-596.25C450.71,-596.25 386.29,-596.25 386.29,-596.25 383.21,-596.25 380.12,-593.17 380.12,-590.08 380.12,-590.08 380.12,-583.92 380.12,-583.92 380.12,-580.83 383.21,-577.75 386.29,-577.75 386.29,-577.75 450.71,-577.75 450.71,-577.75 453.79,-577.75 456.88,-580.83 456.88,-583.92 456.88,-583.92 456.88,-590.08 456.88,-590.08 456.88,-593.17 453.79,-596.25 450.71,-596.25"/>
<text text-anchor="start" x="388.12" y="-583.7" font-family="Helvetica,sans-Serif" font-size="9.00">ContentRoof.js</text>
</a>
</g>
</g>
<!-- src/js/view/content/ContentController.js&#45;&gt;src/js/view/content/roof/ContentRoof.js -->
<g id="edge36" class="edge">
<title>src/js/view/content/ContentController.js&#45;&gt;src/js/view/content/roof/ContentRoof.js</title>
<path fill="none" stroke="#000000" stroke-width="2" stroke-opacity="0.200000" d="M314.6,-610.28C332.37,-606.26 353.01,-601.59 371.12,-597.49"/>
<polygon fill="#000000" fill-opacity="0.200000" stroke="#000000" stroke-width="2" stroke-opacity="0.200000" points="371.44,-599.57 376.83,-596.2 370.51,-595.48 371.44,-599.57"/>
</g>
<!-- src/js/view/content/wall/ContentWall.js -->
<g id="node28" class="node">
<title>src/js/view/content/wall/ContentWall.js</title>
<g id="a_node28"><a xlink:href="src/js/view/content/wall/ContentWall.js" xlink:title="ContentWall.js">
<path fill="#ffffcc" stroke="black" d="M449.96,-661.25C449.96,-661.25 387.04,-661.25 387.04,-661.25 383.96,-661.25 380.88,-658.17 380.88,-655.08 380.88,-655.08 380.88,-648.92 380.88,-648.92 380.88,-645.83 383.96,-642.75 387.04,-642.75 387.04,-642.75 449.96,-642.75 449.96,-642.75 453.04,-642.75 456.12,-645.83 456.12,-648.92 456.12,-648.92 456.12,-655.08 456.12,-655.08 456.12,-658.17 453.04,-661.25 449.96,-661.25"/>
<text text-anchor="start" x="388.88" y="-648.7" font-family="Helvetica,sans-Serif" font-size="9.00">ContentWall.js</text>
</a>
</g>
</g>
<!-- src/js/view/content/ContentController.js&#45;&gt;src/js/view/content/wall/ContentWall.js -->
<g id="edge37" class="edge">
<title>src/js/view/content/ContentController.js&#45;&gt;src/js/view/content/wall/ContentWall.js</title>
<path fill="none" stroke="#000000" stroke-width="2" stroke-opacity="0.200000" d="M315.79,-629.69C333.66,-633.61 354.28,-638.13 372.26,-642.08"/>
<polygon fill="#000000" fill-opacity="0.200000" stroke="#000000" stroke-width="2" stroke-opacity="0.200000" points="371.58,-644.08 377.89,-643.31 372.48,-639.97 371.58,-644.08"/>
</g>
<!-- src/js/view/interaction/InteractionController.js&#45;&gt;src/js/dispatcher/ApplicationDispatcher.js -->
<g id="edge42" class="edge">
<title>src/js/view/interaction/InteractionController.js&#45;&gt;src/js/dispatcher/ApplicationDispatcher.js</title>
<path fill="none" stroke="#000000" stroke-width="2" stroke-opacity="0.200000" d="M287.24,-780.68C299.99,-788.73 318.35,-800.66 333.75,-812 420.9,-876.2 519.02,-960.64 558.04,-994.74"/>
<polygon fill="#000000" fill-opacity="0.200000" stroke="#000000" stroke-width="2" stroke-opacity="0.200000" points="556.44,-996.14 562.34,-998.51 559.21,-992.98 556.44,-996.14"/>
</g>
<!-- src/js/view/light/LightController.js&#45;&gt;src/js/application/ApplicationLogger.js -->
<g id="edge43" class="edge">
<title>src/js/view/light/LightController.js&#45;&gt;src/js/application/ApplicationLogger.js</title>
<path fill="none" stroke="#000000" stroke-width="2" stroke-opacity="0.200000" d="M289.6,-841.73C302.65,-849.28 320.29,-860.53 333.75,-873 364.29,-901.29 392.31,-941.53 406.91,-964.06"/>
<polygon fill="#000000" fill-opacity="0.200000" stroke="#000000" stroke-width="2" stroke-opacity="0.200000" points="405.04,-965.02 410.04,-968.95 408.58,-962.76 405.04,-965.02"/>
</g>
<!-- src/js/view/render/RenderController.js&#45;&gt;src/js/application/ApplicationConfiguration.js -->
<g id="edge44" class="edge">
<title>src/js/view/render/RenderController.js&#45;&gt;src/js/application/ApplicationConfiguration.js</title>
<path fill="none" stroke="#000000" stroke-width="2" stroke-opacity="0.200000" d="M270.62,-902.62C270.62,-922.63 270.62,-942.63 270.62,-962.63"/>
<polygon fill="#000000" fill-opacity="0.200000" stroke="#000000" stroke-width="2" stroke-opacity="0.200000" points="268.53,-962.48 270.63,-968.48 272.73,-962.48 268.53,-962.48"/>
</g>
<!-- src/js/view/content/map/ContentMap.js&#45;&gt;src/js/dispatcher/ApplicationDispatcher.js -->
<g id="edge38" class="edge">
<title>src/js/view/content/map/ContentMap.js&#45;&gt;src/js/dispatcher/ApplicationDispatcher.js</title>
<path fill="none" stroke="#000000" stroke-width="2" stroke-opacity="0.200000" d="M456.59,-534.9C473.7,-541 492.55,-550.98 503.25,-567 511.17,-578.85 509.38,-680.87 511.25,-695 526.33,-808.87 558.61,-943.26 570.69,-991.56"/>
<polygon fill="#000000" fill-opacity="0.200000" stroke="#000000" stroke-width="2" stroke-opacity="0.200000" points="568.64,-992.04 572.14,-997.35 572.72,-991.02 568.64,-992.04"/>
</g>
<!-- src/js/view/content/path/path/ContentPathLine.js -->
<g id="node30" class="node">
<title>src/js/view/content/path/path/ContentPathLine.js</title>
<g id="a_node30"><a xlink:href="src/js/view/content/path/path/ContentPathLine.js" xlink:title="ContentPathLine.js">
<path fill="#ffffcc" stroke="black" d="M617.21,-416.25C617.21,-416.25 535.54,-416.25 535.54,-416.25 532.46,-416.25 529.38,-413.17 529.38,-410.08 529.38,-410.08 529.38,-403.92 529.38,-403.92 529.38,-400.83 532.46,-397.75 535.54,-397.75 535.54,-397.75 617.21,-397.75 617.21,-397.75 620.29,-397.75 623.38,-400.83 623.38,-403.92 623.38,-403.92 623.38,-410.08 623.38,-410.08 623.38,-413.17 620.29,-416.25 617.21,-416.25"/>
<text text-anchor="start" x="537.38" y="-403.7" font-family="Helvetica,sans-Serif" font-size="9.00">ContentPathLine.js</text>
</a>
</g>
</g>
<!-- src/js/view/content/path/ContentPath.js&#45;&gt;src/js/view/content/path/path/ContentPathLine.js -->
<g id="edge39" class="edge">
<title>src/js/view/content/path/ContentPath.js&#45;&gt;src/js/view/content/path/path/ContentPathLine.js</title>
<path fill="none" stroke="#000000" stroke-width="2" stroke-opacity="0.200000" d="M456.84,-430.57C475.83,-426.8 499.28,-422.13 520.31,-417.95"/>
<polygon fill="#000000" fill-opacity="0.200000" stroke="#000000" stroke-width="2" stroke-opacity="0.200000" points="520.7,-420.01 526.18,-416.78 519.88,-415.9 520.7,-420.01"/>
</g>
<!-- src/js/view/content/path/path/ContentPathPoint.js -->
<g id="node31" class="node">
<title>src/js/view/content/path/path/ContentPathPoint.js</title>
<g id="a_node31"><a xlink:href="src/js/view/content/path/path/ContentPathPoint.js" xlink:title="ContentPathPoint.js">
<path fill="#ffffcc" stroke="black" d="M618.71,-447.25C618.71,-447.25 534.04,-447.25 534.04,-447.25 530.96,-447.25 527.88,-444.17 527.88,-441.08 527.88,-441.08 527.88,-434.92 527.88,-434.92 527.88,-431.83 530.96,-428.75 534.04,-428.75 534.04,-428.75 618.71,-428.75 618.71,-428.75 621.79,-428.75 624.88,-431.83 624.88,-434.92 624.88,-434.92 624.88,-441.08 624.88,-441.08 624.88,-444.17 621.79,-447.25 618.71,-447.25"/>
<text text-anchor="start" x="535.88" y="-434.7" font-family="Helvetica,sans-Serif" font-size="9.00">ContentPathPoint.js</text>
</a>
</g>
</g>
<!-- src/js/view/content/path/ContentPath.js&#45;&gt;src/js/view/content/path/path/ContentPathPoint.js -->
<g id="edge40" class="edge">
<title>src/js/view/content/path/ContentPath.js&#45;&gt;src/js/view/content/path/path/ContentPathPoint.js</title>
<path fill="none" stroke="#000000" stroke-width="2" stroke-opacity="0.200000" d="M456.84,-438C475.27,-438 497.92,-438 518.46,-438"/>
<polygon fill="#000000" fill-opacity="0.200000" stroke="#000000" stroke-width="2" stroke-opacity="0.200000" points="518.39,-440.1 524.39,-438 518.39,-435.9 518.39,-440.1"/>
</g>
<!-- src/js/view/content/wall/wall/ContentWallSurface.js -->
<g id="node32" class="node">
<title>src/js/view/content/wall/wall/ContentWallSurface.js</title>
<g id="a_node32"><a xlink:href="src/js/view/content/wall/wall/ContentWallSurface.js" xlink:title="ContentWallSurface.js">
<path fill="#ffffcc" stroke="black" d="M623.58,-665.25C623.58,-665.25 529.17,-665.25 529.17,-665.25 526.08,-665.25 523,-662.17 523,-659.08 523,-659.08 523,-652.92 523,-652.92 523,-649.83 526.08,-646.75 529.17,-646.75 529.17,-646.75 623.58,-646.75 623.58,-646.75 626.67,-646.75 629.75,-649.83 629.75,-652.92 629.75,-652.92 629.75,-659.08 629.75,-659.08 629.75,-662.17 626.67,-665.25 623.58,-665.25"/>
<text text-anchor="start" x="531" y="-652.7" font-family="Helvetica,sans-Serif" font-size="9.00">ContentWallSurface.js</text>
</a>
</g>
</g>
<!-- src/js/view/content/wall/ContentWall.js&#45;&gt;src/js/view/content/wall/wall/ContentWallSurface.js -->
<g id="edge41" class="edge">
<title>src/js/view/content/wall/ContentWall.js&#45;&gt;src/js/view/content/wall/wall/ContentWallSurface.js</title>
<path fill="none" stroke="#000000" stroke-width="2" stroke-opacity="0.200000" d="M456.44,-652.95C473.62,-653.39 494.51,-653.92 513.96,-654.42"/>
<polygon fill="#000000" fill-opacity="0.200000" stroke="#000000" stroke-width="2" stroke-opacity="0.200000" points="513.69,-656.52 519.75,-654.57 513.8,-652.32 513.69,-656.52"/>
</g>
<!-- src/js/view/content/cursor/ContentCursor.js -->
<g id="node29" class="node">
<title>src/js/view/content/cursor/ContentCursor.js</title>
<g id="a_node29"><a xlink:href="src/js/view/content/cursor/ContentCursor.js" xlink:title="ContentCursor.js">
<path fill="#ffffcc" stroke="black" d="M306.58,-444.25C306.58,-444.25 234.67,-444.25 234.67,-444.25 231.58,-444.25 228.5,-441.17 228.5,-438.08 228.5,-438.08 228.5,-431.92 228.5,-431.92 228.5,-428.83 231.58,-425.75 234.67,-425.75 234.67,-425.75 306.58,-425.75 306.58,-425.75 309.67,-425.75 312.75,-428.83 312.75,-431.92 312.75,-431.92 312.75,-438.08 312.75,-438.08 312.75,-441.17 309.67,-444.25 306.58,-444.25"/>
<text text-anchor="start" x="236.5" y="-431.7" font-family="Helvetica,sans-Serif" font-size="9.00">ContentCursor.js</text>
</a>
</g>
</g>
</g>
</svg>
